SplineFontDB: 3.0
FontName: Vishasita
FullName: Vishasita
FamilyName: Vishasita
Weight: Regular
Copyright: Created by Devajyoti Sarkar,,, with FontForge 2.0 (http://fontforge.sf.net)
UComments: "2017-2-5: Created." 
Version: 0.1
ItalicAngle: 0
UnderlinePosition: -99
UnderlineWidth: 49
Ascent: 800
Descent: 200
LayerCount: 2
Layer: 0 0 "Back"  1
Layer: 1 0 "Fore"  0
XUID: [1021 512 423454595 12185763]
FSType: 0
OS2Version: 0
OS2_WeightWidthSlopeOnly: 0
OS2_UseTypoMetrics: 1
CreationTime: 1486267212
ModificationTime: 1486356494
OS2TypoAscent: 0
OS2TypoAOffset: 1
OS2TypoDescent: 0
OS2TypoDOffset: 1
OS2TypoLinegap: 90
OS2WinAscent: 0
OS2WinAOffset: 1
OS2WinDescent: 0
OS2WinDOffset: 1
HheadAscent: 0
HheadAOffset: 1
HheadDescent: 0
HheadDOffset: 1
MarkAttachClasses: 1
DEI: 91125

StartChar: unie001
Encoding: 256 57345 0
Width: 400
VWidth: 0
Flags: W
HStem: 0 21G<50 117.692 282.308 350>
VStem: 150 100<280 366> 170 60<450 600>
LayerCount: 2
Fore
SplineSet
170 600 m 1xa0
 230 600 l 1
 230 450 l 1xa0
 350 350 l 1
 350 280 l 1
 285 337 251 366 250 366 c 1
 250 280 l 1
 350 0 l 1
 290 0 l 1
 200 234 l 1
 110 0 l 1
 50 0 l 1
 150 280 l 1
 150 366 l 1xc0
 50 280 l 1
 50 350 l 1
 170 450 l 1
 170 467 l 1
 170 562 l 1
 170 600 l 1xa0
EndSplineSet
Validated: 1
EndChar

StartChar: unie002
Encoding: 257 57346 1
Width: 650
VWidth: 0
Flags: W
HStem: 0 21G<50 104 175 242.692 407.308 474 546 600>
VStem: 50 54<1 596> 275 100<280 366> 295 60<450 600> 546 54<1 596>
LayerCount: 2
Fore
SplineSet
295 600 m 1xd8
 355 600 l 1
 355 450 l 1xd8
 474 350 l 1
 474 280 l 1
 409 337 376 366 375 366 c 1
 375 280 l 1
 474 0 l 1
 415 0 l 1
 325 234 l 1
 235 0 l 1
 175 0 l 1
 275 280 l 1
 275 366 l 1xe8
 175 280 l 1
 175 350 l 1
 295 450 l 1
 295 467 l 1
 295 562 l 1
 295 600 l 1xd8
546 596 m 1
 600 596 l 1
 600 1 l 1
 546 1 l 1
 546 596 l 1
50 596 m 1
 104 596 l 1
 104 1 l 1
 50 1 l 1
 50 596 l 1
EndSplineSet
Validated: 1
EndChar

StartChar: unie003
Encoding: 258 57347 2
Width: 400
VWidth: 0
Flags: W
HStem: 0 21G<50 117.692 282.308 350> 33 99<180 220>
VStem: 150 100<280 366> 170 60<450 600> 180 40<33 132>
LayerCount: 2
Fore
SplineSet
170 600 m 1xd0
 230 600 l 1
 230 450 l 1xd0
 350 350 l 1
 350 280 l 1
 285 337 251 366 250 366 c 1
 250 280 l 1
 350 0 l 1
 290 0 l 1
 200 234 l 1
 110 0 l 1
 50 0 l 1
 150 280 l 1
 150 366 l 1xe0
 50 280 l 1
 50 350 l 1
 170 450 l 1
 170 467 l 1
 170 562 l 1
 170 600 l 1xd0
180 132 m 1xc8
 220 132 l 1
 220 33 l 1
 180 33 l 1
 180 132 l 1xc8
EndSplineSet
Validated: 1
EndChar

StartChar: unie004
Encoding: 259 57348 3
Width: 398
VWidth: 0
Flags: W
HStem: 0 21G<50 113.265 268.735 333> 495 24<220 245>
VStem: 144 95<280 366> 163 57<450 495 519 565 599 600>
LayerCount: 2
Fore
SplineSet
272 535 m 1xc0
 265 514 l 1
 314 510 l 1
 272 535 l 1xc0
220 565 m 1xd0
 220 519 l 1
 245 516 l 1
 253 545 l 1
 220 565 l 1xd0
163 600 m 1
 220 600 l 1
 220 599 l 1
 348 495 l 1
 220 495 l 1
 220 450 l 1xd0
 333 350 l 1
 333 280 l 1
 272 337 240 366 239 366 c 1
 239 280 l 1
 333 0 l 1
 276 0 l 1
 191 234 l 1
 106 0 l 1
 50 0 l 1
 144 280 l 1
 144 366 l 1xe0
 50 280 l 1
 50 350 l 1
 163 450 l 1
 163 467 l 1
 163 562 l 1
 163 600 l 1
EndSplineSet
Validated: 1
EndChar

StartChar: unie005
Encoding: 260 57349 4
Width: 598
VWidth: 0
Flags: W
HStem: 0 21G<155 220.35 378.564 443>
VStem: 172 19<509 547> 251 96<280 366 502 574> 270 58<450 483.251 594.487 600> 365 19<509 562> 407 19<509 547>
LayerCount: 2
Fore
SplineSet
270 600 m 1xdc
 328 600 l 1
 328 599 l 1
 345 597 366 590 390 580 c 0
 414 570 433 561 447 552 c 0
 464 542 478 530 492 516 c 0
 506 502 516 491 520 484 c 0
 524 477 533 463 548 441 c 1
 501 466 468 481 449 486 c 0
 436 489 423 491 410 491 c 0
 381 491 353 486 328 476 c 1
 328 450 l 1xdc
 443 350 l 1
 443 280 l 1
 380 337 348 366 347 366 c 1
 347 280 l 1
 443 0 l 1
 386 0 l 1
 299 234 l 1
 213 0 l 1
 155 0 l 1
 251 280 l 1
 251 366 l 1xec
 155 280 l 1
 155 350 l 1
 270 450 l 1
 270 476 l 1
 245 486 217 491 188 491 c 0
 175 491 162 489 149 486 c 0
 127 480 94 465 50 442 c 1
 52 445 55 450 60 458 c 0
 65 466 69 470 71 473 c 0
 73 476 76 480 81 486 c 0
 86 492 89 498 92 501 c 0
 95 504 99 509 104 514 c 0
 109 519 114 524 118 528 c 0
 122 532 126 536 132 540 c 0
 138 544 144 548 151 552 c 0
 165 561 184 570 208 580 c 0
 232 590 253 597 270 599 c 1
 270 600 l 1xdc
255 574 m 2
 254 574 253 574 250 573 c 0
 246 572 246 572 242 571 c 0
 238 570 238 570 234 569 c 1
 230 507 l 1
 239 506 247 505 254 502 c 1
 255 574 l 2
344 574 m 1
 344 502 l 1
 351 505 359 506 368 507 c 1
 365 568 l 1
 359 570 352 572 344 574 c 1
214 563 m 1
 211 562 208 561 203 559 c 0
 198 557 195 556 193 555 c 1
 191 509 l 1
 211 509 l 1
 214 563 l 1
384 562 m 1
 387 509 l 1
 407 509 l 1
 406 555 l 1
 403 556 404 556 396 558 c 0
 391 560 387 561 384 562 c 1
173 547 m 2
 172 547 l 0
 166 543 166 543 154 535 c 1
 157 503 l 1
 169 506 l 2
 170 506 170 506 171 507 c 2
 172 507 l 1
 173 547 l 2
425 547 m 2
 426 506 l 1
 429 506 l 2
 430 506 432 505 435 504 c 0
 438 503 440 503 441 502 c 1
 444 535 l 1
 442 536 440 538 436 540 c 0
 432 542 429 545 427 546 c 0
 426 546 l 0
 426 546 426 547 425 547 c 2
136 523 m 1
 134 522 131 520 128 518 c 0
 125 516 122 513 121 512 c 1
 126 493 l 1
 127 494 129 495 132 496 c 0
 135 497 137 497 138 497 c 1
 136 523 l 1
462 523 m 1
 460 496 l 1
 461 496 463 495 466 494 c 0
 469 493 472 492 473 492 c 1
 477 511 l 1
 462 523 l 1
105 498 m 1
 97 491 91 485 88 479 c 1
 89 480 96 482 108 487 c 1
 105 498 l 1
493 498 m 1
 490 486 l 1
 502 481 509 479 510 478 c 1
 506 485 500 492 493 498 c 1
EndSplineSet
Validated: 1
EndChar

StartChar: unie006
Encoding: 261 57350 5
Width: 400
VWidth: 0
Flags: W
HStem: 0 21G<50 117.692 282.308 350>
VStem: 150 100<280 366> 170 60<450 529>
LayerCount: 2
Fore
SplineSet
170 600 m 1xa0
 230 600 l 1
 350 500 l 1
 350 430 l 1
 230 529 l 1
 230 450 l 1xa0
 350 350 l 1
 350 280 l 1
 285 337 251 366 250 366 c 1
 250 280 l 1
 350 0 l 1
 290 0 l 1
 200 234 l 1
 110 0 l 1
 50 0 l 1
 150 280 l 1
 150 366 l 1xc0
 50 280 l 1
 50 350 l 1
 170 450 l 1
 170 467 l 1
 170 562 l 1
 170 600 l 1xa0
EndSplineSet
Validated: 1
EndChar

StartChar: unie007
Encoding: 262 57351 6
Width: 400
VWidth: 0
Flags: W
HStem: 0 21G<50 117.692 282.308 350>
VStem: 150 100<280 366> 170 60<485 600>
LayerCount: 2
Fore
SplineSet
170 600 m 1xa0
 230 600 l 1
 230 485 l 1xa0
 312 553 l 1
 348 512 l 1
 254 429 l 1
 350 350 l 1
 350 280 l 1
 285 337 251 366 250 366 c 1
 250 280 l 1
 350 0 l 1
 290 0 l 1
 200 234 l 1
 110 0 l 1
 50 0 l 1
 150 280 l 1
 150 366 l 1xc0
 50 280 l 1
 50 350 l 1
 170 450 l 1
 170 467 l 1
 170 562 l 1
 170 600 l 1xa0
EndSplineSet
Validated: 1
EndChar

StartChar: unie008
Encoding: 263 57352 7
Width: 446
VWidth: 0
Flags: W
HStem: 0 21G<73 140.607 304.308 372>
VStem: 50 51<498.283 571> 172 100<280 366> 192 60<451 600> 345 51<500.102 570>
LayerCount: 2
Fore
SplineSet
192 600 m 1xd8
 252 600 l 1
 252 450 l 1xd8
 271 457 286 465 297 472 c 0
 308 479 319 490 329 507 c 0
 339 524 344 545 345 570 c 1
 396 571 l 1
 388 494 355 441 298 412 c 1
 372 350 l 1
 372 280 l 1
 307 337 273 366 272 366 c 1
 272 280 l 1
 372 0 l 1
 312 0 l 1
 222 234 l 1
 133 0 l 1
 73 0 l 1
 172 280 l 1
 172 366 l 1xe8
 73 280 l 1
 73 350 l 1
 148 413 l 1
 91 442 58 495 50 572 c 1
 101 571 l 1
 102 536 111 510 126 493 c 0
 141 476 163 462 192 451 c 1
 192 470 l 1
 192 563 l 1
 192 600 l 1xd8
EndSplineSet
Validated: 1
EndChar

StartChar: unie009
Encoding: 264 57353 8
Width: 798
VWidth: 0
Flags: W
HStem: 0 21G<50 142 248 314.692 479.308 547 590 682>
VStem: 149 59<181.645 410.401> 225 51<498.283 571> 347 100<280 366> 367 60<451 599> 520 51<498.057 570> 689 59<181.645 410.401>
LayerCount: 2
Fore
SplineSet
367 599 m 1xee
 427 599 l 1
 427 450 l 1xee
 446 457 461 465 472 472 c 0
 483 479 494 490 504 507 c 0
 514 524 519 545 520 570 c 1
 571 571 l 1
 563 495 530 442 472 412 c 1
 547 350 l 1
 547 280 l 1
 482 337 448 366 447 366 c 1
 447 280 l 1
 547 0 l 1
 487 0 l 1
 397 234 l 1
 307 0 l 1
 248 0 l 1
 347 280 l 1
 347 366 l 1xf6
 248 280 l 1
 248 350 l 1
 323 413 l 1
 266 442 233 495 225 572 c 1
 276 571 l 1
 277 536 286 510 301 493 c 0
 316 476 338 462 367 451 c 1
 367 470 l 1
 367 562 l 1
 367 599 l 1xee
590 600 m 1
 649 600 l 1
 671 557 686 526 696 506 c 0
 706 486 718 456 730 416 c 0
 742 376 748 340 748 308 c 2
 748 300 l 1
 748 287 l 2
 748 207 715 111 649 0 c 1
 590 0 l 1
 597 17 608 41 622 72 c 0
 636 103 648 128 655 146 c 0
 662 164 670 188 677 216 c 0
 684 244 688 272 689 300 c 1
 688 322 684 348 676 379 c 0
 668 410 660 433 654 449 c 0
 648 465 636 493 618 534 c 0
 600 575 591 597 590 600 c 1
50 600 m 1
 109 600 l 1
 131 557 146 526 156 506 c 0
 166 486 178 456 190 416 c 0
 202 376 208 340 208 308 c 2
 208 300 l 1
 208 287 l 2
 208 207 175 111 109 0 c 1
 50 0 l 1
 57 17 68 41 82 72 c 0
 96 103 108 128 115 146 c 0
 122 164 130 188 137 216 c 0
 144 244 148 272 149 300 c 1
 148 322 144 348 136 379 c 0
 128 410 120 433 114 449 c 0
 108 465 96 493 78 534 c 0
 60 575 51 597 50 600 c 1
EndSplineSet
Validated: 1
EndChar

StartChar: unie00a
Encoding: 265 57354 9
Width: 400
VWidth: 0
Flags: W
HStem: 0 21G<50 117.692 282.308 350> 494 39<89 170 230 310>
VStem: 50 39<382 494> 150 100<280 366> 170 60<450 494 533 600> 310 39<383 494>
LayerCount: 2
Fore
SplineSet
230 494 m 1xec
 230 450 l 1
 310 383 l 1
 310 494 l 1
 230 494 l 1xec
89 494 m 1
 89 382 l 1
 170 450 l 1
 170 494 l 1
 89 494 l 1
170 600 m 1
 230 600 l 1
 230 533 l 1xec
 349 533 l 1
 349 494 l 1
 349 350 l 1
 350 350 l 1
 350 280 l 1
 285 337 251 366 250 366 c 1
 250 280 l 1
 350 0 l 1
 290 0 l 1
 200 234 l 1
 110 0 l 1
 50 0 l 1
 150 280 l 1
 150 366 l 1xf4
 50 280 l 1
 50 333 l 1
 50 494 l 1
 50 533 l 1
 170 533 l 1
 170 600 l 1
EndSplineSet
Validated: 1
EndChar

StartChar: unie00b
Encoding: 266 57355 10
Width: 548
VWidth: 0
Flags: W
HStem: 1 21G<100 193.5 369 434> 402 29<94 185 228 244 304 319 363 454>
LayerCount: 2
Fore
SplineSet
363 402 m 1
 409 301 l 1
 454 402 l 1
 363 402 l 1
94 402 m 1
 139 302 l 1
 185 402 l 1
 94 402 l 1
274 531 m 1
 228 431 l 1
 319 431 l 1
 274 531 l 1
274 599 m 1
 350 431 l 1
 498 431 l 1
 409 232 l 1
 332 402 l 1
 304 402 l 1
 313 348 321 300 330 260 c 0
 339 220 353 175 374 124 c 0
 395 73 420 32 448 1 c 1
 369 3 l 1
 341 48 321 89 308 128 c 0
 295 167 283 215 274 271 c 1
 268 218 258 172 244 132 c 0
 230 92 208 48 179 1 c 1
 100 1 l 1
 111 13 122 26 132 42 c 0
 142 58 151 77 160 99 c 0
 169 121 176 139 182 154 c 0
 188 169 194 192 202 222 c 0
 210 252 214 272 217 282 c 0
 220 292 225 314 232 347 c 0
 239 380 243 399 244 402 c 1
 216 402 l 1
 139 234 l 1
 50 431 l 1
 197 431 l 1
 274 599 l 1
EndSplineSet
Validated: 1
EndChar

StartChar: unie00c
Encoding: 267 57356 11
Width: 648
VWidth: 0
Flags: W
HStem: 0 21G<224 290.957 357.043 424> 20 47<114.582 162.888 490.883 538.629> 444 57<113.801 131> 477 44<233.947 294 354 401.783>
VStem: 50 38<112.109 404.976> 189 35<115.294 291> 294 60<209 336 392 477 521 599> 424 39<105.447 290.575> 563 35<111.872 393.671>
LayerCount: 2
Fore
SplineSet
511 440 m 0x0f80
 498 440 486 421 477 384 c 0
 468 347 463 304 463 253 c 2
 463 246 l 1
 464 195 468 151 478 116 c 0
 488 81 508 73 514 63 c 1
 528 63 540 82 549 120 c 0
 558 158 563 203 563 258 c 1
 562 311 557 355 547 389 c 0
 537 423 525 440 511 440 c 0x0f80
136 444 m 0x6f80
 123 444 111 425 102 388 c 0
 93 351 88 308 88 257 c 2
 88 250 l 1
 89 199 94 155 103 120 c 0
 112 85 124 67 138 67 c 2
 139 67 l 1
 154 68 166 87 175 124 c 0
 184 161 189 206 189 261 c 1
 188 314 183 357 172 392 c 0
 161 427 149 444 136 444 c 0x6f80
354 477 m 1x1f80
 354 392 l 1
 430 347 l 1
 439 408 453 451 473 477 c 1
 354 477 l 1x1f80
168 477 m 1
 191 447 207 403 217 346 c 1
 294 392 l 1
 294 477 l 1
 168 477 l 1
295 599 m 1
 354 599 l 1
 354 521 l 1
 511 498 l 2
 534 495 553 471 570 428 c 0
 587 385 597 331 598 265 c 1
 598 196 590 137 574 89 c 0
 558 41 537 17 513 17 c 2
 512 17 l 1
 488 18 467 40 450 85 c 0
 433 130 425 185 424 250 c 0
 424 269 424 282 425 291 c 1
 354 336 l 1
 354 209 l 1
 424 0 l 1
 364 0 l 1
 324 115 l 1
 284 0 l 1
 224 0 l 1x9f80
 294 209 l 1
 294 336 l 1
 223 291 l 1
 223 289 224 286 224 281 c 0
 224 276 224 273 224 271 c 2
 224 266 l 2
 224 199 216 140 200 92 c 0
 184 44 163 20 140 20 c 0
 116 20 96 42 78 86 c 0
 60 130 51 185 50 250 c 1
 50 260 l 2
 50 325 58 380 74 428 c 0
 90 476 108 500 131 501 c 1x6f80
 131 502 l 1
 294 521 l 1
 295 521 l 1
 295 599 l 1
EndSplineSet
Validated: 1
EndChar

StartChar: unie00d
Encoding: 268 57357 12
Width: 650
VWidth: 0
Flags: W
HStem: 0 21G<225 265.701 310 342 384.299 425> 16 47<116.387 162.465 491.379 538.605> 440 57<114.5 161.302> 473 44<237.95 295>
VStem: 50 39<111.719 402.313> 190 34<117.553 289> 295 60<207 333 388 473 517 600> 310 32<0 91> 426 38<105.63 289> 564 36<108.47 392.134>
LayerCount: 2
Fore
SplineSet
512 437 m 0x4cc0
 499 437 487 419 478 382 c 0
 469 345 464 301 464 251 c 2
 464 244 l 1
 465 193 470 150 480 115 c 0
 490 80 501 63 515 63 c 0
 529 63 541 81 550 118 c 0
 559 155 564 201 564 255 c 1
 563 308 558 352 548 386 c 0
 538 420 526 437 512 437 c 0x4cc0
137 440 m 0x2cc0
 124 440 112 422 103 385 c 0
 94 348 89 305 89 255 c 2
 89 248 l 1
 90 197 95 153 104 118 c 0
 113 83 125 66 139 66 c 2
 140 66 l 1
 155 67 167 85 176 122 c 0
 185 159 190 204 190 259 c 1
 189 312 184 355 173 389 c 0
 162 423 150 440 137 440 c 0x2cc0
295 600 m 1x1ec0
 356 600 l 1
 356 517 l 1
 512 494 l 2
 535 491 555 467 572 424 c 0
 589 381 599 328 600 263 c 1
 600 194 592 136 576 88 c 0
 560 40 539 16 515 16 c 2
 514 16 l 1x5ec0
 490 17 469 40 452 84 c 0
 435 128 427 183 426 248 c 1
 426 276 l 1
 426 289 l 1
 355 333 l 1
 355 207 l 1
 425 0 l 1
 392 0 l 1
 325 174 l 1
 258 0 l 1
 225 0 l 1
 295 207 l 1
 295 333 l 1
 224 289 l 1
 224 287 224 284 224 279 c 0
 224 274 225 271 225 269 c 2
 225 264 l 2
 225 197 216 140 200 92 c 0
 184 44 164 20 141 20 c 0
 117 20 96 42 78 86 c 0
 60 130 51 183 50 248 c 1
 50 258 l 2
 50 322 58 378 74 425 c 0
 90 472 109 496 132 497 c 1xaec0
 295 517 l 1
 295 600 l 1x1ec0
355 473 m 1
 355 388 l 1
 432 345 l 1
 441 406 455 449 474 473 c 1
 355 473 l 1
169 473 m 1
 192 443 209 400 218 343 c 1
 295 388 l 1
 295 473 l 1
 169 473 l 1
310 91 m 1x8dc0
 342 91 l 1
 342 0 l 1
 310 0 l 1
 310 91 l 1x8dc0
EndSplineSet
Validated: 1
EndChar

StartChar: unie00e
Encoding: 269 57358 13
Width: 648
VWidth: 0
Flags: W
HStem: 1 21G<224 292.163 355.837 424> 17 41<114.41 164.009 487.318 539.312> 382 50<111.759 161.939> 411 37<290 294 354 358>
VStem: 50 38<96.3308 348.161> 189 35<100.208 251> 294 60<180 289 337 411> 424 39<93.8234 250.622> 563 35<95.8702 338.192>
LayerCount: 2
Fore
SplineSet
168 411 m 1x1f80
 191 384 208 347 217 298 c 1
 294 337 l 1
 294 411 l 1
 168 411 l 1x1f80
354 411 m 1
 354 337 l 1
 431 299 l 1
 440 352 454 390 473 411 c 1
 354 411 l 1
136 382 m 0x6f80
 123 382 111 366 102 334 c 0
 93 302 88 264 88 221 c 2
 88 215 l 1
 89 170 94 133 104 103 c 0
 114 73 125 58 139 58 c 0
 154 58 166 74 175 106 c 0
 184 138 189 178 189 225 c 1
 188 270 183 308 172 338 c 0
 161 368 149 382 136 382 c 0x6f80
511 379 m 0
 498 379 486 363 477 331 c 0
 468 299 463 261 463 218 c 2
 463 212 l 1
 464 167 468 130 478 100 c 0
 488 70 500 55 514 55 c 0
 528 55 540 71 549 103 c 0
 558 135 563 175 563 222 c 1
 562 268 557 306 547 335 c 0
 537 364 525 379 511 379 c 0
324 599 m 1
 405 442 l 1
 511 429 l 2
 534 426 553 406 570 369 c 0
 587 332 597 285 598 228 c 1
 598 168 590 117 574 76 c 0
 558 35 538 14 514 14 c 2
 513 14 l 1
 489 15 468 34 451 73 c 0
 434 112 425 159 424 215 c 0
 424 231 424 243 425 251 c 1
 354 289 l 1
 354 180 l 1
 424 1 l 1
 364 1 l 1
 324 99 l 1
 284 1 l 1
 224 1 l 1xaf80
 294 180 l 1
 294 289 l 1
 223 251 l 1
 223 249 224 245 224 240 c 0
 224 235 224 232 224 229 c 0
 224 171 216 122 200 80 c 0
 184 38 163 17 140 17 c 0
 116 17 96 36 78 74 c 0
 60 112 51 159 50 216 c 1
 50 225 l 2
 50 280 58 329 74 370 c 0
 90 411 108 431 131 432 c 1
 243 443 l 1
 324 599 l 1
324 511 m 1
 290 448 l 1
 358 448 l 1x1f80
 324 511 l 1
EndSplineSet
Validated: 1
EndChar

StartChar: unie00f
Encoding: 270 57359 14
Width: 600
VWidth: 0
Flags: W
HStem: 0 21G<209 271.742 328.258 391> 13 38<115.394 152.348 452.498 493.4> 360 47<106.328 153.325> 387 35<203.467 273 327 382.611> 493 36<137 228 373 463> 564 36<137 243 361 463>
VStem: 50 36<91.1003 332.534> 177 31<93.2261 236> 227 39<464.376 493> 273 54<169 272 318 387> 334 40<461.096 517.432> 391 35<88.8259 235.669> 518 32<91.1248 317.893>
LayerCount: 2
Fore
SplineSet
277 600 m 1x1ff8
 266 496 l 1
 266 491 l 2
 266 481 268 472 274 464 c 0
 280 456 289 453 300 453 c 0
 311 453 320 457 326 466 c 0
 332 475 334 485 334 496 c 0
 333 534 329 569 323 600 c 1
 463 600 l 1
 463 564 l 1
 361 564 l 1
 368 528 l 1
 463 529 l 1
 463 493 l 1
 373 493 l 1
 374 486 374 479 374 471 c 0
 374 462 372 456 368 451 c 0
 353 434 333 424 308 422 c 1
 327 422 l 1
 470 404 l 2
 491 401 508 382 524 347 c 0
 540 312 549 268 550 215 c 1
 550 158 543 111 528 72 c 0
 513 33 495 13 473 13 c 2
 472 13 l 1x5ff8
 450 14 432 32 416 69 c 0
 400 106 392 150 391 203 c 0
 391 218 391 229 392 236 c 1
 327 272 l 1
 327 169 l 1
 391 0 l 1
 336 0 l 1
 300 93 l 1
 264 0 l 1
 209 0 l 1
 273 169 l 1
 273 272 l 1
 208 236 l 1
 208 234 208 231 208 226 c 0
 208 221 209 218 209 215 c 0
 209 160 201 113 186 74 c 0
 171 35 154 16 133 16 c 0
 111 16 92 34 76 70 c 0
 60 106 51 150 50 203 c 1
 50 212 l 2
 50 264 58 309 72 348 c 0
 86 387 103 406 124 407 c 1xaff8
 273 422 l 1
 292 422 l 1
 278 423 265 427 254 434 c 0
 243 441 236 446 233 451 c 1
 229 456 227 463 227 471 c 0
 227 479 227 486 228 493 c 1
 137 493 l 1
 137 529 l 1
 232 528 l 1
 243 564 l 1
 137 564 l 1
 137 599 l 1
 277 600 l 1x1ff8
158 387 m 1
 179 362 194 327 203 280 c 1
 273 318 l 1
 273 387 l 1
 158 387 l 1
327 387 m 1
 327 318 l 1
 397 282 l 1
 404 330 417 365 436 387 c 1
 327 387 l 1
129 360 m 0x2ff8
 117 360 106 345 98 315 c 0
 90 285 86 250 86 209 c 2
 86 203 l 1
 87 161 91 126 100 97 c 0
 109 68 126 62 132 54 c 1
 145 54 156 70 164 100 c 0
 172 130 177 167 177 212 c 1
 176 255 172 290 162 318 c 0
 152 346 141 360 129 360 c 0x2ff8
470 357 m 0
 458 357 448 342 439 312 c 0
 430 282 426 247 426 206 c 2
 426 200 l 1
 427 158 431 123 440 94 c 0
 449 65 466 59 472 51 c 1x4ff8
 485 51 495 66 504 97 c 0
 513 128 518 165 518 209 c 1
 517 252 512 288 503 316 c 0
 494 344 483 357 470 357 c 0
EndSplineSet
Validated: 1
EndChar

StartChar: unie010
Encoding: 271 57360 15
Width: 748
VWidth: 0
Flags: W
HStem: 1 21G<86 162.5 281 313.5 410 486.5 605 637.5> 68 36<346 402> 136 28<352 396> 196 28<359 390> 256 28<365 384> 402 29<82 147 179 190 234 245 277 342 406 471 503 514 558 569 601 666>
LayerCount: 2
Fore
SplineSet
212 531 m 1
 179 431 l 1
 245 431 l 1
 212 531 l 1
82 402 m 1
 115 302 l 1
 147 402 l 1
 82 402 l 1
277 402 m 1
 310 301 l 1
 342 402 l 1
 277 402 l 1
536 531 m 1
 503 431 l 1
 569 431 l 1
 536 531 l 1
406 402 m 1
 439 302 l 1
 471 402 l 1
 406 402 l 1
601 402 m 1
 634 301 l 1
 666 402 l 1
 601 402 l 1
212 599 m 1
 267 431 l 1
 374 431 l 1
 375 431 l 1
 481 431 l 1
 536 599 l 1
 591 431 l 1
 698 431 l 1
 634 233 l 1
 578 402 l 1
 558 402 l 1
 579 209 613 75 662 1 c 1
 605 3 l 1
 573 74 550 163 536 272 c 1
 528 174 505 84 468 1 c 1
 410 1 l 1
 419 15 428 32 437 54 c 0
 446 76 452 96 458 114 c 0
 464 132 470 158 477 190 c 0
 484 222 488 245 490 260 c 0
 492 275 497 301 503 338 c 0
 509 375 513 396 514 402 c 1
 494 402 l 1
 439 234 l 1
 375 429 l 1
 427 68 l 1
 323 68 l 1
 354 291 370 411 373 429 c 1
 310 233 l 1
 254 402 l 1
 234 402 l 1
 255 209 289 75 338 1 c 1
 281 3 l 1
 249 74 226 163 212 272 c 1
 204 174 181 84 144 1 c 1
 86 1 l 1
 95 15 104 32 113 54 c 0
 122 76 128 96 134 114 c 0
 140 132 146 158 153 190 c 0
 160 222 164 245 166 260 c 0
 168 275 173 301 179 338 c 0
 185 375 189 396 190 402 c 1
 170 402 l 1
 115 234 l 1
 50 431 l 1
 157 431 l 1
 212 599 l 1
384 284 m 1
 381 316 l 1
 368 316 l 1
 365 284 l 1
 384 284 l 1
390 224 m 1
 387 256 l 1
 362 256 l 1
 359 224 l 1
 390 224 l 1
396 164 m 1
 393 196 l 1
 356 196 l 1
 352 164 l 1
 396 164 l 1
402 104 m 1
 399 136 l 1
 350 136 l 1
 346 104 l 1
 402 104 l 1
EndSplineSet
Validated: 1
EndChar

StartChar: unie011
Encoding: 272 57361 16
Width: 499
VWidth: 0
Flags: W
HStem: 0 21G<118 189 276.5 351> 225 36<82 96.3813>
VStem: 258 24<511.181 595> 284 67<0 44.4795>
LayerCount: 2
Fore
SplineSet
258 599 m 1
 282 595 l 1
 285 535 299 476 324 417 c 0
 331 402 338 387 345 374 c 0
 352 361 361 347 371 332 c 0
 381 317 389 307 394 300 c 0
 399 293 408 280 422 262 c 0
 436 244 444 234 447 230 c 1
 449 229 l 1
 447 229 l 2
 401 229 338 263 257 330 c 1
 251 288 l 1
 262 245 271 211 278 188 c 0
 285 165 295 135 308 98 c 0
 321 61 336 29 351 0 c 1
 284 0 l 1
 269 58 257 142 246 252 c 1
 241 215 238 185 234 162 c 0
 230 139 223 112 214 81 c 0
 205 50 195 23 183 0 c 1
 118 0 l 1
 160 66 201 163 242 292 c 1
 242 296 242 302 241 309 c 0
 240 316 240 322 239 326 c 1
 220 293 199 267 178 246 c 1
 162 232 136 225 99 225 c 2
 80 225 l 1
 82 256 l 1
 80 257 l 2
 80 258 80 258 81 259 c 2
 82 260 l 1
 82 261 l 1
 83 261 l 1
 115 299 145 348 173 408 c 1
 169 412 164 418 157 426 c 0
 122 466 86 519 50 586 c 1
 123 591 l 1
 150 522 172 475 191 449 c 1
 198 465 207 486 218 513 c 0
 229 540 237 559 243 572 c 0
 249 585 254 593 258 597 c 1
 258 599 l 1
258 591 m 1
 247 541 231 486 209 425 c 1
 220 411 236 394 256 374 c 1
 259 377 262 381 265 386 c 0
 268 391 271 395 274 398 c 1
 271 394 270 388 268 382 c 0
 266 376 264 371 262 368 c 1
 303 327 348 291 396 260 c 1
 390 266 380 275 367 286 c 0
 354 297 344 306 336 314 c 0
 328 322 319 334 309 350 c 0
 299 366 290 383 282 403 c 0
 278 412 275 421 272 432 c 0
 269 443 268 452 266 460 c 0
 264 468 263 480 262 494 c 0
 261 508 260 517 260 524 c 0
 260 531 258 542 258 559 c 0
 258 576 258 586 258 591 c 1
195 386 m 1
 177 341 159 303 142 272 c 1
 153 277 161 280 165 283 c 0
 181 294 204 316 234 349 c 1
 225 357 212 369 195 386 c 1
246 339 m 1
 245 338 244 336 243 334 c 0
 242 332 241 330 240 329 c 1
 241 326 242 323 244 318 c 0
 246 313 246 309 247 306 c 1
 248 309 249 313 251 319 c 0
 253 325 254 329 255 332 c 1
 254 333 253 334 251 336 c 0
 249 338 247 338 246 339 c 1
EndSplineSet
Validated: 1
EndChar

StartChar: unie012
Encoding: 273 57362 17
Width: 400
VWidth: 0
Flags: W
HStem: 0 21G<50 117.692 282.308 350>
VStem: 150 100<280 366> 170 60<450 600> 301 49<390 565>
LayerCount: 2
Fore
SplineSet
170 600 m 1xb0
 230 600 l 1
 230 450 l 1xb0
 301 390 l 1
 301 565 l 1
 350 565 l 1
 350 326 l 1
 350 280 l 1
 285 337 251 366 250 366 c 1
 250 280 l 1
 350 0 l 1
 290 0 l 1
 200 234 l 1
 110 0 l 1
 50 0 l 1
 150 280 l 1
 150 366 l 1xd0
 50 280 l 1
 50 350 l 1
 170 450 l 1
 170 467 l 1
 170 562 l 1
 170 600 l 1xb0
EndSplineSet
Validated: 1
EndChar

StartChar: unie013
Encoding: 274 57363 18
Width: 598
VWidth: 0
Flags: W
HStem: 1 21G<50 117.811 284.189 353>
VStem: 151 101<280 366> 171 61<450 599>
LayerCount: 2
Fore
SplineSet
171 599 m 1xa0
 232 599 l 1
 232 450 l 1xa0
 352 351 l 1
 396 415 l 1
 323 457 l 1
 373 544 l 1
 394 532 l 1
 357 469 l 1
 377 457 l 1
 414 520 l 1
 432 510 l 1
 395 447 l 1
 415 435 l 1
 452 499 l 1
 470 489 l 1
 433 425 l 1
 453 414 l 1
 490 477 l 1
 508 467 l 1
 471 404 l 1
 491 392 l 1
 528 455 l 1
 548 444 l 1
 498 357 l 1
 428 397 l 1
 353 282 l 1
 353 280 l 1
 352 281 l 1
 351 280 l 1
 351 281 l 1
 350 282 340 289 324 304 c 0
 308 319 292 333 276 346 c 0
 260 359 253 366 252 366 c 1
 252 280 l 1
 353 1 l 1
 292 1 l 1
 201 234 l 1
 110 1 l 1
 50 1 l 1
 151 280 l 1
 151 366 l 1xc0
 50 280 l 1
 50 350 l 1
 171 450 l 1
 171 467 l 1
 171 561 l 1
 171 599 l 1xa0
EndSplineSet
Validated: 1
EndChar

StartChar: unie014
Encoding: 275 57364 19
Width: 598
VWidth: 0
Flags: W
HStem: 0 21G<50 117.778 284.222 353> 32 99<181 220>
VStem: 151 101<280 366> 171 61<450 599> 181 39<32 131>
LayerCount: 2
Fore
SplineSet
171 599 m 1xd0
 232 599 l 1
 232 450 l 1xd0
 352 351 l 1
 396 415 l 1
 323 457 l 1
 373 543 l 1
 394 532 l 1
 357 468 l 1
 377 457 l 1
 414 520 l 1
 432 510 l 1
 395 447 l 1
 415 435 l 1
 452 499 l 1
 470 489 l 1
 433 425 l 1
 453 414 l 1
 490 477 l 1
 508 467 l 1
 471 404 l 1
 491 392 l 1
 528 455 l 1
 548 444 l 1
 498 357 l 1
 428 397 l 1
 353 282 l 1
 353 280 l 1
 352 281 l 1
 351 280 l 1
 351 281 l 1
 350 282 340 289 324 304 c 0
 308 319 292 333 276 346 c 0
 260 359 253 366 252 366 c 1
 252 280 l 1
 353 0 l 1
 292 0 l 1
 201 234 l 1
 110 0 l 1
 50 0 l 1
 151 280 l 1
 151 366 l 1xe0
 50 280 l 1
 50 350 l 1
 171 450 l 1
 171 467 l 1
 171 561 l 1
 171 599 l 1xd0
181 131 m 1xc8
 220 131 l 1
 220 32 l 1
 181 32 l 1
 181 131 l 1xc8
EndSplineSet
Validated: 1
EndChar

StartChar: unie015
Encoding: 276 57365 20
Width: 598
VWidth: 0
Flags: W
HStem: 0 21G<50 113.265 268.735 333>
VStem: 144 94<280 366> 163 57<450 600> 351 40<469.5 529.9>
LayerCount: 2
Fore
SplineSet
163 600 m 1xb0
 220 600 l 1
 220 450 l 1xb0
 332 351 l 1
 351 373 l 1
 351 553 l 1
 391 525 l 1
 377 414 l 1
 430 497 l 1
 469 469 l 1
 417 386 l 1
 509 441 l 1
 548 413 l 1
 390 345 l 1
 333 281 l 1
 333 280 l 1
 271 337 239 366 238 366 c 1
 238 280 l 1
 333 0 l 1
 276 0 l 1
 191 234 l 1
 106 0 l 1
 50 0 l 1
 144 280 l 1
 144 366 l 1xd0
 50 280 l 1
 50 350 l 1
 163 450 l 1
 163 467 l 1
 163 562 l 1
 163 600 l 1xb0
EndSplineSet
Validated: 1
EndChar

StartChar: unie016
Encoding: 277 57366 21
Width: 548
VWidth: 0
Flags: W
HStem: 0 21G<50 115.436 274.564 340>
VStem: 147 96<280 366> 166 58<450 600>
LayerCount: 2
Fore
SplineSet
166 600 m 1xa0
 224 600 l 1
 224 450 l 1xa0
 339 351 l 1
 344 356 l 1
 285 406 l 1
 301 424 l 1
 368 365 l 1
 387 387 l 1
 320 446 l 1
 335 465 l 1
 403 406 l 1
 421 428 l 1
 354 487 l 1
 370 506 l 1
 437 446 l 1
 455 468 l 1
 388 528 l 1
 407 550 l 1
 498 469 l 1
 340 280 l 1
 248 362 l 1
 249 362 l 1
 243 366 l 1
 243 280 l 1
 340 0 l 1
 282 0 l 1
 195 234 l 1
 108 0 l 1
 50 0 l 1
 147 280 l 1
 147 366 l 1xc0
 50 280 l 1
 50 350 l 1
 166 450 l 1
 166 467 l 1
 166 562 l 1
 166 600 l 1xa0
EndSplineSet
Validated: 1
EndChar

StartChar: unie017
Encoding: 278 57367 22
Width: 578
VWidth: 0
Flags: W
HStem: 0 21G<50 117.692 282.308 350>
VStem: 150 100<280 366> 170 60<450 600>
LayerCount: 2
Fore
SplineSet
170 600 m 1xa0
 230 600 l 1
 230 450 l 1xa0
 349 350 l 1
 349 351 l 1
 359 360 l 1
 363 356 l 1
 372 365 l 1
 334 404 l 1
 351 421 l 1
 390 383 l 1
 408 401 l 1
 369 439 l 1
 387 456 l 1
 425 418 l 1
 443 436 l 1
 405 474 l 1
 422 492 l 1
 460 454 l 1
 487 480 l 1
 515 452 l 1
 488 426 l 1
 528 386 l 1
 510 369 l 1
 471 408 l 1
 453 390 l 1
 492 351 l 1
 475 333 l 1
 436 373 l 1
 418 355 l 1
 457 315 l 1
 440 298 l 1
 400 338 l 1
 391 328 l 1
 395 325 l 1
 349 281 l 1
 349 280 l 1
 284 337 251 366 250 366 c 1
 250 280 l 1
 350 0 l 1
 290 0 l 1
 200 234 l 1
 110 0 l 1
 50 0 l 1
 150 280 l 1
 150 366 l 1xc0
 50 280 l 1
 50 350 l 1
 170 450 l 1
 170 467 l 1
 170 562 l 1
 170 600 l 1xa0
EndSplineSet
Validated: 1
EndChar

StartChar: unie018
Encoding: 279 57368 23
Width: 698
VWidth: 0
Flags: W
HStem: 0 21G<212 274.009 423.991 485>
VStem: 303 91<258.462 366> 321 55<450 599>
LayerCount: 2
Fore
SplineSet
321 599 m 1xa0
 376 599 l 1
 376 450 l 1xa0
 485 350 l 1
 494 359 l 1
 498 356 l 1
 506 365 l 1
 472 404 l 1
 487 421 l 1
 522 383 l 1
 539 401 l 1
 504 439 l 1
 520 456 l 1
 554 418 l 1
 571 436 l 1
 536 474 l 1
 552 492 l 1
 587 453 l 1
 611 480 l 1
 636 452 l 1
 612 425 l 1
 648 386 l 1
 633 369 l 1
 596 408 l 1
 580 390 l 1
 616 351 l 1
 600 333 l 1
 564 373 l 1
 548 355 l 1
 584 315 l 1
 568 298 l 1
 532 337 l 1
 523 328 l 1
 527 324 l 1
 485 280 l 1
 426 337 395 366 394 366 c 1
 394 280 l 1
 485 0 l 1
 431 0 l 1
 349 234 l 1
 267 0 l 1
 212 0 l 1
 303 280 l 1
 303 366 l 1xc0
 213 281 l 1
 212 280 l 1
 212 281 l 1
 171 324 l 1
 175 328 l 1
 166 337 l 1
 130 298 l 1
 114 315 l 1
 150 355 l 1
 134 373 l 1
 98 333 l 1
 82 351 l 1
 118 390 l 1
 102 408 l 1
 65 369 l 1
 50 386 l 1
 86 426 l 1
 62 452 l 1
 87 480 l 1
 111 453 l 1
 146 492 l 1
 162 474 l 1
 127 436 l 1
 144 418 l 1
 178 456 l 1
 194 439 l 1
 159 401 l 1
 176 383 l 1
 211 421 l 1
 226 404 l 1
 192 365 l 1
 200 356 l 1
 204 359 l 1
 213 350 l 1
 321 450 l 1
 321 599 l 1xa0
EndSplineSet
Validated: 1
EndChar

StartChar: unie019
Encoding: 280 57369 24
Width: 499
VWidth: 0
Flags: W
HStem: 0 21G<50 112.179 264.906 328 399 449>
VStem: 143 92<280 366> 161 56<450 600> 399 50<0 347 415 596>
LayerCount: 2
Fore
SplineSet
161 600 m 1xb0
 217 600 l 1
 217 450 l 1xb0
 327 351 l 1
 399 415 l 1
 399 596 l 1
 449 596 l 1
 449 0 l 1
 399 0 l 1
 399 347 l 1
 328 281 l 1
 328 280 l 1
 267 337 236 366 235 366 c 1
 235 280 l 1
 328 0 l 1
 272 0 l 1
 189 234 l 1
 105 0 l 1
 50 0 l 1
 143 280 l 1
 143 366 l 1xd0
 50 280 l 1
 50 350 l 1
 161 450 l 1
 161 467 l 1
 161 562 l 1
 161 600 l 1xb0
EndSplineSet
Validated: 1
EndChar

StartChar: unie01a
Encoding: 281 57370 25
Width: 600
VWidth: 0
Flags: W
HStem: 0 150<51 99 502 550> 451 149<50 98 501 549>
VStem: 51 48<0 150 451 600> 139 45<0 24.4478> 214 75<253.867 366> 229 45<450 600> 318 45<0 24.4478> 420 40<0 347 415 596> 502 48<0 150 451 600>
LayerCount: 2
Fore
SplineSet
51 150 m 1xf380
 99 150 l 1
 99 0 l 1
 51 0 l 1
 51 150 l 1xf380
50 600 m 1
 98 600 l 1
 98 451 l 1
 50 451 l 1
 50 600 l 1
502 150 m 1
 550 150 l 1
 550 0 l 1
 502 0 l 1
 502 150 l 1
501 600 m 1
 549 600 l 1
 549 451 l 1
 501 451 l 1
 501 600 l 1
229 600 m 1xf780
 274 600 l 1
 274 450 l 1xf780
 363 351 l 1
 420 415 l 1
 420 596 l 1
 460 596 l 1
 460 0 l 1
 420 0 l 1
 420 347 l 1
 363 281 l 1
 363 280 l 1
 289 366 l 1
 289 280 l 1
 363 0 l 1
 318 0 l 1
 251 234 l 1
 184 0 l 1
 139 0 l 1
 214 280 l 1
 214 366 l 1xfb80
 139 280 l 1
 139 350 l 1
 229 450 l 1
 229 467 l 1
 229 562 l 1
 229 600 l 1xf780
EndSplineSet
Validated: 1
EndChar

StartChar: unie01b
Encoding: 282 57371 26
Width: 548
VWidth: 0
Flags: W
HStem: 0 21G<50 114.265 269.735 334>
VStem: 144 95<280 366> 163 57<450 600> 462 36<268.126 430.124>
LayerCount: 2
Fore
SplineSet
163 600 m 1xb0
 220 600 l 1
 220 450 l 1xb0
 333 350 l 1
 420 469 l 1
 401 492 378 507 352 516 c 1
 351 577 l 1
 398 550 435 520 460 487 c 0
 485 454 497 408 498 351 c 1
 496 292 483 246 458 214 c 0
 433 182 399 157 356 140 c 1
 356 195 l 1
 390 212 416 230 434 252 c 0
 452 274 462 303 462 340 c 2
 462 343 l 1
 462 349 l 2
 462 376 456 404 443 433 c 1
 334 280 l 1
 272 337 240 366 239 366 c 1
 239 280 l 1
 334 0 l 1
 277 0 l 1
 192 234 l 1
 107 0 l 1
 50 0 l 1
 144 280 l 1
 144 366 l 1xd0
 50 280 l 1
 50 350 l 1
 163 450 l 1
 163 600 l 1xb0
EndSplineSet
Validated: 1
EndChar

StartChar: unie01c
Encoding: 283 57372 27
Width: 598
VWidth: 0
Flags: W
HStem: 0 21G<50 115.436 274.564 341>
VStem: 147 97<280 366> 166 58<450 600> 340 38<188 298.275 370 471> 449 37<241.961 383.093>
LayerCount: 2
Fore
SplineSet
439 384 m 1x98
 376 307 l 1
 378 188 l 1
 425 219 449 260 449 313 c 0
 449 340 446 363 439 384 c 1x98
374 471 m 1
 375 370 l 1
 419 424 l 1
 406 443 391 459 374 471 c 1
166 600 m 1xb8
 224 600 l 1
 224 450 l 1xb8
 338 352 l 1
 336 511 l 1
 335 551 l 1
 388 522 425 491 447 459 c 1
 520 549 l 1
 548 518 l 1
 468 420 l 1
 480 391 486 359 486 324 c 1
 484 265 470 220 444 188 c 0
 418 156 384 130 340 113 c 1
 340 129 l 1
 339 282 l 1
 336 285 320 300 290 326 c 0
 260 352 245 366 244 366 c 1
 244 280 l 1
 341 0 l 1
 282 0 l 1
 195 234 l 1
 108 0 l 1
 50 0 l 1
 147 280 l 1
 147 366 l 1xd8
 50 280 l 1
 50 350 l 1
 166 450 l 1
 166 467 l 1
 166 562 l 1
 166 600 l 1xb8
EndSplineSet
Validated: 1
EndChar

StartChar: unie01d
Encoding: 284 57373 28
Width: 798
VWidth: 0
Flags: W
HStem: 0 21G<253 318.521 479.479 545>
VStem: 112 38<255.688 397.093> 221 38<202 287 384 485> 350 98<280 366> 370 58<450 600> 539 38<202 301.195 384 485> 648 38<255.688 397.093>
LayerCount: 2
Fore
SplineSet
370 600 m 1xee
 428 600 l 1
 428 450 l 1xee
 537 357 l 1
 535 525 l 1
 534 565 l 1
 586 536 624 506 647 473 c 1
 720 563 l 1
 748 532 l 1
 668 434 l 1
 680 405 686 373 686 338 c 1
 684 279 670 233 644 201 c 0
 618 169 583 144 539 127 c 1
 539 143 l 1
 538 287 l 1
 479 340 449 366 448 366 c 1
 448 280 l 1
 545 0 l 1
 487 0 l 1
 399 234 l 1
 311 0 l 1
 253 0 l 1
 350 280 l 1
 350 366 l 1xf6
 260 287 l 1
 259 143 l 1
 259 127 l 1
 215 144 180 169 154 201 c 0
 128 233 114 279 112 338 c 1
 112 373 118 405 130 434 c 1
 50 532 l 1
 78 563 l 1
 151 473 l 1
 174 506 212 536 264 565 c 1
 263 525 l 1
 261 357 l 1
 370 450 l 1
 370 467 l 1
 370 562 l 1
 370 600 l 1xee
225 485 m 1
 206 472 191 457 179 438 c 1
 224 384 l 1
 225 485 l 1
573 485 m 1
 574 384 l 1
 619 438 l 1
 607 457 592 472 573 485 c 1
160 398 m 1
 153 377 150 354 150 327 c 0
 150 274 174 233 221 202 c 1
 223 321 l 1
 160 398 l 1
638 398 m 1
 575 321 l 1
 577 202 l 1
 624 233 648 274 648 327 c 0
 648 354 645 377 638 398 c 1
EndSplineSet
Validated: 1
EndChar

StartChar: unie01e
Encoding: 285 57374 29
Width: 598
VWidth: 0
Flags: W
HStem: 1 21G<50 117.725 282.275 350>
VStem: 150 100<280 366> 170 60<450 599>
LayerCount: 2
Fore
SplineSet
170 599 m 1xa0
 230 599 l 1
 230 450 l 1xa0
 348 351 l 1
 372 384 l 1
 330 442 l 1
 439 593 l 1
 548 442 l 1
 439 293 l 1
 398 350 l 1
 350 283 l 1
 350 280 l 1
 348 282 l 2
 347 283 339 290 322 305 c 0
 305 320 289 333 274 346 c 0
 259 359 251 366 250 366 c 1
 250 280 l 1
 350 1 l 1
 290 1 l 1
 200 234 l 1
 110 1 l 1
 50 1 l 1
 150 280 l 1
 150 366 l 1xc0
 50 280 l 1
 50 350 l 1
 170 450 l 1
 170 467 l 1
 170 561 l 1
 170 599 l 1xa0
439 532 m 1
 375 442 l 1
 439 354 l 1
 504 442 l 1
 439 532 l 1
EndSplineSet
Validated: 1
EndChar

StartChar: unie01f
Encoding: 286 57375 30
Width: 698
VWidth: 0
Flags: W
HStem: 1 21G<50 121.24 296.76 368> 129 50<454.999 558.313> 229 25<481.247 532.088> 404 25<479.966 532.364> 479 50<456.267 557.499>
VStem: 156 106<280 366> 177 64<450 599> 434 18<291.404 364.982> 559 18<292.375 365.75> 613 35<252.394 405.766>
LayerCount: 2
Fore
SplineSet
506 404 m 0xf9c0
 493 404 482 396 470 380 c 0
 458 364 452 346 452 325 c 0
 452 309 458 294 469 278 c 0
 480 262 500 258 506 254 c 1
 519 254 531 262 542 278 c 0
 553 294 559 310 559 327 c 0
 559 347 553 364 542 380 c 0
 531 396 519 404 506 404 c 0xf9c0
506 429 m 0
 523 429 539 418 554 398 c 0
 569 378 577 355 577 329 c 2
 577 327 l 2
 577 303 570 281 556 260 c 0
 542 239 525 229 506 229 c 0
 489 229 472 239 457 260 c 0
 442 281 434 302 434 323 c 0
 434 350 442 374 457 396 c 0
 472 418 489 429 506 429 c 0
506 479 m 0
 480 478 455 462 432 430 c 0
 409 398 398 361 398 320 c 0
 398 288 409 257 432 226 c 0
 455 195 479 179 505 179 c 2
 506 179 l 1
 507 179 l 2
 535 179 560 195 581 226 c 0
 602 257 613 291 613 327 c 2
 613 329 l 1
 613 331 l 2
 613 369 602 404 579 434 c 0
 556 464 532 479 506 479 c 0
177 599 m 1xfbc0
 241 599 l 1
 241 450 l 1xfbc0
 365 352 l 1
 372 399 389 441 418 476 c 0
 447 511 476 528 506 529 c 1
 541 529 573 508 603 468 c 0
 633 428 648 382 648 331 c 2
 648 329 l 1
 648 325 l 2
 648 276 634 231 606 190 c 0
 578 149 544 129 507 129 c 2
 506 129 l 1
 505 129 l 2
 475 129 447 145 420 176 c 0
 393 207 376 242 367 281 c 0
 366 282 358 290 340 304 c 0
 322 318 305 332 288 346 c 0
 271 360 263 366 262 366 c 1
 262 280 l 1
 368 1 l 1
 305 1 l 1
 209 234 l 1
 113 1 l 1
 50 1 l 1
 156 280 l 1
 156 366 l 1xfdc0
 50 280 l 1
 50 350 l 1
 177 450 l 1
 177 467 l 1
 177 561 l 1
 177 599 l 1xfbc0
EndSplineSet
Validated: 1
EndChar

StartChar: unie020
Encoding: 287 57376 31
Width: 536
VWidth: 0
Flags: W
HStem: 0 21G<50 117.692 282.308 349> 152 37<387.588 445.794>
VStem: 150 100<280 366> 170 60<450 600> 346 30<202.359 295.396 353 451> 456 30<200.944 451>
LayerCount: 2
Fore
SplineSet
170 600 m 1xdc
 230 600 l 1
 230 450 l 1xdc
 346 353 l 1
 346 451 l 1
 376 451 l 1
 376 252 l 1
 376 249 l 2
 376 234 380 221 387 208 c 0
 394 195 404 189 416 189 c 0
 441 190 455 211 456 252 c 1
 456 318 l 1
 456 451 l 1
 486 451 l 1
 486 318 l 1
 486 252 l 1
 486 250 l 2
 486 221 479 198 464 180 c 0
 449 162 433 152 416 152 c 0
 399 152 382 162 368 180 c 0
 354 198 347 221 347 249 c 2
 347 251 l 2
 347 254 346 260 346 267 c 0
 346 274 346 280 346 283 c 1
 283 338 251 366 250 366 c 1
 250 280 l 1
 349 0 l 1
 290 0 l 1
 200 234 l 1
 110 0 l 1
 50 0 l 1
 150 280 l 1
 150 366 l 1xec
 50 280 l 1
 50 350 l 1
 170 450 l 1
 170 467 l 1
 170 562 l 1
 170 600 l 1xdc
EndSplineSet
Validated: 1
EndChar

StartChar: unie021
Encoding: 288 57377 32
Width: 699
VWidth: 0
Flags: W
HStem: 0 21G<237 301.265 456.735 520> 152 37<556.617 611.315> 171 38<109.34 183.691> 433 38<110.787 181.156>
VStem: 50 24<262.754 373.806> 332 94<280 366> 351 56<450 600> 517 28<203.451 294.663 353 451> 621 28<201.39 451>
LayerCount: 2
Fore
SplineSet
351 600 m 1xbb80
 407 600 l 1
 407 450 l 1xbb80
 517 353 l 1
 517 451 l 1
 546 451 l 1
 545 252 l 1
 545 249 l 2
 545 234 549 221 556 208 c 0
 563 195 572 189 583 189 c 0
 607 190 620 211 621 252 c 1
 621 318 l 1
 621 451 l 1
 649 451 l 1
 649 318 l 1
 649 252 l 1
 649 250 l 2
 649 221 642 198 628 180 c 0
 614 162 600 152 583 152 c 0
 566 152 551 161 538 179 c 0
 525 197 518 220 518 248 c 2
 518 251 l 2
 518 254 518 260 518 267 c 0
 518 274 517 280 517 283 c 1
 515 284 506 292 491 306 c 0
 476 320 462 334 448 347 c 0
 434 360 427 366 426 366 c 1
 426 280 l 1
 520 0 l 1
 464 0 l 1
 379 234 l 1
 294 0 l 1
 237 0 l 1
 332 280 l 1
 332 366 l 1xdd80
 237 280 l 1
 237 284 l 1
 231 253 220 226 203 204 c 0
 186 182 168 171 147 171 c 2
 146 171 l 1
 145 171 l 2
 122 171 100 187 80 218 c 0
 60 249 50 280 50 312 c 0
 50 353 60 390 81 422 c 0
 102 454 123 470 146 471 c 0
 166 471 186 460 204 436 c 0
 222 412 233 384 238 351 c 1
 351 450 l 1
 351 467 l 1
 351 562 l 1
 351 600 l 1xbb80
146 433 m 0
 129 433 112 420 97 396 c 0
 82 372 74 345 74 314 c 0
 74 290 81 267 96 244 c 0
 111 221 128 209 145 209 c 2
 146 209 l 1
 147 209 l 2
 166 209 182 221 196 244 c 0
 210 267 217 292 217 319 c 2
 217 321 l 2
 217 350 209 375 194 398 c 0
 179 421 163 433 146 433 c 0
EndSplineSet
Validated: 1
EndChar

StartChar: unie022
Encoding: 289 57378 33
Width: 537
VWidth: 0
Flags: W
HStem: 0 21G<50 117.692 282.308 350> 203 37<388.514 446.794> 290 31<410.03 424.805>
VStem: 150 100<280 366> 170 60<450 600> 348 30<352 502> 390 20<321.116 349.792> 403 30<350.228 490> 425 20<321.107 349.785> 457 30<251.944 502>
LayerCount: 2
Fore
SplineSet
418 350 m 0xe6c0
 414 350 411 345 410 336 c 1
 410 326 413 321 418 321 c 0
 423 321 425 326 425 336 c 0
 425 345 423 350 418 350 c 0xe6c0
393 502 m 1
 442 502 l 1
 441 501 441 501 437 497 c 0
 434 494 433 492 432 490 c 1
 432 446 432 413 433 390 c 0xe540
 433 385 435 376 439 360 c 0
 443 344 445 333 445 327 c 0
 445 320 442 312 436 303 c 0
 430 294 424 290 417 290 c 2
 416 290 l 2
 409 290 403 294 398 303 c 0
 393 312 390 320 390 328 c 0xe6c0
 390 333 392 344 396 360 c 0
 400 376 403 386 403 390 c 2
 403 490 l 1xe540
 393 502 l 1
170 600 m 1xec40
 230 600 l 1
 230 450 l 1xec40
 348 352 l 1
 348 502 l 1
 378 502 l 1
 378 303 l 1
 378 300 l 2
 378 285 381 272 388 259 c 0
 395 246 405 240 417 240 c 0
 442 241 456 262 457 303 c 1
 457 369 l 1
 457 502 l 1
 487 502 l 1
 487 369 l 1
 487 303 l 1
 487 301 l 2
 487 272 480 248 465 230 c 0
 450 212 434 203 417 203 c 0
 402 203 387 210 374 224 c 0
 361 238 353 257 350 280 c 1
 349 281 332 296 300 324 c 0
 268 352 251 366 250 366 c 1
 250 280 l 1
 350 0 l 1
 290 0 l 1
 200 234 l 1
 110 0 l 1
 50 0 l 1
 150 280 l 1
 150 366 l 1xf440
 50 280 l 1
 50 350 l 1
 170 450 l 1
 170 467 l 1
 170 562 l 1
 170 600 l 1xec40
EndSplineSet
Validated: 1
EndChar

StartChar: unie023
Encoding: 290 57379 34
Width: 548
VWidth: 0
Flags: W
HStem: 0 21G<50 114.265 269.735 334>
VStem: 145 94<280 366> 164 56<450 600> 333 39<275 299.035 367 535> 396 16<309 346> 436 16<369 379> 462 36<432.903 499.556>
LayerCount: 2
Fore
SplineSet
164 600 m 1xbe
 220 600 l 1
 220 450 l 1xbe
 333 351 l 1
 332 535 l 1
 371 535 l 1
 371 367 l 1
 388 372 404 382 416 396 c 0
 428 410 436 424 441 435 c 0
 446 446 453 465 462 490 c 1
 462 535 l 1
 498 491 l 1
 493 419 477 357 449 305 c 1
 421 264 382 240 333 235 c 1
 333 281 l 1
 330 284 314 299 284 326 c 0
 254 353 240 366 239 366 c 1
 239 280 l 1
 334 0 l 1
 277 0 l 1
 192 234 l 1
 107 0 l 1
 50 0 l 1
 145 280 l 1
 145 366 l 1xde
 50 280 l 1
 50 350 l 1
 164 450 l 1
 164 467 l 1
 164 562 l 1
 164 600 l 1xbe
469 438 m 1
 466 429 460 418 452 403 c 1
 452 369 l 1
 460 390 466 413 469 438 c 1
436 379 m 1
 429 371 421 364 412 358 c 1
 412 309 l 1
 419 316 427 326 436 337 c 1
 436 379 l 1
396 346 m 1
 389 341 381 337 372 334 c 1
 372 275 l 1
 375 277 378 280 384 284 c 0
 390 288 394 292 396 294 c 1
 396 346 l 1
EndSplineSet
Validated: 1
EndChar

StartChar: unie024
Encoding: 291 57380 35
Width: 748
VWidth: 0
Flags: W
HStem: 0 21G<50 117.692 282.308 350>
VStem: 150 100<280 366> 170 60<450 600> 398 34<368 412>
LayerCount: 2
Fore
SplineSet
432 412 m 1x90
 432 299 l 1
 491 356 l 1
 432 412 l 1x90
170 600 m 1xb0
 230 600 l 1
 230 450 l 1xb0
 350 350 l 1
 398 368 l 1
 398 505 l 1
 523 386 l 1
 647 506 l 1
 698 422 l 1
 661 391 l 1
 637 432 l 1
 556 355 l 1
 637 278 l 1
 661 321 l 1
 698 289 l 1
 647 207 l 1
 523 325 l 1
 398 207 l 1
 398 290 l 1
 350 279 l 1
 350 280 l 1
 285 337 251 366 250 366 c 1
 250 280 l 1
 350 0 l 1
 290 0 l 1
 200 234 l 1
 110 0 l 1
 50 0 l 1
 150 280 l 1
 150 366 l 1xd0
 50 280 l 1
 50 350 l 1
 170 450 l 1
 170 467 l 1
 170 562 l 1
 170 600 l 1xb0
EndSplineSet
Validated: 1
EndChar

StartChar: unie025
Encoding: 292 57381 36
Width: 698
VWidth: 0
Flags: W
HStem: 0 21G<50 115.35 273.564 339> 369 34<461 539> 437 34<461 572> 516 31<447 596>
VStem: 146 97<280 366> 165 58<450 600> 423 39<401 437>
LayerCount: 2
Fore
SplineSet
414 251 m 1xf2
 407 233 401 221 397 216 c 1
 410 223 424 233 437 246 c 1
 414 251 l 1xf2
435 306 m 1
 434 303 433 299 431 294 c 0
 429 289 428 286 427 283 c 1
 466 274 l 1
 469 277 473 282 478 288 c 0
 483 294 486 299 489 302 c 1
 435 306 l 1
539 369 m 2
 456 367 l 2
 456 366 455 365 454 362 c 0
 451 353 449 345 447 340 c 1
 514 334 l 1
 516 337 520 341 525 348 c 0
 530 355 534 361 537 365 c 0
 538 366 538 366 538 367 c 0
 538 368 538 368 539 369 c 2
572 442 m 1
 461 437 l 1
 461 435 462 432 462 428 c 0
 462 424 462 421 462 419 c 0
 462 417 462 414 462 410 c 0
 462 406 461 403 461 401 c 1
 556 403 l 1
 566 426 571 439 572 442 c 1
447 516 m 1
 450 507 454 492 458 471 c 1
 584 477 l 1
 585 481 587 486 589 492 c 0
 591 498 593 502 594 506 c 0
 595 510 595 512 596 515 c 1
 447 516 l 1
165 600 m 1xf6
 223 600 l 1
 223 450 l 1xf6
 338 351 l 1
 423 391 l 1
 423 397 l 2
 423 449 413 499 393 547 c 1
 648 545 l 1
 643 515 630 478 609 434 c 0
 588 390 569 354 550 329 c 1
 542 317 534 306 524 295 c 0
 514 284 506 275 499 268 c 0
 492 261 482 252 470 242 c 0
 458 232 449 226 444 222 c 0
 439 218 429 211 414 202 c 0
 399 193 389 187 386 185 c 0
 383 183 372 177 353 166 c 0
 334 155 324 149 321 148 c 1
 325 155 332 166 341 181 c 0
 350 196 357 208 362 216 c 0
 367 224 373 234 380 247 c 0
 387 260 393 272 398 284 c 0
 403 296 407 308 411 320 c 1
 339 281 l 1
 339 280 l 1
 276 337 244 366 243 366 c 1
 243 280 l 1
 339 0 l 1
 281 0 l 1
 194 234 l 1
 108 0 l 1
 50 0 l 1
 146 280 l 1
 146 366 l 1xfa
 50 280 l 1
 50 350 l 1
 165 450 l 1
 165 467 l 1
 165 562 l 1
 165 600 l 1xf6
EndSplineSet
Validated: 1
EndChar

StartChar: unie026
Encoding: 293 57382 37
Width: 400
VWidth: 0
Flags: W
HStem: 0 21G<50 120 280 350> 234 79<51 86 121 151 250 280 315 350> 292 21<86 121 151 175 225 250 280 315>
VStem: 51 35<234 292> 121 30<234 292> 175 50<230 292 313 435 500 600> 250 30<234 292> 315 35<234 292>
LayerCount: 2
Fore
SplineSet
170 600 m 1xbf
 230 600 l 1
 230 500 l 1
 350 420 l 1
 349 350 l 1
 268 407 227 435 225 435 c 1
 225 313 l 1xbf
 350 313 l 1
 350 234 l 1
 315 234 l 1xdf
 315 292 l 1
 280 292 l 1xbf
 280 234 l 1
 250 234 l 1xdf
 250 292 l 1
 225 292 l 1
 225 230 l 1
 350 0 l 1
 290 0 l 1
 200 180 l 1
 110 0 l 1
 50 0 l 1
 175 230 l 1
 175 292 l 1
 151 292 l 1xbf
 151 234 l 1
 121 234 l 1xdf
 121 292 l 1
 86 292 l 1xbf
 86 234 l 1
 51 234 l 1
 51 313 l 1xdf
 175 313 l 1
 175 436 l 1
 50 350 l 1
 50 420 l 1
 170 500 l 1
 170 512 l 1
 170 567 l 1
 170 600 l 1xbf
EndSplineSet
Validated: 1
EndChar

StartChar: unie027
Encoding: 294 57383 38
Width: 448
VWidth: 0
Flags: W
HStem: 0 21G<50 117.607 281.308 349>
VStem: 149 100<280 366> 169 60<450 600>
LayerCount: 2
Fore
SplineSet
169 600 m 1xa0
 229 600 l 1
 229 450 l 1xa0
 349 350 l 1
 349 280 l 1
 284 337 250 366 249 366 c 1
 249 280 l 1
 251 274 l 1
 252 277 l 1
 398 178 l 1
 380 148 l 1
 268 229 l 1
 349 0 l 1
 289 0 l 1
 199 234 l 1
 110 0 l 1
 50 0 l 1
 149 280 l 1
 149 366 l 1xc0
 50 280 l 1
 50 350 l 1
 169 450 l 1
 169 467 l 1
 169 562 l 1
 169 600 l 1xa0
EndSplineSet
Validated: 1
EndChar

StartChar: unie028
Encoding: 295 57384 39
Width: 398
VWidth: 0
Flags: W
HStem: 0 21G<50 109.923 257.22 318>
VStem: 139 89<258.103 366> 157 53<450 600>
LayerCount: 2
Fore
SplineSet
225 115 m 1x80
 188 96 l 1
 203 60 l 1
 237 78 l 1
 225 115 l 1x80
306 156 m 1
 273 139 l 1
 285 102 l 1
 321 121 l 1
 306 156 l 1
157 600 m 1xa0
 210 600 l 1
 210 450 l 1xa0
 318 350 l 1
 317 280 l 1
 259 337 229 366 228 366 c 1
 228 280 l 1
 267 158 l 1
 318 185 l 1
 348 113 l 1
 291 84 l 1
 318 0 l 1
 264 0 l 1
 244 59 l 1
 191 32 l 1
 161 103 l 1
 218 133 l 1
 184 234 l 1
 103 0 l 1
 50 0 l 1
 139 280 l 1
 139 366 l 1xc0
 50 280 l 1
 50 350 l 1
 157 450 l 1
 157 467 l 1
 157 562 l 1
 157 600 l 1xa0
EndSplineSet
Validated: 1
EndChar

StartChar: unie029
Encoding: 296 57385 40
Width: 574
VWidth: 0
Flags: W
HStem: 1 20G<50 116.692 281.308 349 451.925 524>
VStem: 149 100<281 366> 169 60<450 600>
LayerCount: 2
Fore
SplineSet
169 600 m 1xa0
 229 600 l 1
 229 450 l 1xa0
 349 350 l 1
 349 281 l 1
 284 338 250 366 249 366 c 1
 249 281 l 1
 317 91 l 1
 394 200 l 1
 524 0 l 1
 464 0 l 1
 400 106 l 1
 347 6 l 1
 349 1 l 1
 289 1 l 1
 199 235 l 1
 109 1 l 1
 50 1 l 1
 149 281 l 1
 149 367 l 1xc0
 50 281 l 1
 50 350 l 1
 169 450 l 1
 169 467 l 1
 169 562 l 1
 169 600 l 1xa0
EndSplineSet
Validated: 1
EndChar

StartChar: unie02a
Encoding: 297 57386 41
Width: 550
VWidth: 0
Flags: W
HStem: 1 21G<138.5 169.5 382.5 413.5>
VStem: 50 27<94.7383 157.287> 231 25<94.5758 157.579> 246 58<511 600> 294 27<94.7383 157.339> 475 25<94.5758 157.554>
LayerCount: 2
Fore
SplineSet
246 600 m 1xd4
 304 600 l 1
 304 511 l 1xd4
 422 452 l 1
 422 411 l 1
 358 445 325 462 324 462 c 1
 324 411 l 1
 420 250 l 1
 445 243 464 228 478 204 c 0
 492 180 500 154 500 125 c 0
 499 91 490 62 473 38 c 0
 456 14 430 1 397 1 c 0
 368 1 344 14 324 38 c 0
 304 62 294 91 294 126 c 0
 294 154 300 178 313 200 c 0
 326 222 342 237 363 246 c 1
 275 384 l 1
 187 246 l 1
 186 246 l 1
 208 237 226 222 238 199 c 0
 250 176 256 152 256 125 c 0xec
 255 91 246 62 229 38 c 0
 212 14 186 1 153 1 c 0
 124 1 100 14 80 38 c 0
 60 62 50 91 50 126 c 0
 50 156 57 183 72 206 c 0
 87 229 107 243 130 250 c 1
 226 411 l 1
 226 462 l 1
 128 411 l 1
 128 452 l 1
 246 511 l 1
 246 522 l 1
 246 577 l 1
 246 600 l 1xd4
141 229 m 1
 132 227 122 222 112 213 c 0
 102 204 95 195 90 184 c 1
 114 175 l 1
 142 146 l 1
 137 188 l 1
 141 229 l 1
167 229 m 1
 171 188 l 1
 166 146 l 1
 194 175 l 1
 218 184 l 1
 213 195 206 204 196 213 c 0
 186 222 176 227 167 229 c 1
385 229 m 1
 376 227 366 222 356 213 c 0
 346 204 339 195 334 184 c 1
 358 175 l 1
 386 146 l 1
 381 188 l 1
 385 229 l 1
411 229 m 1
 415 188 l 1
 409 146 l 1
 438 175 l 1
 462 184 l 1
 457 195 450 204 440 213 c 0
 430 222 420 227 411 229 c 1
227 158 m 1
 213 141 l 1
 178 126 l 1
 213 111 l 1
 227 94 l 1
 230 106 231 117 231 126 c 0xe4
 231 135 230 146 227 158 c 1
471 158 m 1
 457 141 l 1
 422 126 l 1
 457 111 l 1
 471 94 l 1
 474 106 475 117 475 126 c 0
 475 135 474 146 471 158 c 1
81 158 m 1
 78 146 77 135 77 126 c 0
 77 117 78 106 81 94 c 1
 95 111 l 1
 129 126 l 1
 95 141 l 1
 81 158 l 1
324 158 m 1
 322 149 321 139 321 126 c 0xcc
 321 117 322 106 325 94 c 1
 339 111 l 1
 373 126 l 1
 339 141 l 1
 324 158 l 1
142 106 m 1
 114 76 l 1
 90 68 l 1
 95 57 102 48 112 39 c 0
 122 30 132 25 141 23 c 1
 137 64 l 1
 142 106 l 1
166 106 m 1
 171 64 l 1
 167 23 l 1
 176 25 186 30 196 39 c 0
 206 48 213 57 218 68 c 1
 194 76 l 1
 166 106 l 1
386 106 m 1
 358 76 l 1
 334 68 l 1
 339 57 346 48 356 39 c 0
 366 30 376 25 385 23 c 1
 381 64 l 1
 386 106 l 1
409 106 m 1
 415 64 l 1
 411 23 l 1
 420 25 430 30 440 39 c 0
 450 48 457 57 462 68 c 1
 438 76 l 1
 409 106 l 1
EndSplineSet
Validated: 1
EndChar

StartChar: unie02b
Encoding: 298 57387 42
Width: 548
VWidth: 0
Flags: W
HStem: 0 54<50 143 205 343 405 498>
VStem: 224 100<281 366> 244 60<450 600>
LayerCount: 2
Fore
SplineSet
205 54 m 1x80
 343 54 l 1
 274 235 l 1
 205 54 l 1x80
50 0 m 1
 50 54 l 1
 143 54 l 1
 224 281 l 1
 224 367 l 1xc0
 124 281 l 1
 124 350 l 1
 244 450 l 1
 244 467 l 1
 244 562 l 1
 244 600 l 1
 304 600 l 1
 304 450 l 1xa0
 424 350 l 1
 424 281 l 1
 359 338 325 366 324 366 c 1
 324 281 l 1xc0
 405 54 l 1
 498 54 l 1
 498 0 l 1
 50 0 l 1
EndSplineSet
Validated: 1
EndChar

StartChar: unie02c
Encoding: 299 57388 43
Width: 649
VWidth: 0
Flags: W
HStem: 0 21G<50 121.5 269.5 342> 152 50<416.978 522.426>
VStem: 55 61<144.422 206.305> 104 45<42.3791 136.417> 167 58<282.146 365.765 450 600> 241 44<29.2605 131.349> 284 51<151.594 209.076> 339 55<227.798 303.27 353 551> 542 56<221.103 551>
LayerCount: 2
Fore
SplineSet
167 600 m 1xe980
 225 600 l 1
 225 450 l 1
 339 353 l 1
 339 551 l 1
 395 551 l 1
 394 285 l 1
 394 281 l 2
 394 262 400 244 414 227 c 0
 428 210 446 202 468 202 c 0
 516 203 541 230 542 285 c 1
 542 341 l 1
 542 495 l 1
 542 551 l 1
 598 551 l 1
 598 532 598 504 598 464 c 0
 598 424 599 394 599 374 c 0
 599 334 599 304 598 285 c 1
 598 283 l 2
 598 245 585 214 558 189 c 0
 531 164 501 152 468 152 c 0
 435 152 406 164 380 189 c 0
 354 214 340 245 340 282 c 1
 339 283 331 291 314 306 c 0
 297 321 282 334 268 347 c 0
 254 360 246 366 245 366 c 0
 237 366 231 362 226 353 c 0
 221 344 219 337 219 330 c 0
 219 311 228 295 247 282 c 1
 306 245 335 209 335 174 c 0xeb80
 335 169 335 166 334 163 c 1
 301 130 285 101 285 76 c 0xcd80
 285 67 287 58 292 50 c 0
 297 42 301 35 306 30 c 0
 311 25 318 20 326 13 c 0
 334 6 340 2 342 0 c 1
 284 0 l 1xcb80
 255 28 241 54 241 79 c 0xcd80
 241 96 248 115 262 137 c 0
 276 159 284 174 284 181 c 0
 284 201 255 219 196 234 c 1
 143 215 116 196 116 175 c 1xeb80
 116 168 121 154 132 134 c 0
 143 114 149 96 149 81 c 0
 149 55 135 28 108 0 c 1
 50 0 l 1
 53 10 64 24 80 40 c 0
 96 56 104 71 104 84 c 0xd980
 104 105 90 131 61 163 c 1
 57 170 55 177 55 185 c 0
 55 189 56 193 57 198 c 0
 58 203 61 207 64 211 c 0
 67 215 69 218 72 222 c 0
 75 226 79 230 84 234 c 0
 89 238 93 242 96 245 c 0
 99 248 104 252 110 256 c 0
 116 260 120 262 123 264 c 0
 126 266 130 269 136 273 c 0
 142 277 146 279 147 280 c 0
 157 289 162 300 162 312 c 0
 162 317 162 323 160 329 c 0
 158 335 156 341 153 348 c 0
 150 355 148 361 147 366 c 1
 50 280 l 1
 50 350 l 1
 167 450 l 1
 167 467 l 1
 167 562 l 1
 167 600 l 1xe980
EndSplineSet
Validated: 1
EndChar

StartChar: unie02d
Encoding: 300 57389 44
Width: 600
VWidth: 0
Flags: W
HStem: 2 71<115.434 143.999 160.237 209.687> 11 62<144.142 209.687> 101 43<148.536 205.838> 116 57<369.707 470.235>
VStem: 78 107<371 437.489> 206 36<152.143 173.862> 494 56<197.082 366.078>
LayerCount: 2
Fore
SplineSet
230 82 m 1x0e
 233 83 l 1
 257 89 l 1
 232 105 l 1
 230 82 l 1x0e
147 138 m 1
 180 142 198 144 199 144 c 1x2e
 204 147 206 154 206 165 c 0
 206 171 205 174 203 174 c 0
 202 174 201 174 200 173 c 2x1e
 147 138 l 1
130 240 m 1
 127 170 l 1
 204 227 l 1
 130 240 l 1
479 600 m 1
 484 579 491 549 500 509 c 0
 509 469 518 432 525 398 c 0
 532 364 539 334 545 305 c 0
 548 290 550 277 550 266 c 0
 550 231 540 199 520 172 c 0
 500 145 476 127 449 120 c 0
 440 117 430 116 419 116 c 0
 390 116 362 126 337 146 c 0
 312 166 295 195 288 230 c 0
 287 235 284 244 282 254 c 0
 280 264 278 272 277 277 c 1
 233 228 l 1
 234 226 238 223 244 220 c 0
 250 217 253 214 253 209 c 0
 253 208 252 205 251 201 c 1
 248 197 245 192 244 187 c 0
 243 182 242 175 242 168 c 0
 242 161 241 155 240 152 c 1
 247 143 258 135 272 127 c 0
 286 119 298 112 308 106 c 0
 318 100 322 94 322 89 c 2
 322 86 l 1
 322 81 l 2
 322 76 320 72 317 68 c 0
 314 64 311 60 308 58 c 0
 305 56 299 54 292 50 c 0
 285 46 281 43 278 42 c 0
 274 40 269 39 264 38 c 0
 259 37 254 36 247 36 c 0
 240 36 235 36 232 35 c 1
 258 11 l 1x5e
 222 3 l 2
 221 3 220 2 219 2 c 0
 218 2 216 2 215 2 c 0x8e
 209 2 199 3 186 6 c 0
 173 9 165 11 160 11 c 0x4e
 152 11 147 8 144 2 c 0
 144 1 143 1 142 1 c 0
 139 1 134 4 128 10 c 0
 122 16 116 23 111 29 c 2
 104 38 l 2
 101 43 99 47 99 50 c 0
 99 55 102 61 107 69 c 1
 202 73 l 1
 209 79 212 87 209 98 c 1
 201 99 178 100 141 101 c 0xae
 104 102 76 106 57 113 c 1
 52 119 50 127 50 137 c 0
 50 151 55 166 65 181 c 1
 58 239 55 273 55 284 c 0
 55 318 64 344 82 361 c 1
 79 384 78 398 78 405 c 0
 78 422 81 434 88 442 c 0
 95 450 109 454 128 454 c 0
 133 454 141 453 153 452 c 1
 172 429 182 402 185 371 c 1
 170 373 l 1
 174 360 173 350 167 344 c 1
 159 344 l 1
 191 340 l 1
 249 400 l 1
 244 421 235 463 220 525 c 1
 276 541 l 1
 342 246 l 1
 345 227 354 211 368 196 c 0
 382 181 399 173 418 173 c 0x1e
 425 173 431 174 437 176 c 0
 475 189 494 214 494 253 c 0
 494 266 493 278 490 289 c 0
 483 321 471 370 456 436 c 0
 441 502 430 552 423 584 c 1
 479 600 l 1
260 352 m 1
 211 284 l 1
 266 323 l 1
 265 326 264 331 263 338 c 0
 262 345 261 349 260 352 c 1
EndSplineSet
Validated: 1
EndChar

StartChar: unie02e
Encoding: 301 57390 45
Width: 700
VWidth: 0
Flags: W
HStem: 2 71<282.219 305 318.19 360.805> 11 62<305.095 360.805> 101 43<309.302 357.69> 116 57<495.253 582.013>
VStem: 238 52<178.016 211> 249 90<372 441.622> 603 47<193.66 378.723>
LayerCount: 2
Fore
SplineSet
589 600 m 1x16
 591 589 599 547 614 473 c 0
 629 399 639 343 646 305 c 0
 649 292 650 279 650 266 c 0
 650 231 641 200 624 172 c 0
 607 144 587 127 564 120 c 0
 557 117 548 116 538 116 c 0
 513 116 490 126 468 146 c 0
 446 166 433 195 427 230 c 0
 426 235 425 244 423 254 c 0
 421 264 419 272 418 277 c 1
 380 228 l 1
 381 226 385 223 390 220 c 0
 395 217 397 214 397 209 c 0
 397 206 397 203 396 201 c 0
 393 196 389 179 386 152 c 1
 392 143 402 135 414 127 c 0
 426 119 436 112 444 106 c 0
 452 100 456 94 456 89 c 2
 456 86 l 1
 456 81 l 2
 456 76 455 72 452 68 c 0
 449 64 447 60 444 58 c 0
 441 56 437 54 431 50 c 0
 425 46 421 43 419 42 c 0
 416 40 412 39 407 38 c 0
 402 37 398 36 392 36 c 0
 386 36 382 36 379 35 c 1
 401 11 l 1x56
 371 3 l 2
 370 3 369 2 368 2 c 0
 367 2 366 2 365 2 c 0x86
 360 2 351 3 340 6 c 0
 329 9 322 11 318 11 c 0x46
 311 11 307 8 305 2 c 0
 305 1 305 1 304 1 c 0
 302 1 298 4 293 10 c 0
 288 16 283 23 278 29 c 2
 271 38 l 2
 268 42 267 46 267 49 c 0
 267 54 269 60 274 69 c 1
 354 73 l 1
 361 80 363 88 360 98 c 1
 353 99 333 100 302 101 c 0xa6
 271 102 247 106 231 113 c 1
 227 120 225 128 225 137 c 0
 225 142 225 146 226 149 c 1
 206 192 l 1
 187 179 l 1
 209 132 l 1
 191 120 l 1
 169 167 l 1
 150 154 l 1
 173 107 l 1
 154 95 l 1
 132 142 l 1
 113 129 l 1
 136 83 l 1
 118 70 l 1
 95 117 l 1
 67 99 l 1
 50 133 l 1
 78 152 l 1
 55 200 l 1
 73 212 l 1
 96 164 l 1
 115 176 l 1
 91 225 l 1
 110 237 l 1
 133 189 l 1
 152 201 l 1
 128 250 l 1
 146 262 l 1
 170 213 l 1
 189 226 l 1
 165 275 l 1
 183 287 l 1
 207 238 l 1
 226 251 l 1
 202 299 l 1
 220 311 l 1
 229 294 l 1
 230 323 238 346 252 361 c 1
 250 378 249 392 249 405 c 0
 249 422 252 434 258 442 c 0
 264 450 275 454 291 454 c 0
 294 454 301 453 312 452 c 1
 327 430 336 403 339 372 c 1
 327 373 l 1
 330 360 329 350 324 344 c 1
 318 344 l 1
 345 340 l 1
 394 400 l 1
 391 414 387 434 382 462 c 0
 377 490 373 511 370 525 c 1
 417 541 l 1
 473 246 l 1
 476 227 482 211 494 196 c 0
 506 181 520 173 537 173 c 0
 543 173 548 174 553 176 c 0
 586 189 603 214 603 253 c 0
 603 260 602 272 599 289 c 0
 593 322 583 370 570 436 c 0
 557 502 548 551 542 584 c 1
 589 600 l 1x16
403 352 m 1
 361 284 l 1
 408 323 l 1
 407 326 407 331 406 338 c 0
 405 345 404 349 403 352 c 1
293 240 m 1
 290 170 l 1x0a
 356 227 l 1
 293 240 l 1
235 211 m 1
 224 204 l 1
 236 178 l 1
 237 179 l 2
 238 180 238 180 238 181 c 2
 235 211 l 1
355 174 m 0
 354 174 354 174 353 173 c 2x12
 308 138 l 1
 336 142 350 144 351 144 c 0x22
 356 147 358 155 358 167 c 0
 358 172 357 174 355 174 c 0
380 105 m 1
 378 82 l 1
 380 83 l 1
 401 89 l 1
 380 105 l 1
EndSplineSet
Validated: 1
EndChar

StartChar: unie02f
Encoding: 302 57391 46
Width: 348
VWidth: 0
Flags: W
HStem: 1 21G<55 98> 308 45<195.236 252.282> 536 63<136.36 190.209>
VStem: 55 43<13 225> 92 44<422.529 535.807> 258 40<271.761 463.371>
LayerCount: 2
Fore
SplineSet
149 536 m 1xec
 140 535 136 525 136 505 c 0
 136 479 142 453 155 428 c 0
 166 405 180 388 196 374 c 0
 212 360 226 353 239 353 c 0
 241 353 244 354 248 355 c 1
 255 362 258 374 258 390 c 0
 258 411 253 434 242 457 c 1
 231 477 216 495 198 512 c 0
 180 529 165 537 153 537 c 0
 152 537 151 537 150 536 c 2
 149 536 l 1xec
118 414 m 1
 101 443 92 479 92 521 c 0xec
 92 568 102 594 123 599 c 1
 127 599 l 2
 164 599 202 577 240 532 c 0
 278 487 298 440 298 393 c 0
 297 289 290 208 276 150 c 0
 262 92 238 50 203 21 c 1
 98 225 l 1
 98 1 l 1
 55 13 l 1xf4
 50 309 l 1
 108 307 l 1
 208 82 l 1
 238 127 256 204 262 313 c 1
 255 310 248 308 241 308 c 0
 220 308 198 318 175 338 c 0
 152 358 133 383 118 414 c 1
EndSplineSet
Validated: 1
EndChar

StartChar: unie030
Encoding: 303 57392 47
Width: 449
VWidth: 0
Flags: W
HStem: 1 21G<56 94> 308 45<181.37 232.676> 536 64<128.422 142 144 177.375>
VStem: 56 38<13 225> 89 39<423.029 535.807> 238 36<355.378 464.408>
LayerCount: 2
Fore
SplineSet
144 537 m 1xec
 142 536 l 1
 140 536 l 2
 132 535 128 524 128 504 c 0
 128 478 134 453 145 428 c 0
 155 405 168 388 182 374 c 0
 196 360 209 353 220 353 c 0
 222 353 225 354 229 355 c 1
 235 363 238 375 238 390 c 0
 238 412 233 434 224 457 c 1
 215 477 202 495 185 512 c 0
 168 529 155 537 144 537 c 1xec
120 600 m 0
 154 600 188 578 222 533 c 0
 256 488 274 442 274 395 c 2
 274 348 l 1
 399 312 l 1
 389 265 l 1
 272 297 l 1
 272 292 272 285 272 276 c 0
 272 267 271 261 270 256 c 1
 380 225 l 1
 369 178 l 1
 265 207 l 1
 264 202 264 195 262 186 c 0
 260 177 259 171 258 167 c 1
 360 138 l 1
 349 91 l 1
 247 119 l 1
 246 117 241 105 232 82 c 1
 340 51 l 1
 329 4 l 1
 206 39 l 1
 199 30 194 24 189 21 c 1
 94 225 l 1
 94 1 l 1
 56 13 l 1xf4
 50 309 l 1
 103 307 l 1
 193 82 l 1
 219 126 235 203 241 313 c 1
 234 310 228 308 222 308 c 0
 203 308 183 318 162 338 c 0
 141 358 124 384 112 415 c 1
 97 444 89 480 89 521 c 0
 89 568 98 594 117 599 c 0
 118 599 119 599 120 600 c 0
EndSplineSet
Validated: 1
EndChar

StartChar: unie031
Encoding: 304 57393 48
Width: 399
VWidth: 0
Flags: W
HStem: 1 21G<211.429 270.866> 71 38<56.5263 72.6> 260 43<167.5 228.939> 546 53<207.612 304.756>
VStem: 90 53<310.203 371> 312 37<469 537.451>
LayerCount: 2
Fore
SplineSet
58 109 m 1
 184 92 l 1
 92 337 l 1
 91 349 90 358 90 363 c 0
 90 420 109 474 146 524 c 0
 183 574 221 599 260 599 c 0
 304 599 333 564 348 494 c 0
 349 489 349 482 349 473 c 0
 349 422 336 373 312 328 c 0
 288 283 259 260 225 260 c 0
 222 260 217 261 209 262 c 1
 276 1 l 1
 50 71 l 1
 58 109 l 1
143 371 m 1
 143 326 155 303 180 303 c 0
 183 303 185 303 187 304 c 0
 205 306 221 311 234 320 c 1
 143 371 l 1
155 442 m 1
 151 429 148 416 146 403 c 1
 258 340 l 1
 266 348 274 358 282 371 c 1
 155 442 l 1
186 506 m 1
 177 494 170 482 165 471 c 1
 296 397 l 1
 303 412 307 425 310 436 c 1
 186 506 l 1
312 469 m 1
 312 470 312 472 312 476 c 0
 312 480 313 483 313 485 c 0
 313 526 298 547 268 547 c 0
 263 547 260 547 257 546 c 1
 253 546 l 2
 236 546 220 540 207 529 c 1
 312 469 l 1
EndSplineSet
Validated: 1
EndChar

StartChar: unie032
Encoding: 305 57394 49
Width: 699
VWidth: 0
Flags: W
HStem: 0 21G<420 452> 201 87<123 184.801> 360 51<555.56 645.172>
VStem: 109 28<21.0022 146.437> 186 25<10 115.98> 191 34<8.13758 193.462> 337 24<12 67.2605> 351 35<50.5594 199.647> 412 36<94.7336 200> 423 25<0 198.405>
LayerCount: 2
Fore
SplineSet
108 21 m 2xf4
 109 21 109 24 109 31 c 0
 109 66 104 106 94 153 c 0
 84 200 70 225 50 228 c 1
 60 312 86 389 129 458 c 1
 157 431 l 1
 154 424 145 410 129 388 c 0
 113 366 105 345 105 326 c 0
 105 315 107 303 111 288 c 1
 365 291 l 1
 362 334 360 358 360 361 c 0
 360 395 367 426 380 455 c 1
 339 480 309 528 291 599 c 1
 295 596 306 590 324 580 c 0
 342 570 354 562 362 553 c 0
 370 544 375 533 378 519 c 1
 407 516 l 1
 412 534 419 547 427 556 c 0
 435 565 446 573 460 579 c 0
 474 585 483 590 487 593 c 1
 488 590 489 581 491 566 c 0
 493 551 494 540 494 533 c 0
 494 518 490 504 483 492 c 1
 490 475 506 459 530 446 c 0
 554 433 580 421 604 411 c 0
 628 401 643 393 648 386 c 1
 649 384 649 382 649 379 c 0
 649 366 639 360 620 360 c 0
 610 360 592 362 566 367 c 0
 540 372 523 374 513 374 c 2
 507 374 l 1
 502 379 498 381 495 381 c 0
 490 381 484 376 480 368 c 0
 476 360 473 348 470 332 c 0
 467 316 464 301 462 286 c 0
 460 271 458 252 455 231 c 0
 452 210 450 193 448 181 c 1xf480
 448 168 449 139 450 94 c 0
 451 49 452 17 452 0 c 1
 420 0 l 1
 420 7 420 18 421 30 c 0
 422 42 422 54 422 64 c 0
 422 74 423 84 423 93 c 0xf040
 423 130 419 166 412 200 c 1
 379 202 l 1
 384 183 386 164 386 147 c 0xf180
 386 128 382 103 374 72 c 0
 366 41 362 21 361 12 c 1
 337 5 l 1xf2
 337 18 339 39 344 66 c 0
 349 93 351 113 351 127 c 0
 351 154 345 179 333 201 c 1
 219 193 l 1
 223 180 225 162 225 141 c 0xf5
 225 125 222 102 218 72 c 0
 214 42 212 19 211 5 c 1
 186 10 l 1xf8
 186 23 186 40 188 64 c 0
 190 88 191 106 191 119 c 0
 191 150 187 177 179 200 c 1
 123 201 l 1
 135 174 141 145 141 112 c 0
 141 103 140 88 139 68 c 0
 138 48 137 34 137 25 c 0
 137 15 137 8 138 3 c 1
 108 21 l 2xf4
EndSplineSet
Validated: 1
EndChar

StartChar: unie033
Encoding: 306 57395 50
Width: 498
VWidth: 0
Flags: W
HStem: 1 21G<110.387 141.016> 102 23<85 119.705> 264 29<241 301> 322 29<221 321> 378 30<217 310> 440 29<231 284>
VStem: 195 21
LayerCount: 2
Fore
SplineSet
244 207 m 1
 154 94 l 1
 164 87 l 1
 235 162 l 2
 239 167 246 176 257 190 c 1
 256 192 253 194 250 198 c 0
 247 202 245 205 244 207 c 1
241 264 m 1
 252 242 262 225 273 212 c 1
 283 226 292 243 301 264 c 1
 241 264 l 1
321 322 m 1
 221 321 l 1
 223 313 226 304 229 293 c 1
 313 293 l 1
 314 294 314 295 314 296 c 0
 314 297 314 297 315 298 c 0
 318 305 320 313 321 322 c 1
216 378 m 1
 216 365 216 355 217 348 c 1
 321 351 l 1
 320 363 318 372 317 378 c 1
 216 378 l 1
223 440 m 1
 222 436 222 436 220 430 c 0
 219 426 219 422 218 418 c 0
 217 414 217 411 217 408 c 1
 310 408 l 1
 309 412 307 418 304 426 c 0
 301 434 299 439 298 440 c 1
 223 440 l 1
154 448 m 1
 148 428 l 1
 198 410 l 1
 198 413 199 416 200 421 c 0
 201 426 202 429 202 431 c 1
 154 448 l 1
167 491 m 1
 161 471 l 1
 207 455 l 1
 208 458 209 462 210 466 c 0
 211 470 212 473 213 475 c 1
 167 491 l 1
252 523 m 1
 245 509 238 491 231 469 c 1
 284 469 l 1
 275 487 264 505 252 523 c 1
181 534 m 1
 174 514 l 1
 221 497 l 1
 224 505 226 512 229 517 c 1
 181 534 l 1
355 555 m 1
 296 487 l 1
 314 459 327 433 335 410 c 1
 363 431 377 456 377 483 c 0
 377 485 377 486 377 488 c 0
 377 505 370 528 355 555 c 1
85 102 m 1
 122 40 l 1
 148 73 l 1
 122 92 101 102 85 102 c 1
357 599 m 1
 387 558 402 520 402 485 c 0
 402 445 382 409 343 376 c 1
 345 366 346 356 346 347 c 0
 346 343 345 336 344 327 c 0
 340 301 333 276 324 253 c 1
 331 248 340 239 354 226 c 0
 368 213 382 200 397 190 c 0
 412 180 429 172 448 166 c 1
 443 135 l 1
 392 155 349 187 315 231 c 1
 310 221 303 207 292 190 c 1
 321 159 358 130 403 104 c 1
 395 72 l 1
 345 103 305 134 276 167 c 1
 268 156 255 142 238 123 c 2
 122 1 l 1
 50 125 l 1
 89 125 120 118 141 103 c 1
 143 101 l 1
 228 233 l 1
 207 274 196 317 195 361 c 0
 195 363 195 363 195 365 c 0
 195 367 196 370 196 375 c 0
 196 380 196 383 196 386 c 1
 127 410 l 1
 106 417 l 1
 153 569 l 1
 188 557 l 1
 188 556 l 1
 241 538 l 1
 240 539 l 1
 258 539 l 1
 259 538 l 2
 268 529 275 519 282 509 c 1
 357 599 l 1
EndSplineSet
Validated: 1
EndChar

StartChar: unie034
Encoding: 307 57396 51
Width: 549
VWidth: 0
Flags: W
HStem: 1 21G<50 78 180.032 209.033> 99 26<160 193.208> 264 29<304 360> 322 29<285 379> 378 29<281 368> 440 29<294 344>
VStem: 50 28<1 290 321 600> 260 20<348.469 367> 432 24<441.269 534.411>
LayerCount: 2
Fore
SplineSet
411 555 m 1
 356 487 l 1
 371 462 384 436 392 410 c 1
 419 432 432 456 432 483 c 0
 432 504 424 528 411 555 c 1
247 533 m 1
 241 514 l 1
 285 497 l 1
 287 503 290 510 293 516 c 1
 247 533 l 1
314 523 m 1
 306 505 299 487 294 469 c 1
 344 469 l 1
 335 489 325 507 314 523 c 1
234 491 m 1
 228 471 l 1
 272 455 l 1
 274 461 275 468 277 475 c 1
 234 491 l 1
221 448 m 1
 216 428 l 1
 263 410 l 1
 264 417 265 424 267 431 c 1
 221 448 l 1
286 440 m 1
 284 429 282 418 281 407 c 1
 368 407 l 1
 365 418 361 429 357 440 c 1
 286 440 l 1
280 378 m 1
 279 368 280 358 281 348 c 1
 380 351 l 1
 379 360 378 369 376 378 c 1
 280 378 l 1
379 322 m 1
 285 321 l 1
 287 311 289 302 292 293 c 1
 372 293 l 1
 373 295 373 296 374 298 c 0
 377 305 378 313 379 322 c 1
304 264 m 1
 312 245 322 228 334 212 c 1
 345 229 352 243 360 264 c 1
 304 264 l 1
306 207 m 1
 222 94 l 1
 230 87 l 1
 298 162 l 1
 306 173 313 182 318 190 c 1
 314 195 310 201 306 207 c 1
160 99 m 1
 197 37 l 1
 223 70 l 1
 203 85 182 98 160 99 c 1
50 600 m 1
 78 600 l 1
 78 321 l 1
 245 392 l 1
 196 410 l 1
 176 417 l 1
 220 569 l 1
 303 538 l 1
 321 538 l 1
 328 528 335 519 342 508 c 1
 413 599 l 1
 443 556 456 518 456 485 c 0
 456 442 434 406 400 376 c 1
 402 367 402 358 402 348 c 0
 402 341 402 334 401 326 c 0
 397 299 390 275 382 253 c 1
 413 229 439 186 499 166 c 1
 494 135 l 1
 439 159 399 195 373 231 c 1
 367 216 359 203 351 190 c 1
 381 156 417 128 457 104 c 1
 449 72 l 1
 411 96 371 127 336 167 c 1
 325 151 313 136 301 123 c 2
 191 1 l 1
 123 125 l 1
 157 125 180 123 209 103 c 2
 211 101 l 1
 292 233 l 1
 272 272 260 316 260 367 c 1
 78 290 l 1
 78 1 l 1
 50 1 l 1
 50 600 l 1
EndSplineSet
Validated: 1
EndChar

StartChar: unie035
Encoding: 308 57397 52
Width: 549
VWidth: 0
Flags: W
HStem: 1 21G<375.523 409.593> 6 118<121.851 180.244> 481 118<121.141 179.391>
VStem: 50 41<167.629 436.383> 211 39<260.426 328>
LayerCount: 2
Fore
SplineSet
150 599 m 0x78
 169 599 186 584 202 556 c 0
 218 528 230 490 239 443 c 1
 397 593 l 1
 499 428 l 1
 424 365 l 1
 377 447 l 1
 250 328 l 1
 250 325 250 322 250 316 c 0
 250 310 251 306 251 303 c 0
 251 284 251 269 250 260 c 1
 377 141 l 1
 424 226 l 1
 499 163 l 1
 397 1 l 1xb8
 237 150 l 1
 228 107 216 72 201 46 c 0
 186 20 169 6 151 6 c 0
 124 6 100 34 80 92 c 0
 60 150 50 220 50 302 c 0
 50 384 60 454 80 512 c 0
 100 570 123 598 150 599 c 0x78
151 124 m 0x78
 168 124 182 141 194 176 c 0
 206 211 211 254 211 303 c 0
 211 352 205 394 193 429 c 0
 181 464 167 481 150 481 c 0
 133 481 119 463 108 428 c 0
 97 393 91 351 91 302 c 0
 91 253 96 211 108 176 c 0
 120 141 134 124 151 124 c 0x78
EndSplineSet
Validated: 1
EndChar

StartChar: unie036
Encoding: 309 57398 53
Width: 448
VWidth: 0
Flags: W
HStem: 1 21G<161 197.28>
VStem: 85 37<215.59 380.993> 161 36<1 149.135 446.14 599> 379 11<83.355 111.863 481.501 512.206>
LayerCount: 2
Fore
SplineSet
188 179 m 1
 205 180 220 193 232 216 c 0
 244 239 250 267 250 300 c 2
 250 303 l 1
 249 336 242 362 230 384 c 0
 218 406 203 417 186 417 c 2
 183 417 l 1
 166 416 152 404 140 381 c 0
 128 358 122 331 122 300 c 2
 122 293 l 1
 123 261 130 234 142 212 c 0
 154 190 169 179 186 179 c 2
 188 179 l 1
197 599 m 1
 200 452 l 1
 204 451 209 449 215 446 c 1
 277 592 l 1
 311 580 l 1
 245 425 l 1
 243 425 l 1
 263 404 276 375 282 340 c 1
 292 345 302 350 310 356 c 0
 318 362 325 370 332 380 c 0
 339 390 345 398 349 403 c 0
 353 408 357 419 362 434 c 0
 367 449 370 459 372 463 c 0
 374 467 377 478 382 497 c 0
 387 516 389 526 390 528 c 1
 395 495 397 468 397 447 c 0
 397 372 374 322 328 299 c 1
 375 276 398 229 398 157 c 0
 398 132 395 103 390 69 c 1
 388 76 384 90 379 110 c 0
 374 130 370 146 366 157 c 0
 362 168 356 182 349 197 c 0
 342 212 333 225 322 235 c 0
 311 245 299 253 284 258 c 1
 284 263 l 1
 278 226 265 196 246 173 c 1
 311 20 l 1
 277 8 l 1
 217 150 l 1
 209 147 203 145 199 144 c 1
 197 1 l 1
 161 1 l 1
 163 147 l 1
 156 150 149 153 143 158 c 1
 83 22 l 1
 50 35 l 1
 117 186 l 1
 97 216 86 251 85 291 c 1
 85 298 l 2
 85 317 88 338 95 360 c 0
 102 382 109 399 118 412 c 1
 50 565 l 1
 83 578 l 1
 144 439 l 1
 148 442 154 446 163 449 c 1
 161 599 l 1
 197 599 l 1
EndSplineSet
Validated: 1
EndChar

StartChar: unie037
Encoding: 310 57399 54
Width: 448
VWidth: 0
Flags: W
HStem: 1 21G<161 197.28> 248 100<168 207>
VStem: 85 37<215.59 380.993> 161 36<1 149.135 446.14 599> 168 39<248 348> 379 11<83.355 111.863 481.501 512.206>
LayerCount: 2
Fore
SplineSet
197 599 m 1xf4
 200 452 l 1
 204 451 209 449 215 446 c 1
 277 592 l 1
 311 580 l 1
 245 425 l 1
 243 425 l 1
 263 404 276 375 282 340 c 1
 292 345 302 350 310 356 c 0
 318 362 325 370 332 380 c 0
 339 390 345 398 349 403 c 0
 353 408 357 419 362 434 c 0
 367 449 370 459 372 463 c 0
 374 467 377 478 382 497 c 0
 387 516 389 526 390 528 c 1
 395 495 397 468 397 447 c 0
 397 372 374 322 328 299 c 1
 375 276 398 229 398 157 c 0
 398 132 395 103 390 69 c 1
 388 76 384 90 379 110 c 0
 374 130 370 146 366 157 c 0
 362 168 356 182 349 197 c 0
 342 212 333 225 322 235 c 0
 311 245 299 253 284 258 c 1
 284 263 l 1
 278 226 265 196 246 173 c 1
 311 20 l 1
 277 8 l 1
 217 150 l 1
 209 147 203 145 199 144 c 1
 197 1 l 1
 161 1 l 1
 163 147 l 1
 156 150 149 153 143 158 c 1
 83 22 l 1
 50 35 l 1
 117 186 l 1
 97 216 86 251 85 291 c 1
 85 298 l 2
 85 317 88 338 95 360 c 0
 102 382 109 399 118 412 c 1
 50 565 l 1
 83 578 l 1
 144 439 l 1
 148 442 154 446 163 449 c 1
 161 599 l 1
 197 599 l 1xf4
188 179 m 1
 205 180 220 193 232 216 c 0
 244 239 250 267 250 300 c 2
 250 303 l 1
 249 336 242 362 230 384 c 0
 218 406 203 417 186 417 c 2
 183 417 l 1
 166 416 152 404 140 381 c 0
 128 358 122 331 122 300 c 2
 122 293 l 1
 123 261 130 234 142 212 c 0
 154 190 169 179 186 179 c 2
 188 179 l 1
168 348 m 1xec
 207 348 l 1
 207 248 l 1
 168 248 l 1
 168 348 l 1xec
EndSplineSet
Validated: 1
EndChar

StartChar: unie038
Encoding: 311 57400 55
Width: 398
VWidth: 0
Flags: W
HStem: 1 21G<125.407 155> 97 34<143.285 170.673> 285 29<144.496 190.984> 468 27<189 211.58>
VStem: 66 30<153.453 260.76> 90 28<341.875 441.854 554.423 573.931> 216 24<157.775 252.419> 253 26<337.703 435.44>
LayerCount: 2
Fore
SplineSet
156 131 m 1xfb
 174 132 189 139 200 152 c 0
 211 165 216 183 216 204 c 2
 216 209 l 1
 215 231 208 250 197 264 c 0
 186 278 171 285 154 285 c 2
 151 285 l 1
 134 284 121 276 111 261 c 0
 101 246 96 228 96 207 c 2
 96 201 l 1
 97 180 103 163 113 150 c 0
 123 137 137 131 154 131 c 2
 156 131 l 1xfb
187 314 m 1
 192 314 l 2
 210 314 225 320 236 332 c 0
 247 344 253 361 253 381 c 0
 253 387 253 391 252 394 c 0
 251 415 245 432 232 446 c 0
 219 460 203 468 185 468 c 2
 182 468 l 1
 163 467 148 460 136 447 c 0
 124 434 118 417 118 394 c 2
 118 387 l 1xf7
 121 341 144 317 187 314 c 1
174 599 m 1
 201 595 l 1
 189 495 l 1
 196 495 203 493 212 490 c 1
 257 597 l 1
 282 585 l 1
 237 476 l 2
 238 476 238 476 238 475 c 2
 240 474 l 1
 332 548 l 1
 348 525 l 1
 259 452 l 1
 271 434 277 414 278 392 c 0
 278 391 278 389 278 386 c 0
 278 383 279 381 279 380 c 0
 279 357 272 337 260 320 c 0
 248 303 232 291 212 284 c 1
 231 262 240 233 240 197 c 0
 240 177 234 158 223 139 c 1
 302 75 l 1
 285 52 l 1
 205 117 l 1
 196 111 l 1
 236 15 l 1
 211 3 l 1
 171 99 l 1
 164 98 159 97 156 97 c 0
 150 97 146 97 143 98 c 1
 155 5 l 1
 128 1 l 1
 114 109 l 1
 109 113 105 116 102 119 c 1
 76 20 l 1
 50 28 l 1
 81 146 l 1
 70 166 65 185 65 203 c 0
 65 204 66 206 66 208 c 0
 66 210 66 213 66 214 c 0xfb
 71 258 90 288 123 305 c 1
 101 327 90 354 90 387 c 0
 90 418 100 444 120 466 c 1
 92 572 l 1
 119 580 l 1
 144 485 l 1
 147 487 153 489 161 492 c 1
 174 599 l 1
EndSplineSet
Validated: 1
EndChar

StartChar: unie039
Encoding: 312 57401 56
Width: 398
VWidth: 0
Flags: W
HStem: 0 21G<194 216>
VStem: 246 30<143.094 158.645 441.289 456.905>
LayerCount: 2
Fore
SplineSet
240 184 m 1
 190 135 l 1
 164 155 l 1
 164 130 171 109 186 90 c 1
 245 143 l 1
 246 145 246 148 246 152 c 0
 246 161 244 172 240 184 c 1
199 233 m 0
 189 233 179 220 169 193 c 1
 186 180 l 1
 225 217 l 1
 211 228 202 233 199 233 c 0
187 420 m 1
 170 407 l 1
 180 380 190 366 200 366 c 0
 205 366 213 372 226 383 c 1
 187 420 l 1
187 510 m 1
 172 491 165 470 165 445 c 1
 191 465 l 1
 241 416 l 1
 244 428 246 438 246 446 c 0
 246 451 246 455 245 457 c 1
 187 510 l 1
204 600 m 1
 230 587 250 559 264 517 c 1
 331 588 l 1
 348 552 l 1
 273 482 l 1
 276 465 277 451 277 441 c 1
 330 498 l 1
 348 462 l 1
 271 391 l 1
 260 346 238 315 203 300 c 1
 238 284 260 254 271 209 c 1
 347 138 l 1
 330 102 l 1
 276 159 l 1
 276 149 275 135 272 118 c 1
 348 48 l 1
 330 12 l 1
 263 83 l 1
 249 41 229 13 203 0 c 1
 185 1 166 28 145 80 c 1
 50 155 l 1
 58 189 l 1
 129 134 l 1
 126 154 124 166 124 169 c 0
 124 176 124 181 125 185 c 1
 50 245 l 1
 58 279 l 1
 133 221 l 1
 144 253 161 279 183 300 c 1
 161 322 145 348 134 379 c 1
 59 321 l 1
 50 355 l 1
 126 415 l 1
 125 419 125 424 125 431 c 0
 125 434 127 446 130 466 c 1
 59 411 l 1
 51 445 l 1
 146 520 l 1
 167 572 186 599 204 600 c 1
EndSplineSet
Validated: 1
EndChar

StartChar: unie03a
Encoding: 313 57402 57
Width: 498
VWidth: 0
Flags: W
HStem: 1 74<226.881 275.306> 519 80<224.074 269.102>
VStem: 152 43<261 336> 303 44<265 335>
LayerCount: 2
Fore
SplineSet
250 75 m 1
 251 75 l 2
 266 75 278 94 288 133 c 0
 298 172 303 221 303 281 c 2
 303 289 l 1
 302 353 296 407 285 452 c 0
 274 497 261 519 246 519 c 0
 231 519 220 497 210 453 c 0
 200 409 195 356 195 295 c 2
 195 287 l 1
 196 227 201 176 212 136 c 0
 223 96 235 76 250 75 c 1
243 599 m 2
 244 599 l 2
 264 599 282 584 298 553 c 0
 314 522 325 481 334 430 c 1
 404 598 l 1
 447 578 l 1
 345 335 l 1
 346 315 347 300 347 290 c 2
 347 265 l 1
 448 22 l 1
 406 2 l 1
 339 163 l 1
 332 113 320 73 305 44 c 0
 290 15 272 1 253 1 c 2
 252 1 l 1
 233 2 215 17 199 46 c 0
 183 75 171 115 162 164 c 1
 94 1 l 1
 51 20 l 1
 152 261 l 1
 152 264 152 269 152 274 c 0
 152 279 151 284 151 287 c 0
 151 309 151 325 152 336 c 1
 50 580 l 1
 92 599 l 1
 161 435 l 1
 169 484 180 524 194 554 c 0
 208 584 225 599 243 599 c 2
EndSplineSet
Validated: 1
EndChar

StartChar: unie03b
Encoding: 314 57403 58
Width: 448
VWidth: 0
Flags: W
HStem: 1 21G<103.921 145 303 344.079>
VStem: 116 51<307.368 450.292> 281 51<307.161 448.777>
LayerCount: 2
Fore
SplineSet
223 496 m 1
 186 463 167 417 167 359 c 0
 167 345 168 329 170 312 c 1
 185 262 203 222 224 191 c 1
 245 222 263 262 278 312 c 1
 280 327 281 342 281 355 c 0
 281 413 262 460 223 496 c 1
330 311 m 1
 388 268 l 1
 341 199 l 1
 313 245 l 1
 300 212 282 180 261 149 c 1
 274 137 289 126 304 116 c 0
 319 106 337 98 356 88 c 0
 375 78 389 70 398 64 c 1
 319 1 l 1
 287 30 255 63 224 100 c 1
 193 63 161 30 129 1 c 1
 50 64 l 1
 59 70 73 78 92 88 c 0
 111 98 129 106 144 116 c 0
 159 126 174 137 187 149 c 1
 166 180 149 213 135 247 c 1
 106 199 l 1
 59 268 l 1
 117 312 l 1
 116 319 116 330 116 344 c 0
 116 457 151 541 221 597 c 1
 252 574 278 540 300 495 c 0
 322 450 332 400 332 347 c 0
 332 339 331 327 330 311 c 1
EndSplineSet
Validated: 1
EndChar

StartChar: unie03c
Encoding: 315 57404 59
Width: 632
VWidth: 0
Flags: W
HStem: 0 150<50 98 534 582> 450 150<50 98 534 582>
VStem: 50 48<0 150 450 600> 206 52<304.433 450.364> 374 52<302.805 448.207> 534 48<0 150 450 600>
LayerCount: 2
Fore
SplineSet
425 311 m 1
 483 267 l 1
 435 199 l 1
 407 245 l 1
 395 215 377 183 353 148 c 1
 366 136 381 126 397 116 c 0
 413 106 431 96 450 86 c 0
 469 76 484 69 494 63 c 1
 413 0 l 1
 378 29 346 62 316 99 c 1
 286 62 254 29 219 0 c 1
 138 63 l 1
 148 69 163 76 182 86 c 0
 201 96 219 106 235 116 c 0
 251 126 266 136 279 148 c 1
 256 181 238 213 225 246 c 1
 195 199 l 1
 147 267 l 1
 207 312 l 1
 206 319 206 330 206 343 c 0
 206 456 242 540 313 596 c 1
 344 575 371 540 393 491 c 0
 415 442 426 390 426 335 c 0
 426 324 426 316 425 311 c 1
315 496 m 1
 277 463 258 417 258 359 c 0
 258 345 259 329 261 312 c 1
 275 264 293 224 316 191 c 1
 339 224 357 264 371 312 c 1
 373 328 374 343 374 356 c 0
 374 414 354 461 315 496 c 1
50 150 m 1
 98 150 l 1
 98 0 l 1
 50 0 l 1
 50 150 l 1
50 600 m 1
 98 600 l 1
 98 450 l 1
 50 450 l 1
 50 600 l 1
534 150 m 1
 582 150 l 1
 582 0 l 1
 534 0 l 1
 534 150 l 1
534 600 m 1
 582 600 l 1
 582 450 l 1
 534 450 l 1
 534 600 l 1
EndSplineSet
Validated: 1
EndChar

StartChar: unie03d
Encoding: 316 57405 60
Width: 700
VWidth: 0
Flags: W
HStem: 0 150<51 87 613 650> 450 39<432 457 481 511 536 560> 573 26<481 510.443>
VStem: 51 36<0 150 450 600> 160 40<312.331 457.959> 288 40<311.377 455.612> 401 31<0 449> 457 24<490 573> 511 25<490 573> 560 31<0 450> 613 37<0 150 450 600>
LayerCount: 2
Fore
SplineSet
243 496 m 1
 214 461 200 415 200 357 c 0
 200 348 201 333 202 312 c 1
 213 263 227 222 244 191 c 1
 261 222 275 263 286 312 c 1
 287 332 288 346 288 354 c 0
 288 414 273 461 243 496 c 1
327 311 m 1
 371 267 l 1
 335 199 l 1
 313 245 l 1
 304 214 290 182 272 149 c 1
 282 137 293 126 305 116 c 0
 317 106 331 96 346 86 c 0
 361 76 372 69 379 63 c 1
 318 1 l 1
 289 34 265 67 244 100 c 1
 223 67 199 34 170 1 c 1
 109 63 l 1
 116 69 127 76 142 86 c 0
 157 96 171 106 183 116 c 0
 195 126 206 137 216 149 c 1
 198 184 184 217 175 246 c 1
 152 199 l 1
 115 267 l 1
 161 312 l 1
 160 319 160 330 160 343 c 0
 160 403 168 455 184 500 c 0
 200 545 220 578 243 598 c 1
 268 579 288 548 304 503 c 0
 320 458 328 406 328 345 c 0
 328 330 328 319 327 311 c 1
457 489 m 1
 457 599 l 1
 477 599 l 2
 516 599 536 598 536 596 c 2
 536 489 l 1
 591 489 l 1
 591 482 l 1
 591 0 l 1
 560 0 l 1
 560 450 l 1
 432 449 l 1
 432 0 l 1
 401 0 l 1
 401 489 l 1
 457 489 l 1
481 573 m 1
 481 490 l 1
 511 490 l 1
 511 573 l 1
 481 573 l 1
613 150 m 1
 650 150 l 1
 650 0 l 1
 613 0 l 1
 613 150 l 1
613 600 m 1
 649 600 l 1
 649 450 l 1
 613 450 l 1
 613 600 l 1
51 150 m 1
 87 150 l 1
 87 0 l 1
 51 0 l 1
 51 150 l 1
50 600 m 1
 87 600 l 1
 87 450 l 1
 50 450 l 1
 50 600 l 1
EndSplineSet
Validated: 1
EndChar

StartChar: unie03e
Encoding: 317 57406 61
Width: 749
VWidth: 0
Flags: W
HStem: 1 21G<108.5 191 234.049 273.5 410.5 449.951 492 573.5>
VStem: 50 53<173.125 419.425> 243 48<303.25 446.116> 393 44<305 443.978> 580 52<173.125 326.971> 676 23<417.542 472> 685 9<540.75 592.577>
LayerCount: 2
Fore
SplineSet
191 599 m 1xf8
 188 590 180 573 170 546 c 0
 160 519 152 498 146 482 c 0
 140 466 134 446 126 423 c 0
 118 400 114 378 110 358 c 0
 106 338 104 318 103 300 c 1
 104 272 108 244 114 216 c 0
 120 188 127 164 134 146 c 0
 141 128 150 104 162 74 c 0
 174 44 184 19 191 1 c 1
 138 1 l 1
 79 112 50 207 50 286 c 2
 50 300 l 1
 50 306 l 2
 50 337 55 371 65 409 c 0
 75 447 84 475 92 494 c 0
 100 513 113 544 132 585 c 0
 135 591 137 596 138 599 c 1
 191 599 l 1xf8
694 599 m 1xfa
 697 564 699 535 699 510 c 0
 699 409 677 341 632 306 c 1
 632 300 l 1
 632 286 l 2
 632 207 603 112 544 1 c 1
 492 1 l 1
 499 19 508 44 520 74 c 0
 532 104 543 128 550 146 c 0
 557 164 564 188 570 216 c 0
 576 244 579 272 580 300 c 1
 579 322 576 348 568 379 c 0
 560 410 553 433 548 448 c 0
 543 463 533 492 517 534 c 0
 501 576 493 597 492 599 c 1
 544 599 l 1
 573 534 594 486 605 453 c 1
 619 455 630 460 640 466 c 0
 650 472 658 481 663 492 c 0
 668 503 673 514 676 524 c 0xfc
 679 534 682 546 685 562 c 0
 688 578 691 591 694 599 c 1xfa
676 472 m 1
 672 458 663 442 650 424 c 0
 637 406 624 398 611 398 c 1
 625 351 l 1
 636 360 646 376 658 400 c 0
 670 424 676 445 676 465 c 2
 676 472 l 1
342 487 m 1
 342 486 l 1
 308 451 291 406 291 350 c 0
 291 337 292 322 294 306 c 1
 306 259 322 219 342 187 c 1
 362 219 378 259 390 306 c 1
 392 322 393 337 393 350 c 0
 393 406 376 452 342 487 c 1
342 587 m 1
 405 524 437 436 437 323 c 2
 437 305 l 1
 488 262 l 1
 446 196 l 1
 421 240 l 1
 410 210 395 179 375 146 c 1
 386 134 399 123 413 114 c 0
 427 105 442 96 459 86 c 0
 476 76 488 68 497 62 c 1
 427 1 l 1
 394 34 365 67 342 98 c 1
 319 67 290 34 257 1 c 1
 187 62 l 1
 188 63 205 72 238 92 c 0
 271 112 295 130 310 146 c 1
 288 181 272 213 262 242 c 1
 237 196 l 1
 195 262 l 1
 247 306 l 1
 244 321 243 338 243 356 c 0
 243 396 251 435 267 473 c 0
 283 511 299 539 314 558 c 0
 329 577 339 587 342 587 c 1
EndSplineSet
Validated: 1
EndChar

StartChar: unie03f
Encoding: 318 57407 62
Width: 698
VWidth: 0
Flags: W
HStem: 1 21G<92.5 152 254.5 260 354.492 381.5 486.5 513.825 546 605.5> 160 20<150.389 180.082> 224 25<224.14 264.633> 236 22<147.987 192>
VStem: 50 38<162.715 427.219> 189 54<113.308 151.461> 239 31<0.185547 153.572 388.109 464.711> 247 20<43.6145 154> 280 35<306.33 361.897> 363 34<312.377 462.182> 472 34<311 458.658> 610 38<162.715 427.219>
LayerCount: 2
Fore
SplineSet
434 599 m 1xc8f0
 482 536 506 450 506 343 c 0
 506 340 506 335 506 328 c 0
 506 321 505 315 505 311 c 1
 543 268 l 1
 512 199 l 1
 493 245 l 1
 486 216 474 184 459 149 c 1
 468 137 478 126 488 116 c 0
 498 106 509 98 522 88 c 0
 535 78 544 70 550 64 c 1
 497 1 l 1
 476 28 455 61 434 100 c 1
 413 61 392 28 371 1 c 1
 319 64 l 1
 325 70 334 78 347 88 c 0
 360 98 372 106 382 116 c 0
 392 126 401 137 410 149 c 1
 395 183 383 216 375 247 c 1
 356 199 l 1
 325 268 l 1
 364 312 l 1
 363 320 363 331 363 346 c 0
 363 391 369 434 381 476 c 0
 393 518 404 549 415 569 c 0
 426 589 432 599 434 599 c 1xc8f0
434 501 m 1
 409 466 397 419 397 360 c 0
 397 352 398 337 399 316 c 1
 409 265 421 225 434 196 c 1
 449 227 461 267 470 316 c 1
 471 336 472 350 472 358 c 0
 472 418 459 466 434 501 c 1
546 600 m 1
 584 600 l 1
 585 599 588 588 594 568 c 0
 600 548 605 536 606 532 c 0
 607 528 611 517 616 499 c 0
 621 481 624 468 626 460 c 0
 628 452 630 441 634 425 c 0
 638 409 641 396 642 385 c 0
 643 374 645 362 646 348 c 0
 647 334 648 321 648 308 c 2
 648 300 l 1
 648 285 l 2
 648 205 627 110 584 1 c 1
 546 1 l 1
 551 18 558 43 567 74 c 0
 576 105 583 129 588 147 c 0
 593 165 598 188 602 216 c 0
 606 244 609 272 610 300 c 1
 609 322 606 348 601 378 c 0
 596 408 590 432 586 450 c 0
 582 468 575 496 564 534 c 0
 553 572 547 594 546 600 c 1
152 600 m 1
 151 594 145 572 134 534 c 0
 123 496 116 468 112 450 c 0
 108 432 102 408 97 378 c 0
 92 348 89 322 88 300 c 1
 89 272 92 244 96 216 c 0
 100 188 105 165 110 147 c 0
 115 129 122 105 131 74 c 0
 140 43 147 18 152 1 c 1
 114 1 l 1
 71 110 50 205 50 285 c 2
 50 300 l 1
 50 308 l 2
 50 321 51 334 52 348 c 0
 53 362 55 374 56 385 c 0
 57 396 60 409 64 425 c 0
 68 441 70 452 72 460 c 0
 74 468 77 481 82 499 c 0
 87 517 91 528 92 532 c 0
 93 536 98 548 104 568 c 0
 110 588 113 599 114 600 c 1
 152 600 l 1
229 295 m 1
 244 296 256 299 266 306 c 0
 276 313 280 323 280 336 c 0
 280 349 275 364 265 379 c 1
 261 370 256 361 250 352 c 0
 244 343 239 334 236 326 c 0
 233 318 231 308 229 295 c 1
221 250 m 1
 223 249 226 249 231 249 c 0
 250 249 271 262 292 288 c 1
 286 289 278 289 269 289 c 0
 258 289 249 287 243 282 c 0xecf0
 237 277 230 267 221 250 c 1
224 225 m 1
 225 210 232 195 247 182 c 1xe9f0
 261 197 269 217 271 240 c 1
 257 229 246 224 239 224 c 0xeaf0
 234 224 229 224 224 225 c 1
243 154 m 1xddf0
 243 151 l 1
 217 11 l 1
 211 6 206 4 203 4 c 0
 197 4 192 9 189 19 c 1
 190 50 200 105 218 183 c 1
 211 194 l 1
 193 171 180 160 172 160 c 0
 164 160 148 170 125 189 c 1
 130 200 l 1
 150 187 162 180 167 180 c 0
 175 180 186 195 200 224 c 1xedf0
 192 236 l 1
 180 236 l 2
 168 236 159 238 154 240 c 0
 149 242 138 249 122 262 c 1
 135 278 l 1
 138 276 141 273 146 270 c 0
 151 267 156 265 158 264 c 0
 160 263 162 261 166 260 c 0
 170 259 174 258 177 258 c 0
 182 258 187 259 193 261 c 1
 192 273 191 282 191 287 c 0
 191 314 199 342 214 369 c 0
 229 396 237 417 237 431 c 0
 237 447 232 465 223 484 c 1
 216 503 213 526 213 554 c 0
 213 581 219 596 230 598 c 1
 233 597 238 596 243 593 c 0xddf0
 248 590 253 588 257 585 c 2
 262 581 l 1
 283 553 294 524 294 495 c 0
 294 494 294 491 294 488 c 0
 294 485 293 483 293 481 c 1
 292 478 289 473 286 466 c 0
 283 459 282 454 280 450 c 0
 278 446 276 440 275 434 c 0
 274 428 273 422 273 417 c 0
 273 411 274 404 276 397 c 1
 302 363 315 329 315 294 c 2
 315 280 l 1
 306 229 291 193 270 173 c 1xdaf0
 268 153 267 133 267 114 c 0xd9f0
 267 113 268 79 270 11 c 1
 267 4 263 0 257 0 c 0
 252 0 247 2 242 7 c 1
 240 18 239 30 239 43 c 0xdaf0
 239 56 240 76 242 102 c 0
 244 128 246 145 247 154 c 1
 243 154 l 1xddf0
EndSplineSet
Validated: 1
EndChar

StartChar: unie040
Encoding: 319 57408 63
Width: 698
VWidth: 0
Flags: W
HStem: 1 21G<92.5 152 179.492 206.5 311.5 338.508 510.5 515.5 546 605.5> 160 20<406.389 436.082> 224 25<480.14 520.633> 236 22<403.987 448>
VStem: 50 38<162.715 427.219> 184 37<312.936 463.606> 297 33<311 458.275> 445 54<113.308 151.461> 493 36<114.891 153.572 379.469 476.046> 495 27<0.646305 153.348> 503 19<43.6145 154> 536 35<291.07 362.429> 610 38<162.715 427.219>
LayerCount: 2
Fore
SplineSet
259 501 m 1xce18
 234 466 221 418 221 358 c 0
 221 350 222 336 223 316 c 1
 232 267 244 227 259 196 c 1
 274 227 286 267 295 316 c 1
 296 336 297 350 297 358 c 0
 297 418 284 466 259 501 c 1xce18
259 599 m 1
 260 598 265 588 274 570 c 0
 283 552 290 540 292 535 c 0
 294 530 299 518 306 500 c 0
 313 482 318 466 320 453 c 0
 322 440 324 423 327 402 c 0
 330 381 331 360 331 338 c 0
 331 335 330 331 330 325 c 0
 330 319 330 314 330 311 c 1
 367 268 l 1
 336 199 l 1
 318 245 l 1
 312 220 300 188 283 149 c 1
 292 137 302 126 312 116 c 0
 322 106 333 98 346 88 c 0
 359 78 368 70 374 64 c 1
 322 1 l 1
 301 28 280 61 259 100 c 1
 238 61 217 28 196 1 c 1
 144 64 l 1
 150 70 159 78 172 88 c 0
 185 98 196 106 206 116 c 0
 216 126 226 137 235 149 c 1
 220 183 208 216 200 247 c 1
 181 199 l 1
 150 268 l 1
 189 312 l 1
 186 332 184 350 184 366 c 0
 184 403 190 441 203 480 c 0
 216 519 228 548 239 568 c 0
 250 588 257 599 259 599 c 1
546 600 m 1
 584 600 l 1
 585 599 588 588 594 568 c 0
 600 548 605 536 606 532 c 0
 607 528 611 517 616 499 c 0
 621 481 624 468 626 460 c 0
 628 452 630 441 634 425 c 0
 638 409 641 396 642 385 c 0
 643 374 645 362 646 348 c 0
 647 334 648 321 648 308 c 2
 648 300 l 1
 648 285 l 2
 648 205 627 110 584 1 c 1
 546 1 l 1
 551 18 558 43 567 74 c 0
 576 105 583 129 588 147 c 0
 593 165 598 188 602 216 c 0
 606 244 609 272 610 300 c 1
 609 322 606 348 601 378 c 0
 596 408 590 432 586 450 c 0
 582 468 575 496 564 534 c 0
 553 572 547 594 546 600 c 1
152 600 m 1
 151 594 145 572 134 534 c 0
 123 496 116 468 112 450 c 0
 108 432 102 408 97 378 c 0
 92 348 89 322 88 300 c 1
 89 272 92 244 96 216 c 0
 100 188 105 165 110 147 c 0
 115 129 122 105 131 74 c 0
 140 43 147 18 152 1 c 1
 114 1 l 1
 71 110 50 205 50 285 c 2
 50 300 l 1
 50 308 l 2
 50 321 51 334 52 348 c 0
 53 362 55 374 56 385 c 0
 57 396 60 409 64 425 c 0
 68 441 70 452 72 460 c 0
 74 468 77 481 82 499 c 0
 87 517 91 528 92 532 c 0
 93 536 98 548 104 568 c 0
 110 588 113 599 114 600 c 1
 152 600 l 1
480 225 m 1
 481 210 488 195 503 182 c 1xee38
 517 197 525 217 527 240 c 1
 513 229 502 224 495 224 c 0xee58
 490 224 485 224 480 225 c 1
477 250 m 1
 479 249 482 249 487 249 c 0
 506 249 527 262 548 288 c 1
 542 289 534 289 525 289 c 0
 514 289 505 287 499 282 c 0xef18
 493 277 486 267 477 250 c 1
485 295 m 1
 500 296 512 299 522 306 c 0xce38
 532 313 536 323 536 336 c 0
 536 349 531 364 521 379 c 1
 517 370 512 361 506 352 c 0
 500 343 495 334 492 326 c 0
 489 318 487 308 485 295 c 1
499 154 m 1xdf38
 499 151 l 1
 473 11 l 1
 467 6 462 4 459 4 c 0
 453 4 448 9 445 19 c 1
 446 50 456 105 474 183 c 1
 467 194 l 1
 449 171 436 160 428 160 c 0
 420 160 404 170 381 189 c 1
 386 200 l 1
 406 187 418 180 423 180 c 0
 431 180 442 195 456 224 c 1xef38
 448 236 l 1
 436 236 l 2
 424 236 415 238 410 240 c 0
 405 242 394 249 378 262 c 1
 391 278 l 1
 394 276 397 273 402 270 c 0
 407 267 412 265 414 264 c 0
 416 263 418 261 422 260 c 0
 426 259 430 258 433 258 c 0
 438 258 443 259 449 261 c 1
 448 273 447 282 447 287 c 0
 447 314 455 342 470 369 c 0
 485 396 493 417 493 431 c 0xde98
 493 447 488 465 479 484 c 1
 472 503 469 526 469 554 c 0
 469 581 475 596 486 598 c 1
 489 597 494 596 499 593 c 0xdf18
 504 590 509 588 513 585 c 2
 518 581 l 1
 539 553 550 524 550 495 c 0
 550 494 550 491 550 488 c 0
 550 485 549 483 549 481 c 1
 548 478 545 473 542 466 c 0
 539 459 538 454 536 450 c 0
 534 446 532 440 531 434 c 0
 530 428 529 422 529 417 c 0xde98
 529 411 530 404 532 397 c 1
 558 363 571 329 571 295 c 0
 571 293 570 290 570 287 c 0
 570 284 570 281 570 280 c 0
 561 229 546 193 525 173 c 1
 523 153 522 133 522 114 c 0
 522 113 523 79 525 11 c 1
 522 4 518 0 513 0 c 0
 508 0 503 2 498 7 c 1
 496 18 495 30 495 43 c 0xde58
 495 56 496 76 498 102 c 0
 500 128 502 145 503 154 c 1
 499 154 l 1xdf38
EndSplineSet
Validated: 1
EndChar

StartChar: unie041
Encoding: 320 57409 64
Width: 498
VWidth: 0
Flags: W
HStem: 0 21G<144.472 183 311.5 348.528>
VStem: 159 42<261 378.953> 293 41<255.174 379.323>
LayerCount: 2
Fore
SplineSet
249 600 m 1
 448 433 l 1
 377 433 l 1
 249 534 l 1
 121 433 l 1
 50 433 l 1
 249 600 l 1
246 500 m 1
 249 497 l 1
 306 450 334 381 334 289 c 0
 334 276 334 267 333 260 c 1
 380 223 l 1
 342 166 l 1
 319 204 l 1
 310 179 295 153 276 124 c 1
 287 114 299 105 312 97 c 0
 325 89 339 81 354 73 c 0
 369 65 381 58 389 53 c 1
 324 0 l 1
 299 23 273 50 247 83 c 1
 223 52 197 25 169 0 c 1
 104 53 l 1
 112 58 124 65 139 73 c 0
 154 81 169 89 182 97 c 0
 195 105 206 114 217 124 c 1
 198 153 184 180 174 206 c 1
 150 166 l 1
 112 223 l 1
 159 261 l 1
 159 274 l 2
 159 295 162 318 168 342 c 0
 174 366 182 386 190 404 c 0
 198 422 206 439 215 454 c 0
 224 469 231 480 237 488 c 2
 246 500 l 1
246 414 m 1
 216 385 201 346 201 299 c 0
 201 282 202 269 203 260 c 1
 214 219 229 186 247 159 c 1
 265 186 280 219 291 260 c 1
 292 277 293 290 293 297 c 0
 293 346 277 385 246 414 c 1
EndSplineSet
Validated: 1
EndChar

StartChar: unie042
Encoding: 321 57410 65
Width: 600
VWidth: 0
Flags: W
HStem: 0 150<51 96 505 550> 450 149<50 95 504 549>
VStem: 51 45<0 150 450 599> 213 41<257.381 384.115> 341 39<254.837 378.354> 505 45<0 150 450 599>
LayerCount: 2
Fore
SplineSet
297 414 m 1
 268 385 254 347 254 298 c 1
 254 291 255 278 256 261 c 1
 266 222 280 189 298 160 c 1
 315 187 329 220 339 261 c 1
 340 278 341 290 341 296 c 0
 341 345 326 384 297 414 c 1
297 500 m 1
 300 497 l 1
 353 450 380 380 380 287 c 0
 380 275 380 266 379 260 c 1
 423 223 l 1
 387 166 l 1
 366 205 l 1
 355 175 341 148 326 124 c 1
 336 114 347 105 359 97 c 0
 371 89 384 81 398 73 c 0
 412 65 424 58 431 53 c 1
 371 1 l 1
 344 26 320 54 298 83 c 1
 276 54 252 26 225 1 c 1
 164 53 l 1
 171 58 182 65 197 73 c 0
 212 81 225 89 237 97 c 0
 249 105 260 114 270 124 c 1
 253 151 239 179 229 206 c 1
 207 166 l 1
 171 223 l 1
 216 261 l 1
 214 277 213 292 213 306 c 0
 213 332 216 356 222 379 c 0
 228 402 234 420 242 434 c 0
 250 448 257 462 266 472 c 0
 275 482 282 490 287 494 c 0
 292 498 296 500 297 500 c 1
300 599 m 1
 487 433 l 1
 420 433 l 1
 300 534 l 1
 180 433 l 1
 113 433 l 1
 300 599 l 1
51 150 m 1
 96 150 l 1
 96 0 l 1
 51 0 l 1
 51 150 l 1
50 599 m 1
 95 599 l 1
 95 450 l 1
 50 450 l 1
 50 599 l 1
505 150 m 1
 550 150 l 1
 550 0 l 1
 505 0 l 1
 505 150 l 1
504 599 m 1
 549 599 l 1
 549 450 l 1
 504 450 l 1
 504 599 l 1
EndSplineSet
Validated: 1
EndChar

StartChar: unie043
Encoding: 322 57411 66
Width: 448
VWidth: 0
Flags: W
HStem: 1 21G<107.873 147.5 300.5 340.127>
VStem: 120 49<307.286 436.546> 278 50<306.222 436.5>
LayerCount: 2
Fore
SplineSet
223 496 m 1
 187 461 169 415 169 358 c 0
 169 343 170 328 172 312 c 1
 185 264 202 224 224 191 c 1
 246 224 263 264 276 312 c 1
 277 322 278 336 278 355 c 0
 278 414 260 461 223 496 c 1
223 599 m 2
 227 596 l 1
 258 569 282 535 300 493 c 1
 360 558 l 1
 398 519 l 1
 318 438 l 1
 325 406 328 374 328 343 c 0
 328 329 328 318 327 311 c 1
 382 268 l 1
 336 199 l 1
 309 245 l 1
 298 214 281 182 259 149 c 1
 272 137 285 126 300 116 c 0
 315 106 331 98 350 88 c 0
 369 78 383 70 392 64 c 1
 316 1 l 1
 285 30 254 63 224 100 c 1
 194 63 163 30 132 1 c 1
 56 64 l 1
 65 70 79 78 98 88 c 0
 117 98 133 106 148 116 c 0
 163 126 176 137 189 149 c 1
 166 186 149 218 138 247 c 1
 110 199 l 1
 64 268 l 1
 121 312 l 1
 120 319 120 330 120 344 c 0
 120 375 123 407 130 438 c 1
 50 519 l 1
 88 558 l 1
 147 493 l 1
 165 536 190 571 221 597 c 1
 222 598 l 2
 222 599 222 599 223 599 c 2
EndSplineSet
Validated: 1
EndChar

StartChar: unie044
Encoding: 323 57412 67
Width: 600
VWidth: 0
Flags: W
HStem: 1 149<51 96 505 550> 450 150<50 95 504 549>
VStem: 50 45<1 150 450 600> 203 45<303.375 446.37> 351 46<305.824 436.686> 504 45<1 150 450 600>
LayerCount: 2
Fore
SplineSet
299 598 m 1
 303 595 l 1
 332 568 355 533 372 492 c 1
 427 558 l 1
 463 518 l 1
 388 438 l 1
 394 410 397 380 397 347 c 0
 397 331 397 319 396 311 c 1
 448 267 l 1
 405 199 l 1
 380 245 l 1
 369 214 354 182 333 149 c 1
 345 137 358 126 372 116 c 0
 386 106 401 98 418 88 c 0
 435 78 448 70 457 64 c 1
 386 1 l 1
 357 30 328 63 300 100 c 1
 272 63 243 30 214 1 c 1
 143 64 l 1
 152 70 165 78 182 88 c 0
 199 98 214 106 228 116 c 0
 242 126 255 137 267 149 c 1
 245 186 229 218 219 247 c 1
 193 199 l 1
 151 267 l 1
 204 312 l 1
 203 320 203 332 203 348 c 0
 203 381 206 411 212 438 c 1
 137 518 l 1
 173 558 l 1
 228 493 l 1
 245 537 268 571 297 596 c 1
 298 597 l 1
 299 598 l 1
299 496 m 1
 265 461 248 415 248 358 c 0
 248 345 249 329 251 312 c 1
 263 264 279 224 300 191 c 1
 321 224 337 264 349 312 c 1
 350 323 351 337 351 356 c 0
 351 414 334 461 299 496 c 1
504 600 m 1
 549 600 l 1
 549 450 l 1
 504 450 l 1
 504 600 l 1
505 150 m 1
 550 150 l 1
 550 1 l 1
 505 1 l 1
 505 150 l 1
50 600 m 1
 95 600 l 1
 95 450 l 1
 50 450 l 1
 50 600 l 1
51 150 m 1
 96 150 l 1
 96 1 l 1
 51 1 l 1
 51 150 l 1
EndSplineSet
Validated: 1
EndChar

StartChar: unie045
Encoding: 324 57413 68
Width: 449
VWidth: 0
Flags: W
HStem: 1 21G<119.636 161.5 290.5 331.364>
VStem: 134 44<272.102 403.685> 273 44<271.125 404.545>
LayerCount: 2
Fore
SplineSet
225 440 m 1
 194 409 178 368 178 317 c 0
 178 309 179 296 180 277 c 1
 193 232 208 196 226 170 c 1
 243 195 258 230 271 277 c 1
 272 296 273 309 273 316 c 0
 273 367 257 409 225 440 c 1
50 600 m 1
 107 600 l 1
 171 467 l 1
 174 472 178 480 185 489 c 1
 143 599 l 1
 188 600 l 1
 217 524 l 1
 225 531 l 1
 233 524 l 1
 262 600 l 1
 307 599 l 1
 265 489 l 1
 272 480 276 472 279 467 c 1
 342 600 l 1
 399 600 l 1
 304 406 l 1
 313 375 317 341 317 305 c 0
 317 292 317 283 316 276 c 1
 365 237 l 1
 325 177 l 1
 301 217 l 1
 288 185 274 157 257 132 c 1
 268 121 280 112 293 103 c 0
 306 94 320 85 337 76 c 0
 354 67 366 61 374 56 c 1
 307 1 l 1
 274 32 247 61 226 88 c 1
 206 63 179 34 144 1 c 1
 77 56 l 1
 85 61 97 67 114 76 c 0
 131 85 145 94 158 103 c 0
 171 112 183 121 194 132 c 1
 175 161 160 190 149 219 c 1
 125 177 l 1
 85 237 l 1
 135 277 l 1
 134 284 134 295 134 309 c 0
 134 345 138 377 146 405 c 1
 50 600 l 1
EndSplineSet
Validated: 1
EndChar

StartChar: unie046
Encoding: 325 57414 69
Width: 448
VWidth: 0
Flags: W
HStem: 1 21G<103.921 145 303 344.079>
VStem: 116 51<307.368 450.292> 201 46<271 421> 281 51<306.393 445.549>
CounterMasks: 1 70
LayerCount: 2
Fore
SplineSet
223 496 m 1
 186 463 167 417 167 359 c 0
 167 345 168 329 170 312 c 1
 185 262 203 222 224 191 c 1
 245 222 263 262 278 312 c 1
 280 327 281 342 281 355 c 0
 281 413 262 460 223 496 c 1
223 598 m 1
 296 542 332 457 332 342 c 0
 332 329 332 318 331 311 c 1
 388 268 l 1
 341 199 l 1
 313 245 l 1
 300 212 282 180 261 149 c 1
 274 137 289 126 304 116 c 0
 319 106 337 98 356 88 c 0
 375 78 389 70 398 64 c 1
 319 1 l 1
 287 30 255 63 224 100 c 1
 193 63 161 30 129 1 c 1
 50 64 l 1
 59 70 73 78 92 88 c 0
 111 98 129 106 144 116 c 0
 159 126 174 137 187 149 c 1
 166 180 149 213 135 247 c 1
 106 199 l 1
 59 268 l 1
 117 312 l 1
 116 319 116 330 116 344 c 0
 116 457 151 541 221 597 c 1
 223 598 l 1
201 421 m 1
 247 421 l 1
 247 271 l 1
 201 271 l 1
 201 421 l 1
EndSplineSet
Validated: 1
EndChar

StartChar: unie047
Encoding: 326 57415 70
Width: 600
VWidth: 0
Flags: W
HStem: 0 150<51 96 505 550> 451 149<50 95 504 549>
VStem: 51 45<0 150 451 600> 197 48<303.352 451.618> 278 44<271 421> 354 49<306.222 451.506> 505 45<0 150 451 600>
LayerCount: 2
Fore
SplineSet
278 421 m 1
 322 421 l 1
 322 271 l 1
 278 271 l 1
 278 421 l 1
299 598 m 1
 330 575 355 542 374 499 c 0
 393 456 403 404 403 344 c 0
 403 329 403 318 402 311 c 1
 457 268 l 1
 412 199 l 1
 385 245 l 1
 374 214 357 182 335 149 c 1
 348 137 361 126 376 116 c 0
 391 106 408 98 426 88 c 0
 444 78 458 70 467 64 c 1
 391 1 l 1
 358 31 328 64 300 100 c 1
 272 64 242 31 209 1 c 1
 133 64 l 1
 142 70 156 78 174 88 c 0
 192 98 209 106 224 116 c 0
 239 126 252 137 265 149 c 1
 242 186 225 218 214 247 c 1
 187 199 l 1
 142 268 l 1
 198 312 l 1
 197 319 197 330 197 345 c 0
 197 458 230 542 297 597 c 1
 299 598 l 1
299 496 m 1
 263 461 245 415 245 358 c 0
 245 343 246 328 248 312 c 1
 261 264 278 224 300 191 c 1
 322 224 339 264 352 312 c 1
 353 322 354 336 354 355 c 0
 354 414 336 461 299 496 c 1
51 150 m 1
 96 150 l 1
 96 0 l 1
 51 0 l 1
 51 150 l 1
50 600 m 1
 95 600 l 1
 95 451 l 1
 50 451 l 1
 50 600 l 1
505 150 m 1
 550 150 l 1
 550 0 l 1
 505 0 l 1
 505 150 l 1
504 600 m 1
 549 600 l 1
 549 451 l 1
 504 451 l 1
 504 600 l 1
EndSplineSet
Validated: 1
EndChar

StartChar: unie048
Encoding: 327 57416 71
Width: 448
VWidth: 0
Flags: W
HStem: 1 21G<103.921 145 303 344.079> 290 56<177 271>
VStem: 115 53<346 452.635> 280 51<346 449.551>
LayerCount: 2
Fore
SplineSet
177 290 m 1
 192 247 207 214 224 191 c 1
 241 214 256 247 271 290 c 1
 177 290 l 1
223 496 m 1
 186 462 168 416 168 357 c 2
 168 346 l 1
 280 346 l 1
 280 356 l 2
 280 414 261 461 223 496 c 1
223 598 m 1
 257 561 283 523 302 484 c 0
 321 445 331 397 331 341 c 0
 331 328 331 318 330 311 c 1
 388 268 l 1
 341 199 l 1
 313 245 l 1
 300 212 282 180 261 149 c 1
 274 137 289 126 304 116 c 0
 319 106 337 98 356 88 c 0
 375 78 389 70 398 64 c 1
 319 1 l 1
 287 30 255 63 224 100 c 1
 193 63 161 30 129 1 c 1
 50 64 l 1
 59 70 73 78 92 88 c 0
 111 98 129 106 144 116 c 0
 159 126 174 137 187 149 c 1
 166 180 149 213 135 247 c 1
 106 199 l 1
 59 268 l 1
 117 312 l 1
 116 325 115 335 115 342 c 0
 115 383 124 424 142 467 c 0
 160 510 176 542 193 564 c 0
 210 586 220 598 223 598 c 1
EndSplineSet
Validated: 1
EndChar

StartChar: unie049
Encoding: 328 57417 72
Width: 600
VWidth: 0
Flags: W
HStem: 0 150<51 96 505 550> 290 56<255 345> 451 149<50 95 504 549>
VStem: 51 45<0 150 451 600> 195 51<346.125 453.375> 354 49<346 450.912> 505 45<0 150 451 600>
LayerCount: 2
Fore
SplineSet
299 598 m 1
 330 575 355 542 374 499 c 0
 393 456 403 404 403 344 c 0
 403 329 403 318 402 311 c 1
 457 268 l 1
 412 199 l 1
 385 245 l 1
 374 214 357 182 335 149 c 1
 348 137 361 126 376 116 c 0
 391 106 408 98 426 88 c 0
 444 78 458 70 467 64 c 1
 391 1 l 1
 358 31 328 64 300 100 c 1
 272 64 242 31 209 1 c 1
 133 64 l 1
 142 70 156 78 174 88 c 0
 192 98 209 106 224 116 c 0
 239 126 252 137 265 149 c 1
 242 186 225 218 214 247 c 1
 187 199 l 1
 142 268 l 1
 198 312 l 1
 196 326 195 340 195 354 c 0
 195 394 204 434 220 474 c 0
 236 514 252 545 268 566 c 0
 284 587 294 598 299 598 c 1
299 496 m 1
 264 461 246 415 246 357 c 2
 246 346 l 1
 354 346 l 1
 354 356 l 2
 354 413 336 460 299 496 c 1
255 290 m 1
 268 249 283 216 300 191 c 1
 317 216 332 249 345 290 c 1
 255 290 l 1
51 150 m 1
 96 150 l 1
 96 0 l 1
 51 0 l 1
 51 150 l 1
50 600 m 1
 95 600 l 1
 95 451 l 1
 50 451 l 1
 50 600 l 1
505 150 m 1
 550 150 l 1
 550 0 l 1
 505 0 l 1
 505 150 l 1
504 600 m 1
 549 600 l 1
 549 451 l 1
 504 451 l 1
 504 600 l 1
EndSplineSet
Validated: 1
EndChar

StartChar: unie04a
Encoding: 329 57418 73
Width: 548
VWidth: 0
Flags: W
HStem: 1 21G<160.19 200.5 349.5 390.127>
VStem: 174 48<304 344> 329 47<303 343>
LayerCount: 2
Fore
SplineSet
275 496 m 1
 240 461 222 415 222 357 c 0
 222 338 223 323 224 312 c 1
 237 262 254 222 275 191 c 1
 297 224 314 264 327 312 c 1
 328 322 329 336 329 355 c 0
 329 414 311 461 275 496 c 1
275 599 m 1
 334 552 367 481 376 388 c 1
 498 345 l 1
 486 306 l 1
 378 343 l 1
 376 303 l 1
 475 269 l 1
 463 230 l 1
 366 263 l 1
 361 247 356 235 353 227 c 1
 452 193 l 1
 440 153 l 1
 335 190 l 1
 332 183 323 170 310 149 c 1
 323 137 337 126 352 116 c 0
 367 106 383 98 401 88 c 0
 419 78 433 70 442 64 c 1
 366 1 l 1
 333 31 303 64 275 100 c 1
 247 64 217 31 184 1 c 1
 109 64 l 1
 118 70 132 78 150 88 c 0
 168 98 184 106 199 116 c 0
 214 126 227 137 240 149 c 1
 234 158 226 172 215 191 c 1
 108 153 l 1
 96 193 l 1
 197 228 l 1
 194 236 189 248 184 264 c 1
 85 230 l 1
 73 269 l 1
 174 304 l 1
 172 344 l 1
 62 306 l 1
 50 345 l 1
 174 388 l 1
 183 483 217 553 275 599 c 1
EndSplineSet
Validated: 1
EndChar

StartChar: unie04b
Encoding: 330 57419 74
Width: 448
VWidth: 0
Flags: W
HStem: 1 21G<99.1887 146 302 348.811>
VStem: 117 51<311 339.577> 278 53<263 268 295 321.763>
LayerCount: 2
Fore
SplineSet
224 599 m 1
 370 473 l 1
 318 473 l 1
 224 550 l 1
 130 473 l 1
 78 473 l 1
 224 599 l 1
223 504 m 1
 295 457 331 385 331 289 c 0
 331 276 331 267 330 260 c 0
 323 219 300 174 261 125 c 1
 274 114 289 105 304 97 c 0
 319 89 336 82 355 74 c 0
 374 66 388 59 398 54 c 1
 319 1 l 1
 285 26 253 54 224 84 c 1
 195 54 163 26 129 1 c 1
 50 54 l 1
 60 59 74 66 93 74 c 0
 112 82 129 89 144 97 c 0
 159 105 174 114 187 125 c 1
 148 174 125 219 118 260 c 0
 117 267 117 277 117 290 c 0
 117 386 152 457 223 504 c 1
223 418 m 1
 205 403 191 387 182 369 c 1
 250 392 l 1
 241 402 232 411 223 418 c 1
265 370 m 1
 171 340 l 1
 169 331 168 321 168 311 c 1
 274 346 l 1
 273 353 270 361 265 370 c 1
279 322 m 1
 168 285 l 1
 171 259 l 1
 280 295 l 1
 280 308 280 317 279 322 c 1
278 268 m 1
 180 235 l 1
 182 230 186 222 191 213 c 1
 269 239 l 1
 278 263 l 1
 278 268 l 1
255 208 m 1
 203 191 l 1
 210 180 217 170 224 161 c 1
 236 176 246 191 255 208 c 1
EndSplineSet
Validated: 1
EndChar

StartChar: unie04c
Encoding: 331 57420 75
Width: 497
VWidth: 0
Flags: W
HStem: 112 56<242 260.63> 389 30<226.468 254> 566 11<62.6619 80.4219>
VStem: 151 75<278.301 388.683 406.516 521.668> 163 57<406.626 546.391> 254 34<253 385> 279 56<102.14 129.935> 316 35<255 340> 346 18<366.377 438.801> 378 27<337 462> 417 30<337.816 484.598>
LayerCount: 2
Fore
SplineSet
217 406 m 1xe860
 242 415 261 419 276 419 c 0
 306 419 330 401 347 366 c 1
 346 374 346 385 346 399 c 0
 346 429 350 456 357 480 c 0
 364 504 371 519 377 528 c 0
 383 537 394 551 409 570 c 1
 434 511 447 459 447 413 c 0
 447 396 445 378 441 360 c 0
 437 342 434 329 430 319 c 0
 426 309 419 294 410 275 c 0
 401 256 396 243 393 236 c 1
 320 227 l 1
 309 132 l 1
 311 131 315 129 320 126 c 0
 325 123 328 120 331 118 c 0
 334 116 335 113 335 110 c 0
 335 107 334 105 331 102 c 1
 330 98 328 93 324 86 c 0
 320 79 309 66 292 50 c 0
 275 34 254 18 228 3 c 1
 230 10 232 19 234 32 c 0
 236 45 238 56 240 64 c 0
 242 72 246 81 253 92 c 0
 260 103 268 114 279 123 c 1
 284 227 l 1
 243 230 l 1
 242 168 l 1
 245 168 l 2
 256 168 261 158 261 138 c 0
 261 121 257 112 248 112 c 2
 245 112 l 1
 240 115 235 116 230 116 c 0
 219 116 207 110 194 99 c 0
 181 88 170 76 162 65 c 2
 151 49 l 1
 152 54 152 62 153 75 c 0
 154 88 155 97 156 103 c 0
 157 109 159 117 162 126 c 0
 165 135 170 144 176 150 c 0
 182 156 190 161 199 166 c 1
 209 236 l 1
 206 239 199 248 188 260 c 0
 177 272 171 280 168 286 c 0
 165 292 161 303 157 320 c 0
 153 337 151 357 151 380 c 0xf2e0
 151 410 153 446 158 488 c 1
 161 503 163 515 163 522 c 0
 163 538 158 548 149 554 c 0
 140 560 124 564 102 566 c 0
 80 568 63 572 50 577 c 1
 62 577 78 581 98 588 c 0
 118 595 133 598 142 598 c 0
 155 598 168 593 181 583 c 1
 207 534 220 486 220 441 c 0
 220 428 219 417 217 406 c 1xe860
405 486 m 1
 405 337 l 1
 413 369 417 397 417 420 c 0
 417 443 413 465 405 486 c 1
378 263 m 1
 378 462 l 1
 371 441 367 397 364 329 c 1xe0e0
 363 330 361 332 358 334 c 0
 355 336 352 339 351 340 c 1
 351 255 l 1xe160
 357 256 366 259 378 263 c 1
316 250 m 1xe560
 316 372 l 1
 305 379 296 384 288 385 c 1
 288 249 l 1
 301 249 310 249 316 250 c 1xe560
254 253 m 1
 254 389 l 1
 245 389 236 387 226 384 c 1
 226 264 l 1xf460
 227 262 l 2
 228 261 228 260 229 260 c 0
 235 258 243 256 254 253 c 1
EndSplineSet
Validated: 1
EndChar

StartChar: unie04d
Encoding: 332 57421 76
Width: 399
VWidth: 0
Flags: W
HStem: 0 21G<256.5 263.5> 160 20<93.6668 143.028> 224 25<207.202 269.726> 236 22<91.7387 158.579> 289 6<215 276>
VStem: 154 43<4.01465 34.9024> 227 57<397.282 467.228> 232 41<0.827938 152.572> 244 29<42.6145 154> 295 54<278.903 359.16>
LayerCount: 2
Fore
SplineSet
207 225 m 1xec40
 209 209 221 195 243 182 c 1
 264 197 277 216 281 240 c 1
 260 229 243 224 231 224 c 0
 222 224 214 224 207 225 c 1xec40
203 250 m 1
 206 249 212 249 219 249 c 0
 248 249 279 262 312 288 c 1
 303 289 291 289 276 289 c 0
 259 289 245 287 236 282 c 0
 227 277 216 267 203 250 c 1
215 295 m 1
 238 296 257 299 272 306 c 0
 287 313 295 323 295 336 c 0
 295 349 287 363 272 379 c 1
 265 370 257 361 248 352 c 0
 239 343 232 334 227 326 c 0xce40
 222 318 218 308 215 295 c 1
238 154 m 1
 238 151 l 1
 197 11 l 1
 188 6 180 4 175 4 c 0
 166 4 159 9 154 19 c 1
 156 52 171 106 198 183 c 1
 188 194 l 1
 161 171 141 160 128 160 c 0
 114 160 90 170 55 189 c 1
 63 200 l 1
 94 187 113 180 120 180 c 0
 127 180 135 183 142 189 c 0
 149 195 158 207 171 224 c 1xecc0
 159 236 l 1
 140 236 l 2
 121 236 108 238 100 240 c 0
 92 242 75 249 50 262 c 1
 71 278 l 1
 76 276 82 273 89 270 c 0
 96 267 102 265 106 264 c 0
 110 263 114 261 119 260 c 0
 124 259 130 258 135 258 c 0
 142 258 150 259 159 261 c 1
 157 270 156 278 156 287 c 0
 156 308 162 327 174 344 c 0
 186 361 198 377 210 390 c 0
 222 403 227 417 227 430 c 0
 227 446 220 464 206 483 c 1
 195 500 190 523 190 553 c 0
 190 581 199 596 217 598 c 1
 222 597 230 596 238 593 c 0
 246 590 253 588 258 585 c 2
 266 581 l 1
 299 554 316 526 316 496 c 0
 316 489 316 484 315 481 c 1
 313 478 308 471 302 462 c 0
 296 453 291 445 288 438 c 0
 285 431 284 424 284 417 c 0xde40
 284 410 286 403 289 397 c 1
 308 381 324 365 334 350 c 0
 344 335 349 316 349 294 c 0
 349 288 349 283 348 280 c 0
 334 229 311 193 278 173 c 1
 275 157 273 138 273 116 c 0
 273 103 274 85 276 61 c 0
 278 37 278 20 278 11 c 1
 273 4 267 0 260 0 c 0
 253 0 245 2 236 7 c 1
 233 17 232 29 232 42 c 0xdd40
 232 55 234 75 238 101 c 0
 242 127 243 144 244 153 c 1xdcc0
 238 154 l 1
EndSplineSet
Validated: 1
EndChar

StartChar: unie04e
Encoding: 333 57422 77
Width: 399
VWidth: 0
Flags: W
HStem: 1 21G<191.5 251.5> 161 20<92.4124 142.46> 225 24<207.259 268.593> 237 22<93.3739 159> 290 5<243 258>
VStem: 227 57<36.8104 115.359 398.328 466.328> 244 29<35.8743 155> 295 54<287.094 359.398>
LayerCount: 2
Fore
SplineSet
207 226 m 1xe9
 209 208 222 194 243 183 c 1
 265 198 277 217 281 240 c 1
 258 229 253 225 233 225 c 0
 227 225 218 225 207 226 c 1xe9
203 250 m 1
 208 249 213 249 219 249 c 0
 262 249 297 276 312 289 c 1
 299 290 288 290 278 290 c 0
 243 290 231 283 203 250 c 1
215 295 m 1
 258 296 295 309 295 337 c 0
 295 349 288 363 272 380 c 1
 246 341 225 340 215 295 c 1
220 1 m 0
 214 1 208 1 202 1 c 0
 181 1 163 3 154 20 c 1
 157 72 178 128 198 184 c 1
 188 195 l 1
 161 172 147 161 128 161 c 0
 112 161 91 170 55 190 c 1
 63 201 l 1
 91 189 107 181 120 181 c 0
 136 181 147 193 171 225 c 1xeb
 159 237 l 1
 146 237 137 237 129 237 c 0
 99 237 93 240 50 262 c 1
 71 279 l 1
 99 268 112 259 135 259 c 0
 142 259 150 260 160 262 c 1
 158 272 157 280 157 289 c 0
 157 363 227 383 227 432 c 0
 227 446 221 463 206 484 c 1
 199 495 190 526 190 554 c 0
 190 577 196 597 217 599 c 1
 235 597 266 581 266 581 c 1
 296 557 316 528 316 496 c 0
 316 491 316 486 315 481 c 1
 303 460 284 441 284 418 c 0xdd
 284 412 285 405 289 398 c 1
 320 372 349 344 349 293 c 0
 349 289 348 285 348 281 c 1
 336 235 316 197 278 173 c 1
 274 154 273 136 273 117 c 0
 273 82 277 47 278 12 c 1
 271 2 259 1 244 1 c 0xdb
 237 1 228 1 220 1 c 0
238 155 m 1
 229 114 216 77 205 38 c 1
 208 12 221 26 232 34 c 1
 232 74 241 113 244 154 c 1
 238 155 l 1
EndSplineSet
Validated: 1
EndChar

StartChar: unie04f
Encoding: 334 57423 78
Width: 598
VWidth: 0
Flags: W
HStem: 0 21G<243 249.5> 160 21<92.0829 136.16> 225 24<197.247 255.31> 237 22<90.5923 151> 290 5<204 264>
VStem: 180 119<482.513 567.154> 215 53<398.282 470.391> 220 39<0.749603 153.665> 231 28<44.6145 155> 279 50<291.07 360.478> 503 45<256.234 291.765>
LayerCount: 2
Fore
SplineSet
205 599 m 1xdc20
 216 598 227 595 239 591 c 1
 240 591 l 1
 241 590 241 590 242 590 c 0
 243 590 244 590 245 589 c 0
 254 586 268 582 284 578 c 0
 300 574 313 571 323 568 c 0
 333 565 345 561 360 554 c 0
 375 547 388 540 399 532 c 0
 410 524 422 514 435 500 c 0
 448 486 460 470 470 452 c 0
 480 434 491 412 502 386 c 0
 513 360 524 329 533 296 c 1
 543 292 548 285 548 274 c 2
 548 273 l 2
 548 266 546 261 542 256 c 0
 538 251 533 249 527 249 c 2
 526 249 l 2
 520 249 514 252 510 256 c 0
 506 260 504 265 503 272 c 1
 503 273 l 2
 503 281 506 287 512 292 c 1
 477 437 399 529 278 568 c 1
 292 550 299 529 299 505 c 0xec20
 299 500 298 493 297 482 c 1
 295 479 292 474 288 467 c 0
 284 460 280 455 278 451 c 0
 276 447 273 442 271 436 c 0
 269 430 268 424 268 419 c 0xea20
 268 411 270 404 273 398 c 1
 291 382 304 366 314 351 c 0
 324 336 329 317 329 294 c 0
 329 293 328 291 328 288 c 0
 328 285 328 283 328 281 c 0
 315 229 294 193 263 173 c 1
 260 156 259 137 259 116 c 0
 259 103 260 84 261 60 c 0
 262 36 263 19 263 11 c 1
 258 4 253 0 246 0 c 0
 240 0 233 2 224 7 c 1
 221 17 220 29 220 44 c 0xe960
 220 57 222 77 225 104 c 0
 228 131 230 147 231 154 c 1
 225 155 l 1
 225 151 l 1
 187 11 l 1
 179 6 172 4 167 4 c 0
 158 4 151 9 146 19 c 1
 147 46 161 101 188 183 c 1
 178 194 l 1
 176 193 173 191 170 188 c 0
 167 185 164 182 162 181 c 0
 160 180 159 178 156 176 c 0
 153 174 151 171 150 170 c 0
 149 169 146 168 144 167 c 0
 142 166 140 165 139 164 c 0
 138 163 136 163 134 162 c 0
 132 161 130 160 128 160 c 0
 126 160 125 160 123 160 c 0
 112 160 89 170 55 190 c 1
 62 201 l 1
 91 188 108 181 115 181 c 0
 122 181 129 184 135 190 c 0
 141 196 150 208 162 225 c 1xe8a0
 151 237 l 1
 127 237 l 2
 112 237 100 238 93 240 c 0
 86 242 71 250 50 262 c 1
 69 279 l 1
 73 277 79 275 86 272 c 0
 93 269 98 266 101 265 c 0
 104 264 109 262 114 261 c 0
 119 260 124 259 129 259 c 0
 135 259 143 260 152 262 c 1
 151 268 150 277 150 288 c 0
 150 305 153 320 160 335 c 0
 167 350 174 362 182 370 c 0
 190 378 198 388 205 399 c 0
 212 410 215 421 215 432 c 0xda20
 215 447 208 465 195 485 c 0
 185 501 180 524 180 555 c 0
 180 582 188 597 205 599 c 1xdc20
204 295 m 1
 225 296 244 300 258 307 c 0
 272 314 279 324 279 337 c 0xc860
 279 349 272 363 257 380 c 1
 251 371 244 361 236 352 c 0
 228 343 221 335 216 327 c 0
 211 319 207 308 204 295 c 1
193 250 m 1
 196 249 201 249 207 249 c 0xe820
 237 249 266 262 295 289 c 1
 287 290 277 290 264 290 c 0
 247 290 235 287 226 282 c 0
 217 277 206 267 193 250 c 1
197 226 m 1
 199 209 210 195 230 182 c 1
 250 197 262 216 265 240 c 1
 245 230 230 225 221 225 c 0
 212 225 204 225 197 226 c 1
EndSplineSet
Validated: 1
EndChar

StartChar: unie050
Encoding: 335 57424 79
Width: 449
VWidth: 0
Flags: W
HStem: 0 21G<254.5 261.5> 160 21<93.9653 141.42> 224 25<200.146 260.441> 237 22<93.7313 157.579> 289 6<250 258>
VStem: 152 43<4.01465 34.9024> 225 56<398.282 467.453> 230 41<0.827938 153.572> 242 29<42.6152 155> 355 44<150.924 255.033 351.908 450.589>
LayerCount: 2
Fore
SplineSet
215 599 m 1xde40
 220 598 228 597 236 594 c 0
 244 591 251 589 256 586 c 2
 264 582 l 1
 297 556 313 528 313 497 c 0
 313 490 313 485 312 482 c 1
 310 479 306 472 300 463 c 0
 294 454 289 446 286 439 c 0
 283 432 281 426 281 419 c 0xde40
 281 411 283 404 286 398 c 0
 287 397 290 394 295 390 c 0
 300 386 304 384 306 382 c 0
 308 380 310 377 314 374 c 0
 318 371 321 367 324 363 c 0
 327 359 330 355 332 350 c 1
 348 363 356 386 356 418 c 0
 356 423 356 430 356 440 c 0
 356 450 355 459 355 465 c 0
 355 488 357 507 361 523 c 1
 386 484 398 444 398 403 c 0
 398 356 382 325 350 308 c 1
 383 286 399 256 399 219 c 0
 399 191 386 142 360 73 c 1
 354 88 351 107 351 129 c 0
 351 138 352 150 353 166 c 0
 354 182 355 192 355 199 c 0
 355 225 348 244 335 256 c 1
 329 235 322 218 314 206 c 0
 306 194 293 184 276 173 c 1
 273 157 271 138 271 116 c 0
 271 103 272 85 274 61 c 0
 276 37 276 20 276 11 c 1
 271 4 265 0 258 0 c 0
 251 0 243 2 234 7 c 1
 231 17 230 29 230 42 c 0xdd40
 230 55 232 76 236 102 c 0
 240 128 241 145 242 154 c 1xdcc0
 236 155 l 1
 236 151 l 1
 195 11 l 1
 186 6 178 4 173 4 c 0
 164 4 157 9 152 19 c 1
 153 26 153 34 154 41 c 0
 155 48 157 57 159 66 c 0
 161 75 163 82 164 87 c 0
 165 92 168 101 172 112 c 0
 176 123 179 131 180 134 c 0
 181 137 183 146 188 160 c 0
 193 174 196 181 197 183 c 1
 186 194 l 1
 158 171 138 160 127 160 c 0
 115 160 91 170 55 190 c 1
 63 201 l 1
 94 188 113 181 119 181 c 0
 126 181 133 184 140 190 c 0
 147 196 157 208 169 225 c 1
 158 237 l 1
 132 237 l 2
 116 237 104 238 96 240 c 0
 88 242 73 250 50 262 c 1
 71 279 l 1
 76 277 82 275 89 272 c 0
 96 269 102 266 105 265 c 0
 108 264 113 262 118 261 c 0
 123 260 129 259 134 259 c 0
 141 259 149 260 158 262 c 1
 156 271 155 280 155 288 c 0
 155 309 160 329 172 346 c 0
 184 363 196 378 208 392 c 0
 220 406 225 419 225 432 c 0
 225 448 218 466 204 485 c 1
 193 502 188 525 188 554 c 0
 188 582 197 597 215 599 c 1xde40
208 295 m 1
 258 296 283 310 283 335 c 0
 283 349 276 364 261 379 c 1
 255 370 248 361 240 352 c 0
 232 343 225 334 220 326 c 0
 215 318 211 308 208 295 c 1
196 250 m 1
 199 249 204 249 211 249 c 0xec40
 240 249 269 262 300 288 c 1
 291 289 279 289 266 289 c 0
 250 289 237 287 228 282 c 0
 219 277 209 266 196 250 c 1
200 225 m 1
 202 209 213 195 234 182 c 1
 255 197 267 217 270 240 c 1
 249 229 234 224 223 224 c 0
 214 224 206 224 200 225 c 1
EndSplineSet
Validated: 1
EndChar

StartChar: unie051
Encoding: 336 57425 80
Width: 598
VWidth: 0
Flags: W
HStem: 1 20G<106.5 186 351.5 358.5 412 491.5> 160 20<186.727 232.931> 224 25<301.202 365.384> 236 22<184.892 252> 289 6<309 371>
VStem: 50 51<167.638 419.559> 247 44<4.00366 34.9024> 322 57<397.282 466.369> 327 41<0.827938 152.572> 339 29<42.6145 154> 390 55<278.919 359.16> 497 51<167.638 419.559>
LayerCount: 2
Fore
SplineSet
309 295 m 1xcf30
 332 296 352 299 367 306 c 0
 382 313 390 323 390 336 c 0
 390 349 382 363 367 379 c 1
 360 370 353 361 344 352 c 0
 335 343 328 334 322 326 c 0
 316 318 312 308 309 295 c 1xcf30
297 250 m 1
 300 249 306 249 313 249 c 0xee30
 344 249 375 262 408 288 c 1
 398 289 386 289 371 289 c 0
 354 289 340 287 331 282 c 0
 322 277 310 266 297 250 c 1
301 225 m 1
 303 209 315 195 337 182 c 1
 359 197 372 217 376 240 c 1
 354 229 337 224 325 224 c 0
 316 224 308 224 301 225 c 1
332 154 m 1
 332 151 l 1
 291 11 l 1
 282 6 274 4 269 4 c 0
 260 4 252 9 247 19 c 1
 248 26 249 34 250 41 c 0
 251 48 252 57 254 66 c 0
 256 75 258 82 259 87 c 0
 260 92 263 101 267 112 c 0
 271 123 273 131 274 134 c 0
 275 137 279 146 284 160 c 0
 289 174 291 181 292 183 c 1
 281 194 l 1
 254 171 234 160 221 160 c 0
 208 160 183 170 147 189 c 1
 155 200 l 1
 186 187 205 180 212 180 c 0
 225 180 242 195 264 224 c 1xee70
 252 236 l 1
 232 236 l 2
 213 236 200 238 192 240 c 0
 184 242 167 249 141 262 c 1
 163 278 l 1
 168 276 174 273 182 270 c 0
 190 267 195 265 198 264 c 0
 201 263 206 261 212 260 c 0
 218 259 223 258 228 258 c 0
 235 258 243 259 253 261 c 1
 251 270 250 278 250 287 c 0
 250 308 256 327 268 344 c 0
 280 361 292 376 304 390 c 0
 316 404 322 417 322 430 c 0
 322 446 315 464 300 483 c 1
 289 501 283 524 283 553 c 0
 283 581 292 596 311 598 c 1
 316 597 324 596 332 593 c 0
 340 590 347 588 353 585 c 2
 361 581 l 1
 395 555 412 526 412 495 c 0
 412 489 412 484 411 481 c 1
 409 478 404 471 398 462 c 0
 392 453 387 445 384 438 c 0
 381 431 379 424 379 417 c 0xdf30
 379 410 381 403 384 397 c 1
 404 381 420 365 430 350 c 0
 440 335 445 316 445 294 c 0
 445 288 445 283 444 280 c 0
 431 229 407 194 373 173 c 1
 370 157 368 138 368 116 c 0
 368 103 368 85 370 61 c 0
 372 37 373 20 373 11 c 1
 368 4 362 0 355 0 c 0
 348 0 340 2 331 7 c 1
 328 17 327 29 327 42 c 0xdeb0
 327 55 328 75 332 101 c 0
 336 127 338 144 339 153 c 1xde70
 332 154 l 1
186 599 m 1
 184 594 176 572 161 533 c 0
 146 494 136 466 131 449 c 0
 126 432 119 408 112 378 c 0
 105 348 102 322 101 300 c 1
 102 272 105 244 111 216 c 0
 117 188 123 164 130 146 c 0
 137 128 146 104 158 74 c 0
 170 44 180 19 186 1 c 1
 135 1 l 1
 78 110 50 205 50 288 c 2
 50 300 l 1
 50 306 l 2
 50 338 55 374 66 414 c 0
 77 454 86 484 94 504 c 0
 102 524 116 556 135 599 c 1
 186 599 l 1
412 599 m 1
 463 599 l 1
 482 556 496 524 504 504 c 0
 512 484 521 454 532 414 c 0
 543 374 548 338 548 306 c 2
 548 300 l 1
 548 288 l 2
 548 205 520 110 463 1 c 1
 412 1 l 1
 418 19 428 44 440 74 c 0
 452 104 461 128 468 146 c 0
 475 164 481 188 487 216 c 0
 493 244 496 272 497 300 c 1
 496 322 493 348 486 378 c 0
 479 408 472 432 467 449 c 0
 462 466 452 494 437 533 c 0
 422 572 414 594 412 599 c 1
EndSplineSet
Validated: 1
EndChar

StartChar: unie052
Encoding: 337 57426 81
Width: 699
VWidth: 0
Flags: W
HStem: -0 29<232.05 418.068> 154 176<222.521 374.829> 401 19<411.112 514> 573 27<317.044 461.63>
VStem: 50 23<233.906 380.066> 175 306<178.902 259.533> 620 29<231.376 411.576>
LayerCount: 2
Fore
SplineSet
78 275 m 1
 85 208 103 156 132 116 c 0
 161 76 207 47 272 30 c 1
 279 29 291 29 306 29 c 0
 339 29 369 32 398 38 c 0
 427 44 454 55 482 69 c 0
 510 83 535 103 556 130 c 0
 577 157 593 189 604 226 c 1
 615 261 620 294 620 327 c 0
 620 400 597 458 550 504 c 0
 503 550 447 573 383 573 c 0
 345 573 310 565 278 549 c 1
 221 526 172 495 132 454 c 0
 92 413 73 367 73 316 c 0
 73 304 75 290 78 275 c 1
50 293 m 1
 51 314 53 330 54 343 c 0
 55 356 56 370 60 386 c 0
 64 402 69 415 75 426 c 0
 81 437 90 449 100 462 c 0
 110 475 123 486 138 497 c 0
 153 508 172 519 193 532 c 0
 214 545 239 558 268 571 c 1
 320 590 366 600 405 600 c 0
 461 600 512 578 557 535 c 0
 618 476 649 403 649 316 c 0
 649 280 642 245 629 211 c 1
 619 183 608 158 594 136 c 0
 580 114 561 92 537 70 c 0
 513 48 482 30 444 18 c 0
 406 6 361 0 310 -0 c 0
 300 0 284 1 263 2 c 0
 213 6 165 36 119 93 c 0
 73 150 50 214 50 287 c 2
 50 293 l 1
152 174 m 1
 153 181 157 189 164 200 c 0
 171 211 175 221 175 229 c 0
 175 240 169 255 156 272 c 1
 161 275 170 280 183 288 c 0
 196 296 206 301 213 304 c 0
 220 307 229 311 240 316 c 0
 251 321 262 325 272 327 c 0
 282 329 292 330 303 330 c 0
 327 330 351 324 376 312 c 1
 321 412 l 2
 321 413 320 418 318 426 c 0
 316 434 314 440 314 443 c 0
 314 457 329 465 360 468 c 1
 369 454 378 444 386 438 c 0
 394 432 402 429 410 428 c 0
 418 427 424 426 427 424 c 1
 517 420 l 1
 514 401 l 1
 411 394 l 1
 412 366 418 340 430 315 c 0
 442 290 453 269 464 252 c 0
 475 235 481 222 481 213 c 0
 481 198 470 184 447 171 c 1
 414 160 377 154 336 154 c 0
 321 154 305 155 288 156 c 0
 271 157 256 158 244 160 c 0
 232 162 216 165 196 168 c 0
 176 171 162 173 152 174 c 1
EndSplineSet
Validated: 1
EndChar

StartChar: unie053
Encoding: 338 57427 82
Width: 940
VWidth: 0
Flags: W
VStem: 361 52<325 344 361 379> 446 51<218.99 477.452> 530 52<323 341 359 377>
CounterMasks: 1 e0
LayerCount: 2
Fore
SplineSet
767 412 m 1
 698 302 l 1
 581 377 l 1
 581 375 582 372 582 368 c 0
 582 364 582 361 582 359 c 1
 695 285 l 1
 685 272 l 1
 583 341 l 1
 583 339 582 336 582 332 c 0
 582 328 582 325 582 323 c 1
 687 253 l 1
 772 386 l 1
 833 354 l 1
 845 363 l 1
 767 412 l 1
173 412 m 1
 95 363 l 1
 107 354 l 1
 168 386 l 1
 253 253 l 1
 361 325 l 1
 361 344 l 1
 255 272 l 1
 245 285 l 1
 361 361 l 1
 361 363 362 366 362 370 c 0
 362 374 362 377 362 379 c 1
 242 302 l 1
 173 412 l 1
487 479 m 1
 494 446 497 412 497 377 c 0
 497 360 496 342 495 324 c 0
 494 306 492 286 490 264 c 0
 488 242 486 225 485 213 c 1
 502 240 516 273 527 312 c 1
 529 328 530 343 530 357 c 0
 530 407 516 448 487 479 c 1
457 481 m 1
 428 450 413 408 413 357 c 0
 413 343 414 328 416 312 c 1
 428 274 441 242 456 216 c 1
 449 280 446 331 446 368 c 0
 446 409 450 447 457 481 c 1
471 597 m 1
 528 555 564 492 578 409 c 1
 689 350 l 1
 762 442 l 1
 890 338 l 1
 770 355 l 1
 689 234 l 1
 580 301 l 1
 571 255 548 205 509 150 c 1
 522 138 537 128 553 118 c 0
 569 108 586 98 606 89 c 0
 626 80 641 72 651 66 c 1
 570 3 l 1
 541 28 513 55 487 83 c 1
 490 58 499 31 513 2 c 1
 427 2 l 1
 445 23 456 52 460 87 c 1
 438 62 409 34 374 3 c 1
 292 66 l 1
 302 72 316 80 336 89 c 0
 356 98 374 108 390 118 c 0
 406 128 421 138 434 150 c 1
 395 205 372 256 363 303 c 1
 251 234 l 1
 170 355 l 1
 50 338 l 1
 178 442 l 1
 251 350 l 1
 365 411 l 1
 365 407 l 1
 378 490 413 554 471 597 c 1
EndSplineSet
Validated: 1
EndChar

StartChar: unie054
Encoding: 339 57428 83
Width: 500
VWidth: 0
Flags: W
HStem: 0 21G<265 450> 233 29<193 255> 290 29<137 218> 358 29<112 210> 425 29<128 226> 487 29<142 240> 547 53<149 254>
LayerCount: 2
Fore
SplineSet
119 600 m 1
 301 600 l 1
 249 336 l 1
 450 0 l 1
 265 0 l 1
 306 38 l 1
 221 135 l 1
 191 37 l 1
 157 51 l 1
 186 169 l 1
 50 319 l 1
 119 600 l 1
142 516 m 1
 247 516 l 1
 254 547 l 1
 149 547 l 1
 142 516 l 1
274 233 m 1
 193 233 l 1
 237 188 l 1
 281 221 l 1
 274 233 l 1
236 290 m 1
 137 290 l 1
 165 262 l 1
 255 262 l 1
 236 290 l 1
210 358 m 1
 105 358 l 1
 99 330 l 1
 109 319 l 1
 218 319 l 1
 206 337 l 1
 210 358 l 1
226 425 m 1
 121 425 l 1
 112 387 l 1
 217 387 l 1
 226 425 l 1
240 487 m 1
 135 487 l 1
 128 454 l 1
 233 454 l 1
 240 487 l 1
EndSplineSet
Validated: 1
EndChar

StartChar: unie055
Encoding: 340 57429 84
Width: 705
VWidth: 0
Flags: W
HStem: 0 21G<50 105 367 552 600 655> 233 29<296 357> 290 29<240 320> 358 29<214 313> 425 29<230 328> 487 29<245 343> 547 53<252 356>
VStem: 50 55<0 598> 600 55<0 598>
LayerCount: 2
Fore
SplineSet
600 598 m 1
 655 598 l 1
 655 0 l 1
 600 0 l 1
 600 598 l 1
50 598 m 1
 105 598 l 1
 105 0 l 1
 50 0 l 1
 50 598 l 1
343 487 m 1
 238 487 l 1
 230 454 l 1
 335 454 l 1
 343 487 l 1
328 425 m 1
 223 425 l 1
 214 387 l 1
 320 387 l 1
 328 425 l 1
313 358 m 1
 208 358 l 1
 201 330 l 1
 212 319 l 1
 320 319 l 1
 308 337 l 1
 313 358 l 1
339 290 m 1
 240 290 l 1
 267 262 l 1
 357 262 l 1
 339 290 l 1
376 233 m 1
 296 233 l 1
 339 188 l 1
 383 221 l 1
 376 233 l 1
245 516 m 1
 349 516 l 1
 356 547 l 1
 252 547 l 1
 245 516 l 1
222 600 m 1
 403 600 l 1
 351 336 l 1
 552 0 l 1
 367 0 l 1
 408 38 l 1
 323 135 l 1
 294 37 l 1
 259 51 l 1
 289 169 l 1
 152 319 l 1
 222 600 l 1
EndSplineSet
Validated: 1
EndChar

StartChar: unie056
Encoding: 341 57430 85
Width: 154
VWidth: 0
Flags: W
HStem: 1 21G<50 104>
VStem: 50 54<1 596>
LayerCount: 2
Fore
SplineSet
50 596 m 1
 104 596 l 1
 104 1 l 1
 50 1 l 1
 50 596 l 1
EndSplineSet
Validated: 1
EndChar

StartChar: unie057
Encoding: 342 57431 86
Width: 246
VWidth: 0
Flags: W
HStem: 1 19G<50 103 143 196>
VStem: 50 53<1 596> 143 53<-1 595>
LayerCount: 2
Fore
SplineSet
143 595 m 1
 196 595 l 1
 196 -1 l 1
 143 -1 l 1
 143 595 l 1
50 596 m 1
 103 596 l 1
 103 1 l 1
 50 1 l 1
 50 596 l 1
EndSplineSet
Validated: 1
EndChar

StartChar: unie058
Encoding: 343 57432 87
Width: 434
VWidth: 0
Flags: W
HStem: 1 119<51 105 330 384> 482 119<50 104 330 384>
VStem: 51 54<1 120 482 601> 145 53<2 598> 238 53<1 597> 330 54<1 120 477 596>
LayerCount: 2
Fore
SplineSet
145 598 m 1
 198 598 l 1
 198 2 l 1
 145 2 l 1
 145 598 l 1
238 597 m 1
 291 597 l 1
 291 1 l 1
 238 1 l 1
 238 597 l 1
50 601 m 1
 104 601 l 1
 104 482 l 1
 50 482 l 1
 50 601 l 1
330 596 m 1
 384 596 l 1
 384 477 l 1
 330 477 l 1
 330 596 l 1
330 120 m 1
 384 120 l 1
 384 1 l 1
 330 1 l 1
 330 120 l 1
51 120 m 1
 105 120 l 1
 105 1 l 1
 51 1 l 1
 51 120 l 1
EndSplineSet
Validated: 1
EndChar

StartChar: unie059
Encoding: 344 57433 88
Width: 340
VWidth: 0
Flags: W
HStem: -1 21G<50 104 143 197 236 290>
VStem: 50 54<1 596> 143 54<-1 595> 236 54<-1 595>
CounterMasks: 1 70
LayerCount: 2
Fore
SplineSet
143 595 m 1
 197 595 l 1
 197 -1 l 1
 143 -1 l 1
 143 595 l 1
50 596 m 1
 104 596 l 1
 104 1 l 1
 50 1 l 1
 50 596 l 1
236 595 m 1
 290 595 l 1
 290 -1 l 1
 236 -1 l 1
 236 595 l 1
EndSplineSet
Validated: 1
EndChar

StartChar: unie05a
Encoding: 345 57434 89
Width: 549
VWidth: 0
Flags: W
HStem: 1 21G<131 177 211 258>
VStem: 50 47<2 539> 131 46<0 537> 211 47<1 306 365 538>
CounterMasks: 1 70
LayerCount: 2
Fore
SplineSet
386 599 m 1
 408 577 l 1
 376 537 358 501 354 469 c 1
 431 555 l 1
 454 533 l 1
 377 447 l 1
 402 453 434 475 475 513 c 1
 499 489 l 1
 479 470 464 457 456 450 c 0
 448 443 435 435 418 426 c 0
 401 417 384 412 369 412 c 0
 360 412 353 413 348 414 c 1
 258 306 l 1
 258 1 l 1
 211 1 l 1
 211 538 l 1
 258 538 l 1
 258 365 l 1
 325 436 l 1
 322 447 320 458 320 467 c 0
 320 482 324 498 332 516 c 0
 340 534 346 546 352 554 c 0
 358 562 369 577 386 599 c 1
50 539 m 1
 97 539 l 1
 97 2 l 1
 50 2 l 1
 50 539 l 1
131 537 m 1
 177 537 l 1
 177 0 l 1
 131 0 l 1
 131 537 l 1
EndSplineSet
Validated: 1
EndChar

StartChar: unie05b
Encoding: 346 57435 90
Width: 499
VWidth: 0
Flags: W
HStem: 0 22G<128 172 205 249>
VStem: 50 45<2 542> 128 44<0 541> 205 44<1 314 360 541>
LayerCount: 2
Fore
SplineSet
409 599 m 1
 449 537 l 1
 249 314 l 1
 249 1 l 1
 205 1 l 1
 205 541 l 1
 249 541 l 1
 249 360 l 1
 338 450 l 1
 283 543 l 1
 304 553 l 1
 350 476 l 1
 361 488 l 1
 320 560 l 1
 338 569 l 1
 376 503 l 1
 390 518 l 1
 355 576 l 1
 372 584 l 1
 404 533 l 1
 417 548 l 1
 390 591 l 1
 409 599 l 1
50 542 m 1
 95 542 l 1
 95 2 l 1
 50 2 l 1
 50 542 l 1
128 541 m 1
 172 541 l 1
 172 0 l 1
 128 0 l 1
 128 541 l 1
EndSplineSet
Validated: 1
EndChar

StartChar: unie05c
Encoding: 347 57436 91
Width: 498
VWidth: 0
Flags: W
HStem: 0 22G<222 276 315 369>
VStem: 129 54<2 428> 222 54<0 427> 315 54<1 427>
CounterMasks: 1 70
LayerCount: 2
Fore
SplineSet
249 600 m 1
 448 458 l 1
 377 458 l 1
 249 544 l 1
 120 458 l 1
 50 458 l 1
 249 600 l 1
315 427 m 1
 369 427 l 1
 369 1 l 1
 315 1 l 1
 315 427 l 1
129 428 m 1
 183 428 l 1
 183 2 l 1
 129 2 l 1
 129 428 l 1
222 427 m 1
 276 427 l 1
 276 0 l 1
 222 0 l 1
 222 427 l 1
EndSplineSet
Validated: 1
EndChar

StartChar: unie05d
Encoding: 348 57437 92
Width: 306
VWidth: 0
Flags: W
VStem: 50 206
LayerCount: 2
Fore
SplineSet
179 601 m 1
 256 600 l 1
 128 2 l 1
 50 2 l 1
 179 601 l 1
EndSplineSet
Validated: 1
EndChar

StartChar: unie05e
Encoding: 349 57438 93
Width: 450
VWidth: 0
Flags: W
HStem: 0 21G<194 279.5>
LayerCount: 2
Fore
SplineSet
179 601 m 1
 188 601 201 600 218 600 c 0
 235 600 247 600 256 600 c 1
 242 534 221 434 192 301 c 0
 163 168 142 68 128 2 c 1
 50 2 l 1
 64 69 85 169 114 302 c 0
 143 435 165 534 179 601 c 1
323 599 m 1
 332 599 345 598 362 598 c 0
 379 598 391 598 400 598 c 1
 386 531 364 432 336 299 c 0
 308 166 287 67 272 0 c 1
 194 0 l 1
 208 67 229 167 258 300 c 0
 287 433 308 532 323 599 c 1
EndSplineSet
Validated: 1
EndChar

StartChar: unie05f
Encoding: 350 57439 94
Width: 432
VWidth: 0
Flags: W
HStem: -1 21G<50 103 143 196 236 289>
VStem: 50 53<1 596> 143 53<-1 595> 236 53<-1 595> 329 53<-2 594>
LayerCount: 2
Fore
SplineSet
143 595 m 1
 196 595 l 1
 196 -1 l 1
 143 -1 l 1
 143 595 l 1
50 596 m 1
 103 596 l 1
 103 1 l 1
 50 1 l 1
 50 596 l 1
329 594 m 1
 382 594 l 1
 382 -2 l 1
 329 -2 l 1
 329 594 l 1
236 595 m 1
 289 595 l 1
 289 -1 l 1
 236 -1 l 1
 236 595 l 1
EndSplineSet
Validated: 1
EndChar

StartChar: unie060
Encoding: 351 57440 95
Width: 526
VWidth: 0
Flags: W
HStem: -1 21G<50 104 143 197 236 290 422 476>
VStem: 50 54<1 596> 143 54<-1 595> 236 54<-1 595> 329 54<-2 594> 422 54<0 596>
LayerCount: 2
Fore
SplineSet
143 595 m 1
 197 595 l 1
 197 -1 l 1
 143 -1 l 1
 143 595 l 1
50 596 m 1
 104 596 l 1
 104 1 l 1
 50 1 l 1
 50 596 l 1
329 594 m 1
 383 594 l 1
 383 -2 l 1
 329 -2 l 1
 329 594 l 1
236 595 m 1
 290 595 l 1
 290 -1 l 1
 236 -1 l 1
 236 595 l 1
422 596 m 1
 476 596 l 1
 476 0 l 1
 422 0 l 1
 422 596 l 1
EndSplineSet
Validated: 1
EndChar

StartChar: unie061
Encoding: 352 57441 96
Width: 160
VWidth: 0
Flags: W
HStem: 451 149<50 110>
VStem: 50 60<451 600>
LayerCount: 2
Fore
SplineSet
50 451 m 1
 50 600 l 1
 110 600 l 1
 110 451 l 1
 50 451 l 1
EndSplineSet
Validated: 1
EndChar

StartChar: unie062
Encoding: 353 57442 97
Width: 160
VWidth: 0
Flags: W
HStem: 221 149<50 110>
VStem: 50 60<221 370>
LayerCount: 2
Fore
SplineSet
50 370 m 1
 110 370 l 1
 110 221 l 1
 50 221 l 1
 50 370 l 1
EndSplineSet
Validated: 1
EndChar

StartChar: unie063
Encoding: 354 57443 98
Width: 264
VWidth: 0
Flags: W
HStem: 451 149<50 109 155 214>
VStem: 50 59<451 600> 155 59<451 600>
LayerCount: 2
Fore
SplineSet
50 600 m 1
 109 600 l 1
 109 451 l 1
 50 451 l 1
 50 600 l 1
155 600 m 1
 214 600 l 1
 214 451 l 1
 155 451 l 1
 155 600 l 1
EndSplineSet
Validated: 1
EndChar

StartChar: unie064
Encoding: 355 57444 99
Width: 264
VWidth: 0
Flags: W
HStem: 231 149<50 109 155 214>
VStem: 50 59<231 380> 155 59<231 380>
LayerCount: 2
Fore
SplineSet
50 380 m 1
 109 380 l 1
 109 231 l 1
 50 231 l 1
 50 380 l 1
155 380 m 1
 214 380 l 1
 214 231 l 1
 155 231 l 1
 155 380 l 1
EndSplineSet
Validated: 1
EndChar

StartChar: unie065
Encoding: 356 57445 100
Width: 162
VWidth: 0
Flags: W
VStem: 52 60<73 272 328 527>
LayerCount: 2
Fore
SplineSet
52 272 m 1
 112 272 l 1
 112 73 l 1
 52 73 l 1
 52 272 l 1
50 527 m 1
 110 527 l 1
 110 328 l 1
 50 328 l 1
 50 527 l 1
EndSplineSet
Validated: 1
EndChar

StartChar: unie066
Encoding: 357 57446 101
Width: 380
VWidth: 0
Flags: W
HStem: 150 299
VStem: 50 60<151 449> 159 60<150 449> 270 60<149 448>
LayerCount: 2
Fore
SplineSet
159 449 m 1
 219 449 l 1
 219 150 l 1
 159 150 l 1
 159 449 l 1
270 448 m 1
 330 448 l 1
 330 149 l 1
 270 149 l 1
 270 448 l 1
50 449 m 1
 110 449 l 1
 110 151 l 1
 50 151 l 1
 50 449 l 1
EndSplineSet
Validated: 1
EndChar

StartChar: unie067
Encoding: 358 57447 102
Width: 270
VWidth: 0
Flags: W
HStem: 328 199<50 110 160 220>
VStem: 50 60<328 527> 106 60<72 271> 160 60<328 527>
LayerCount: 2
Fore
SplineSet
106 271 m 1xa0
 166 271 l 1
 166 72 l 1
 106 72 l 1
 106 271 l 1xa0
160 527 m 1x90
 220 527 l 1
 220 328 l 1
 160 328 l 1
 160 527 l 1x90
50 527 m 1xc0
 110 527 l 1
 110 328 l 1
 50 328 l 1
 50 527 l 1xc0
EndSplineSet
Validated: 1
EndChar

StartChar: unie068
Encoding: 359 57448 103
Width: 490
VWidth: 0
Flags: W
HStem: 153 298<50 110 160 219 270 330 380 440>
VStem: 50 60<153 451> 160 59<152 451> 270 60<151 450> 380 60<151 449>
LayerCount: 2
Fore
SplineSet
380 449 m 1
 440 449 l 1
 440 151 l 1
 380 151 l 1
 380 449 l 1
160 451 m 1
 219 451 l 1
 219 152 l 1
 160 152 l 1
 160 451 l 1
270 450 m 1
 330 450 l 1
 330 151 l 1
 270 151 l 1
 270 450 l 1
50 451 m 1
 110 451 l 1
 110 153 l 1
 50 153 l 1
 50 451 l 1
EndSplineSet
Validated: 1
EndChar

StartChar: unie069
Encoding: 360 57449 104
Width: 270
VWidth: 0
Flags: W
HStem: 72 199<51 111 161 220> 328 199<50 109 159 219>
VStem: 51 60<72 271 328 527> 161 59<72 271 328 527>
LayerCount: 2
Fore
SplineSet
161 271 m 1
 220 271 l 1
 220 72 l 1
 161 72 l 1
 161 271 l 1
159 527 m 1
 219 527 l 1
 219 328 l 1
 159 328 l 1
 159 527 l 1
51 271 m 1
 111 271 l 1
 111 72 l 1
 51 72 l 1
 51 271 l 1
50 527 m 1
 109 527 l 1
 109 328 l 1
 50 328 l 1
 50 527 l 1
EndSplineSet
Validated: 1
EndChar

StartChar: unie06a
Encoding: 361 57450 105
Width: 598
VWidth: 0
Flags: W
HStem: 151 298<50 109 159 218 270 329 380 439 489 548>
VStem: 50 59<153 451> 159 59<152 451> 270 59<151 450> 380 59<151 449> 489 59<150 449>
LayerCount: 2
Fore
SplineSet
489 449 m 1
 548 449 l 1
 548 150 l 1
 489 150 l 1
 489 449 l 1
380 449 m 1
 439 449 l 1
 439 151 l 1
 380 151 l 1
 380 449 l 1
159 451 m 1
 218 451 l 1
 218 152 l 1
 159 152 l 1
 159 451 l 1
270 450 m 1
 329 450 l 1
 329 151 l 1
 270 151 l 1
 270 450 l 1
50 451 m 1
 109 451 l 1
 109 153 l 1
 50 153 l 1
 50 451 l 1
EndSplineSet
Validated: 1
EndChar

StartChar: unie06b
Encoding: 362 57451 106
Width: 380
VWidth: 0
Flags: W
HStem: 72 199<104 164 215 275> 328 199<50 109 160 219 271 330>
VStem: 50 59<328 527> 104 60<72 271> 160 59<328 527> 215 60<73 272> 271 59<328 527>
LayerCount: 2
Fore
SplineSet
215 272 m 1xc4
 275 272 l 1
 275 73 l 1
 215 73 l 1
 215 272 l 1xc4
104 271 m 1xd0
 164 271 l 1
 164 72 l 1
 104 72 l 1
 104 271 l 1xd0
271 527 m 1xc2
 330 527 l 1
 330 328 l 1
 271 328 l 1
 271 527 l 1xc2
160 527 m 1xc8
 219 527 l 1
 219 328 l 1
 160 328 l 1
 160 527 l 1xc8
50 527 m 1xe0
 109 527 l 1
 109 328 l 1
 50 328 l 1
 50 527 l 1xe0
EndSplineSet
Validated: 1
EndChar

StartChar: unie06c
Encoding: 363 57452 107
Width: 710
VWidth: 0
Flags: W
HStem: 151 298<50 110 160 219 270 330 380 440 489 549 600 660>
VStem: 50 60<153 451> 160 59<152 451> 270 60<151 450> 380 60<151 449> 489 60<150 449> 600 60<149 448>
LayerCount: 2
Fore
SplineSet
489 449 m 1
 549 449 l 1
 549 150 l 1
 489 150 l 1
 489 449 l 1
600 448 m 1
 660 448 l 1
 660 149 l 1
 600 149 l 1
 600 448 l 1
380 449 m 1
 440 449 l 1
 440 151 l 1
 380 151 l 1
 380 449 l 1
160 451 m 1
 219 451 l 1
 219 152 l 1
 160 152 l 1
 160 451 l 1
270 450 m 1
 330 450 l 1
 330 151 l 1
 270 151 l 1
 270 450 l 1
50 451 m 1
 110 451 l 1
 110 153 l 1
 50 153 l 1
 50 451 l 1
EndSplineSet
Validated: 1
EndChar

StartChar: unie06d
Encoding: 364 57453 108
Width: 382
VWidth: 0
Flags: W
HStem: 72 199<52 111 162 221 272 332> 328 199<50 110 160 219 271 330>
VStem: 52 59<72 271 328 527> 162 59<72 271 328 527> 272 60<73 272 328 527>
LayerCount: 2
Fore
SplineSet
272 272 m 1
 332 272 l 1
 332 73 l 1
 272 73 l 1
 272 272 l 1
271 527 m 1
 330 527 l 1
 330 328 l 1
 271 328 l 1
 271 527 l 1
162 271 m 1
 221 271 l 1
 221 72 l 1
 162 72 l 1
 162 271 l 1
160 527 m 1
 219 527 l 1
 219 328 l 1
 160 328 l 1
 160 527 l 1
52 271 m 1
 111 271 l 1
 111 72 l 1
 52 72 l 1
 52 271 l 1
50 527 m 1
 110 527 l 1
 110 328 l 1
 50 328 l 1
 50 527 l 1
EndSplineSet
Validated: 1
EndChar

StartChar: unie06e
Encoding: 365 57454 109
Width: 820
VWidth: 0
Flags: W
HStem: 150 299<50 110 159 219 270 330 380 440 489 549 600 660 710 770>
VStem: 50 60<153 451> 159 60<152 451> 270 60<151 450> 380 60<151 449> 489 60<150 449> 600 60<149 448> 710 60<150 449>
LayerCount: 2
Fore
SplineSet
489 449 m 1
 549 449 l 1
 549 150 l 1
 489 150 l 1
 489 449 l 1
600 448 m 1
 660 448 l 1
 660 149 l 1
 600 149 l 1
 600 448 l 1
380 449 m 1
 440 449 l 1
 440 151 l 1
 380 151 l 1
 380 449 l 1
710 449 m 1
 770 449 l 1
 770 150 l 1
 710 150 l 1
 710 449 l 1
159 451 m 1
 219 451 l 1
 219 152 l 1
 159 152 l 1
 159 451 l 1
270 450 m 1
 330 450 l 1
 330 151 l 1
 270 151 l 1
 270 450 l 1
50 451 m 1
 110 451 l 1
 110 153 l 1
 50 153 l 1
 50 451 l 1
EndSplineSet
Validated: 1
EndChar

StartChar: unie06f
Encoding: 366 57455 110
Width: 1030
VWidth: 0
Flags: W
HStem: 0 20G<116 171.5 858.5 914> 151 298<156 215 265 324 376 435 486 545 595 654 706 765 816 875>
VStem: 50 55<141.165 415.996> 156 59<153 451> 265 59<152 451> 376 59<151 450> 486 59<151 449> 595 59<150 449> 706 59<149 448> 816 59<150 449> 925 55<139.95 413.146>
LayerCount: 2
Fore
SplineSet
914 1 m 1
 857 -1 l 1
 860 7 864 22 872 44 c 0
 880 66 886 83 890 94 c 0
 894 105 898 120 903 138 c 0
 908 156 913 174 916 190 c 0
 919 206 921 222 922 237 c 1
 924 252 925 267 925 282 c 0
 925 317 920 354 910 394 c 0
 900 434 890 468 880 493 c 0
 870 518 854 553 835 598 c 1
 887 598 l 1
 891 587 899 568 911 540 c 0
 923 512 932 489 938 474 c 0
 944 459 950 438 958 414 c 0
 966 390 972 367 975 344 c 0
 978 321 980 298 980 275 c 0
 980 206 958 115 914 1 c 1
116 1 m 1
 72 115 50 207 50 276 c 0
 50 299 52 322 55 345 c 0
 58 368 64 392 72 416 c 0
 80 440 86 460 92 475 c 0
 98 490 107 512 119 540 c 0
 131 568 139 588 143 599 c 1
 195 599 l 1
 176 554 160 519 150 494 c 0
 140 469 130 436 120 396 c 0
 110 356 105 318 105 283 c 0
 105 268 106 253 108 238 c 1
 109 223 111 207 114 191 c 0
 117 175 122 158 127 140 c 0
 132 122 136 106 140 95 c 0
 144 84 150 67 158 45 c 0
 166 23 170 8 173 0 c 1
 116 1 l 1
156 451 m 1
 215 451 l 1
 215 153 l 1
 156 153 l 1
 156 451 l 1
376 450 m 1
 435 450 l 1
 435 151 l 1
 376 151 l 1
 376 450 l 1
265 451 m 1
 324 451 l 1
 324 152 l 1
 265 152 l 1
 265 451 l 1
816 449 m 1
 875 449 l 1
 875 150 l 1
 816 150 l 1
 816 449 l 1
486 449 m 1
 545 449 l 1
 545 151 l 1
 486 151 l 1
 486 449 l 1
706 448 m 1
 765 448 l 1
 765 149 l 1
 706 149 l 1
 706 448 l 1
595 449 m 1
 654 449 l 1
 654 150 l 1
 595 150 l 1
 595 449 l 1
EndSplineSet
Validated: 1
EndChar

StartChar: unie070
Encoding: 367 57456 111
Width: 490
VWidth: 0
Flags: W
HStem: 72 199<107 166 217 277 327 387> 328 199<50 110 160 219 271 330 381 440>
VStem: 50 60<328 527> 107 59<72 271> 160 59<328 527> 217 60<73 272> 271 59<328 527> 327 60<72 271> 381 59<328 527>
LayerCount: 2
Fore
SplineSet
217 272 m 1xc4
 277 272 l 1
 277 73 l 1
 217 73 l 1
 217 272 l 1xc4
327 271 m 1xc1
 387 271 l 1
 387 72 l 1
 327 72 l 1
 327 271 l 1xc1
107 271 m 1xd0
 166 271 l 1
 166 72 l 1
 107 72 l 1
 107 271 l 1xd0
271 527 m 1xc2
 330 527 l 1
 330 328 l 1
 271 328 l 1
 271 527 l 1xc2
381 527 m 1xc080
 440 527 l 1
 440 328 l 1
 381 328 l 1
 381 527 l 1xc080
160 527 m 1xc8
 219 527 l 1
 219 328 l 1
 160 328 l 1
 160 527 l 1xc8
50 527 m 1xe0
 110 527 l 1
 110 328 l 1
 50 328 l 1
 50 527 l 1xe0
EndSplineSet
Validated: 1
EndChar

StartChar: unie071
Encoding: 368 57457 112
Width: 774
VWidth: 0
Flags: W
HStem: 1 21G<117 173 601.5 657> 72 199<249 308 360 419 470 529> 328 199<192 252 302 361 413 472 523 582>
VStem: 50 57<135.427 400.779> 192 60<328 527> 249 59<72 271> 302 59<328 527> 360 59<73 272> 413 59<328 527> 470 59<72 271> 523 59<328 527> 668 56<138.419 404.014>
LayerCount: 2
Fore
SplineSet
360 272 m 1xf110
 419 272 l 1
 419 73 l 1
 360 73 l 1
 360 272 l 1xf110
470 271 m 1xf050
 529 271 l 1
 529 72 l 1
 470 72 l 1
 470 271 l 1xf050
249 271 m 1xf410
 308 271 l 1
 308 72 l 1
 249 72 l 1
 249 271 l 1xf410
413 527 m 1xf090
 472 527 l 1
 472 328 l 1
 413 328 l 1
 413 527 l 1xf090
523 527 m 1xf030
 582 527 l 1
 582 328 l 1
 523 328 l 1
 523 527 l 1xf030
302 527 m 1xf210
 361 527 l 1
 361 328 l 1
 302 328 l 1
 302 527 l 1xf210
192 527 m 1xf810
 252 527 l 1
 252 328 l 1
 192 328 l 1
 192 527 l 1xf810
117 3 m 1
 101 45 90 78 82 101 c 0
 74 124 67 154 60 188 c 0
 53 222 50 256 50 291 c 1
 51 318 58 356 74 408 c 0
 90 460 106 505 121 543 c 2
 144 600 l 1
 196 600 l 1
 177 558 163 524 153 498 c 0
 143 472 132 440 122 401 c 0
 112 362 107 325 107 292 c 2
 107 284 l 2
 107 270 107 256 108 242 c 0
 109 228 112 214 115 199 c 0
 118 184 121 170 123 160 c 0
 125 150 128 136 134 119 c 0
 140 102 144 90 146 82 c 0
 148 74 153 60 160 40 c 0
 167 20 172 7 174 1 c 1
 117 3 l 1
657 2 m 1
 601 1 l 1
 602 5 607 20 616 46 c 0
 625 72 631 88 633 95 c 0
 635 102 640 116 646 138 c 0
 652 160 656 176 658 188 c 0
 660 200 662 214 664 232 c 0
 666 250 668 267 668 283 c 2
 668 291 l 2
 668 324 662 361 652 400 c 0
 642 439 632 472 622 498 c 0
 612 524 598 557 579 599 c 1
 631 599 l 1
 692 454 723 352 724 291 c 1
 724 241 719 196 708 156 c 0
 697 116 680 64 657 2 c 1
EndSplineSet
Validated: 1
EndChar

StartChar: unie072
Encoding: 369 57458 113
Width: 492
VWidth: 0
Flags: W
HStem: 72 199<52 111 162 221 272 332 382 442> 328 199<50 110 160 219 271 330 381 440>
VStem: 52 59<72 271 328 527> 162 59<72 271 328 527> 272 60<73 272 328 527> 382 60<72 271 328 527>
LayerCount: 2
Fore
SplineSet
272 272 m 1
 332 272 l 1
 332 73 l 1
 272 73 l 1
 272 272 l 1
271 527 m 1
 330 527 l 1
 330 328 l 1
 271 328 l 1
 271 527 l 1
382 271 m 1
 442 271 l 1
 442 72 l 1
 382 72 l 1
 382 271 l 1
381 527 m 1
 440 527 l 1
 440 328 l 1
 381 328 l 1
 381 527 l 1
162 271 m 1
 221 271 l 1
 221 72 l 1
 162 72 l 1
 162 271 l 1
160 527 m 1
 219 527 l 1
 219 328 l 1
 160 328 l 1
 160 527 l 1
52 271 m 1
 111 271 l 1
 111 72 l 1
 52 72 l 1
 52 271 l 1
50 527 m 1
 110 527 l 1
 110 328 l 1
 50 328 l 1
 50 527 l 1
EndSplineSet
Validated: 1
EndChar

StartChar: unie073
Encoding: 370 57459 114
Width: 1040
VWidth: 0
Flags: W
HStem: 150 299<50 110 159 219 270 330 380 440 489 549 600 660 710 770 819 879 930 990>
VStem: 50 60<153 451> 159 60<152 451> 270 60<151 450> 380 60<151 449> 489 60<150 449> 600 60<149 448> 710 60<150 449> 819 60<150 448> 930 60<149 447>
LayerCount: 2
Fore
SplineSet
489 449 m 1
 549 449 l 1
 549 150 l 1
 489 150 l 1
 489 449 l 1
600 448 m 1
 660 448 l 1
 660 149 l 1
 600 149 l 1
 600 448 l 1
380 449 m 1
 440 449 l 1
 440 151 l 1
 380 151 l 1
 380 449 l 1
819 448 m 1
 879 448 l 1
 879 150 l 1
 819 150 l 1
 819 448 l 1
930 447 m 1
 990 447 l 1
 990 149 l 1
 930 149 l 1
 930 447 l 1
710 449 m 1
 770 449 l 1
 770 150 l 1
 710 150 l 1
 710 449 l 1
159 451 m 1
 219 451 l 1
 219 152 l 1
 159 152 l 1
 159 451 l 1
270 450 m 1
 330 450 l 1
 330 151 l 1
 270 151 l 1
 270 450 l 1
50 451 m 1
 110 451 l 1
 110 153 l 1
 50 153 l 1
 50 451 l 1
EndSplineSet
Validated: 1
EndChar

StartChar: unie074
Encoding: 371 57460 115
Width: 600
VWidth: 0
Flags: W
HStem: 72 199<106 166 217 277 327 387 436 496> 328 199<50 110 160 220 271 330 381 440 490 550>
VStem: 50 60<328 527> 106 60<72 271> 160 60<328 527> 217 60<73 272> 271 59<328 527> 327 60<72 271> 381 59<328 527> 436 60<72 271> 490 60<328 527>
LayerCount: 2
Fore
SplineSet
217 272 m 1xc4
 277 272 l 1
 277 73 l 1
 217 73 l 1
 217 272 l 1xc4
327 271 m 1xc1
 387 271 l 1
 387 72 l 1
 327 72 l 1
 327 271 l 1xc1
436 271 m 1xc040
 496 271 l 1
 496 72 l 1
 436 72 l 1
 436 271 l 1xc040
106 271 m 1xd0
 166 271 l 1
 166 72 l 1
 106 72 l 1
 106 271 l 1xd0
271 527 m 1xc2
 330 527 l 1
 330 328 l 1
 271 328 l 1
 271 527 l 1xc2
381 527 m 1xc080
 440 527 l 1
 440 328 l 1
 381 328 l 1
 381 527 l 1xc080
490 527 m 1xc020
 550 527 l 1
 550 328 l 1
 490 328 l 1
 490 527 l 1xc020
160 527 m 1xc8
 220 527 l 1
 220 328 l 1
 160 328 l 1
 160 527 l 1xc8
50 527 m 1xe0
 110 527 l 1
 110 328 l 1
 50 328 l 1
 50 527 l 1xe0
EndSplineSet
Validated: 1
EndChar

StartChar: unie075
Encoding: 372 57461 116
Width: 840
VWidth: 0
Flags: W
HStem: 72 199<229 288 340 399 450 509 559 618> 328 199<173 232 283 342 394 453 504 563 613 672> 588 76<120 718>
VStem: 50 68<362 587> 173 59<328 527> 229 59<72 271> 283 59<328 527> 340 59<73 272> 394 59<328 527> 450 59<72 271> 504 59<328 527> 559 59<72 271> 613 59<328 527> 718 72<362 588>
LayerCount: 2
Fore
SplineSet
340 272 m 1xf104
 399 272 l 1
 399 73 l 1
 340 73 l 1
 340 272 l 1xf104
450 271 m 1xf044
 509 271 l 1
 509 72 l 1
 450 72 l 1
 450 271 l 1xf044
559 271 m 1xf014
 618 271 l 1
 618 72 l 1
 559 72 l 1
 559 271 l 1xf014
229 271 m 1xf404
 288 271 l 1
 288 72 l 1
 229 72 l 1
 229 271 l 1xf404
394 527 m 1xf084
 453 527 l 1
 453 328 l 1
 394 328 l 1
 394 527 l 1xf084
504 527 m 1xf024
 563 527 l 1
 563 328 l 1
 504 328 l 1
 504 527 l 1xf024
613 527 m 1xf00c
 672 527 l 1
 672 328 l 1
 613 328 l 1
 613 527 l 1xf00c
283 527 m 1xf204
 342 527 l 1
 342 328 l 1
 283 328 l 1
 283 527 l 1xf204
173 527 m 1xf804
 232 527 l 1
 232 328 l 1
 173 328 l 1
 173 527 l 1xf804
50 665 m 1
 132 664 256 664 420 664 c 0
 584 664 707 664 789 663 c 1
 789 630 790 579 790 512 c 0
 790 445 790 395 790 362 c 1
 782 362 770 362 754 361 c 0
 738 360 726 360 719 360 c 1
 719 385 718 423 718 474 c 0
 718 525 718 563 718 588 c 1
 651 588 552 588 419 588 c 0
 286 588 187 587 120 587 c 1
 120 562 120 525 119 474 c 0
 118 423 118 386 118 361 c 1
 111 361 99 362 84 362 c 0
 69 362 57 362 50 362 c 1
 50 665 l 1
EndSplineSet
Validated: 1
EndChar

StartChar: unie076
Encoding: 373 57462 117
Width: 600
VWidth: 0
Flags: W
HStem: 72 199<51 111 161 220 272 331 382 441 491 550> 328 199<50 109 159 219 270 330 380 440 489 549>
VStem: 51 60<72 271 328 527> 161 59<72 271 328 527> 272 59<73 272 328 527> 382 59<72 271 328 527> 491 59<72 271 328 527>
LayerCount: 2
Fore
SplineSet
272 272 m 1
 331 272 l 1
 331 73 l 1
 272 73 l 1
 272 272 l 1
270 527 m 1
 330 527 l 1
 330 328 l 1
 270 328 l 1
 270 527 l 1
382 271 m 1
 441 271 l 1
 441 72 l 1
 382 72 l 1
 382 271 l 1
380 527 m 1
 440 527 l 1
 440 328 l 1
 380 328 l 1
 380 527 l 1
491 271 m 1
 550 271 l 1
 550 72 l 1
 491 72 l 1
 491 271 l 1
489 527 m 1
 549 527 l 1
 549 328 l 1
 489 328 l 1
 489 527 l 1
161 271 m 1
 220 271 l 1
 220 72 l 1
 161 72 l 1
 161 271 l 1
159 527 m 1
 219 527 l 1
 219 328 l 1
 159 328 l 1
 159 527 l 1
51 271 m 1
 111 271 l 1
 111 72 l 1
 51 72 l 1
 51 271 l 1
50 527 m 1
 109 527 l 1
 109 328 l 1
 50 328 l 1
 50 527 l 1
EndSplineSet
Validated: 1
EndChar

StartChar: unie077
Encoding: 374 57463 118
Width: 498
VWidth: 0
Flags: W
HStem: 1 21G<50 127.659 179 256.659 308 386.537>
LayerCount: 2
Fore
SplineSet
250 599 m 1
 319 599 l 1
 248 435 l 1
 179 435 l 1
 250 599 l 1
120 599 m 1
 190 599 l 1
 119 435 l 1
 50 435 l 1
 120 599 l 1
119 382 m 1
 190 218 l 1
 120 218 l 1
 50 382 l 1
 119 382 l 1
248 382 m 1
 319 218 l 1
 250 218 l 1
 179 382 l 1
 248 382 l 1
378 382 m 1
 448 218 l 1
 379 218 l 1
 308 382 l 1
 378 382 l 1
379 165 m 1
 448 165 l 1
 378 1 l 1
 308 1 l 1
 379 165 l 1
250 165 m 1
 319 165 l 1
 248 1 l 1
 179 1 l 1
 250 165 l 1
120 165 m 1
 190 165 l 1
 119 1 l 1
 50 1 l 1
 120 165 l 1
EndSplineSet
Validated: 1
EndChar

StartChar: unie078
Encoding: 375 57464 119
Width: 498
VWidth: 0
Flags: W
HStem: 1 21G<50 127.659 179 256.659 308 386.537>
LayerCount: 2
Fore
SplineSet
120 165 m 1
 190 165 l 1
 119 1 l 1
 50 1 l 1
 120 165 l 1
250 165 m 1
 319 165 l 1
 248 1 l 1
 179 1 l 1
 250 165 l 1
379 165 m 1
 448 165 l 1
 378 1 l 1
 308 1 l 1
 379 165 l 1
378 382 m 1
 448 218 l 1
 379 218 l 1
 308 382 l 1
 378 382 l 1
248 382 m 1
 319 218 l 1
 250 218 l 1
 179 382 l 1
 248 382 l 1
119 382 m 1
 190 218 l 1
 120 218 l 1
 50 382 l 1
 119 382 l 1
120 599 m 1
 190 599 l 1
 119 435 l 1
 50 435 l 1
 120 599 l 1
250 599 m 1
 319 599 l 1
 248 435 l 1
 179 435 l 1
 250 599 l 1
379 599 m 1
 448 599 l 1
 378 435 l 1
 308 435 l 1
 379 599 l 1
EndSplineSet
Validated: 1
EndChar

StartChar: unie079
Encoding: 376 57465 120
Width: 434
VWidth: 0
Flags: W
HStem: 0 165<51 105 144 198 236 290 329 383> 217 164<52 106 145 199 237 292 330 384> 433 165<50 104 142 197 235 289 328 382>
VStem: 51 54<0 165 217 381 433 598> 144 54<0 165 217 381 433 598> 236 54<0 165 217 381 433 598> 329 54<0 165 217 381 433 598>
CounterMasks: 1 e0
LayerCount: 2
Fore
SplineSet
329 165 m 1
 383 165 l 1
 383 0 l 1
 329 0 l 1
 329 165 l 1
330 381 m 1
 384 381 l 1
 384 217 l 1
 330 217 l 1
 330 381 l 1
328 598 m 1
 382 598 l 1
 382 433 l 1
 328 433 l 1
 328 598 l 1
236 165 m 1
 290 165 l 1
 290 0 l 1
 236 0 l 1
 236 165 l 1
237 381 m 1
 292 381 l 1
 292 217 l 1
 237 217 l 1
 237 381 l 1
235 598 m 1
 289 598 l 1
 289 433 l 1
 235 433 l 1
 235 598 l 1
144 165 m 1
 198 165 l 1
 198 0 l 1
 144 0 l 1
 144 165 l 1
145 381 m 1
 199 381 l 1
 199 217 l 1
 145 217 l 1
 145 381 l 1
142 598 m 1
 197 598 l 1
 197 433 l 1
 142 433 l 1
 142 598 l 1
51 165 m 1
 105 165 l 1
 105 0 l 1
 51 0 l 1
 51 165 l 1
52 381 m 1
 106 381 l 1
 106 217 l 1
 52 217 l 1
 52 381 l 1
50 598 m 1
 104 598 l 1
 104 433 l 1
 50 433 l 1
 50 598 l 1
EndSplineSet
Validated: 1
EndChar

StartChar: unie07a
Encoding: 377 57466 121
Width: 766
VWidth: 0
Flags: W
HStem: 0 165<218 272 311 365 403 457 496 550> 217 164<219 273 312 366 404 459 497 551> 433 165<217 271 309 364 402 456 495 549>
VStem: 50 55<140.429 412.84> 218 54<0 165 217 381 433 598> 311 54<0 165 217 381 433 598> 403 54<0 165 217 381 433 598> 496 54<0 165 217 381 433 598> 661 55<142.382 414.338>
CounterMasks: 1 e0
LayerCount: 2
Fore
SplineSet
496 165 m 1
 550 165 l 1
 550 0 l 1
 496 0 l 1
 496 165 l 1
497 381 m 1
 551 381 l 1
 551 217 l 1
 497 217 l 1
 497 381 l 1
495 598 m 1
 549 598 l 1
 549 433 l 1
 495 433 l 1
 495 598 l 1
403 165 m 1
 457 165 l 1
 457 0 l 1
 403 0 l 1
 403 165 l 1
404 381 m 1
 459 381 l 1
 459 217 l 1
 404 217 l 1
 404 381 l 1
402 598 m 1
 456 598 l 1
 456 433 l 1
 402 433 l 1
 402 598 l 1
311 165 m 1
 365 165 l 1
 365 0 l 1
 311 0 l 1
 311 165 l 1
312 381 m 1
 366 381 l 1
 366 217 l 1
 312 217 l 1
 312 381 l 1
309 598 m 1
 364 598 l 1
 364 433 l 1
 309 433 l 1
 309 598 l 1
218 165 m 1
 272 165 l 1
 272 0 l 1
 218 0 l 1
 218 165 l 1
219 381 m 1
 273 381 l 1
 273 217 l 1
 219 217 l 1
 219 381 l 1
217 598 m 1
 271 598 l 1
 271 433 l 1
 217 433 l 1
 217 598 l 1
117 1 m 1
 72 118 50 210 50 279 c 0
 50 307 54 337 61 369 c 0
 68 401 75 425 80 442 c 0
 85 459 97 487 114 528 c 0
 131 569 140 592 143 599 c 1
 195 599 l 1
 176 555 160 520 150 494 c 0
 140 468 130 434 120 394 c 0
 110 354 105 317 105 282 c 0
 105 275 106 263 107 247 c 0
 108 230 111 214 114 198 c 0
 117 182 121 163 126 144 c 0
 131 125 136 110 140 99 c 0
 144 88 149 70 157 47 c 0
 165 24 170 8 173 0 c 1
 117 1 l 1
649 3 m 1
 593 1 l 1
 595 8 600 24 608 48 c 0
 616 72 622 89 626 100 c 0
 630 111 635 127 640 146 c 0
 645 165 649 184 652 200 c 0
 655 216 658 232 659 249 c 0
 660 265 661 277 661 284 c 0
 661 319 656 356 646 396 c 0
 636 436 626 470 616 495 c 0
 606 520 590 555 571 600 c 1
 623 600 l 1
 626 593 635 570 652 529 c 0
 669 488 681 460 686 443 c 0
 691 426 698 402 705 370 c 0
 712 338 716 308 716 280 c 0
 716 212 694 120 649 3 c 1
EndSplineSet
Validated: 1
EndChar

StartChar: unie07b
Encoding: 378 57467 122
Width: 300
VWidth: 0
Flags: W
HStem: 0 21G<126 188.133>
VStem: 50 60<350 600>
LayerCount: 2
Fore
SplineSet
190 600 m 1
 250 600 l 1
 186 0 l 1
 126 0 l 1
 190 600 l 1
50 600 m 1
 110 600 l 1
 110 350 l 1
 50 350 l 1
 50 600 l 1
EndSplineSet
Validated: 1
EndChar

StartChar: unie07c
Encoding: 379 57468 123
Width: 448
VWidth: 0
Flags: W
HStem: 1 21G<56.8571 131 323.6 398>
LayerCount: 2
Fore
SplineSet
275 201 m 1
 325 251 l 1
 398 1 l 1
 329 1 l 1
 275 201 l 1
199 600 m 1
 279 600 l 1
 234 306 l 1
 131 3 l 1
 50 1 l 1
 158 316 l 1
 199 600 l 1
EndSplineSet
Validated: 1
EndChar

StartChar: unie07d
Encoding: 380 57469 124
Width: 448
VWidth: 0
Flags: W
HStem: 1 21G<50 139.929>
LayerCount: 2
Fore
SplineSet
155 599 m 1
 239 599 l 1
 217 333 l 1
 398 188 l 1
 355 100 l 1
 209 254 l 1
 134 1 l 1
 50 1 l 1
 128 300 l 1
 155 599 l 1
EndSplineSet
Validated: 1
EndChar

StartChar: unie07e
Encoding: 381 57470 125
Width: 400
VWidth: 0
Flags: W
HStem: 0 21G<50 139.333 260.667 350>
VStem: 160 80<250 600>
LayerCount: 2
Fore
SplineSet
130 0 m 1
 50 0 l 1
 160 250 l 1
 160 600 l 1
 240 600 l 1
 240 250 l 1
 350 0 l 1
 270 0 l 1
 200 150 l 1
 130 0 l 1
EndSplineSet
Validated: 1
EndChar

StartChar: unie07f
Encoding: 382 57471 126
Width: 350
VWidth: 0
Flags: W
HStem: 0 21G<220 300> 520 80<130 220>
VStem: 50 80<375 520> 220 80<0 520>
LayerCount: 2
Fore
SplineSet
51 600 m 1
 300 600 l 1
 300 0 l 1
 220 0 l 1
 220 520 l 1
 130 520 l 1
 130 375 l 1
 50 375 l 1
 51 600 l 1
EndSplineSet
Validated: 1
EndChar

StartChar: unie080
Encoding: 383 57472 127
Width: 350
VWidth: 0
Flags: W
HStem: 1 21G<239 300> 541 60<109 239>
VStem: 50 59<281 541> 160 30<251 351> 239 61<1 541>
LayerCount: 2
Fore
SplineSet
50 281 m 1
 50 601 l 1
 297 597 l 1
 300 1 l 1
 239 1 l 1
 239 541 l 1
 109 541 l 1
 109 281 l 1
 50 281 l 1
160 351 m 1
 190 351 l 1
 190 251 l 1
 160 251 l 1
 160 351 l 1
EndSplineSet
Validated: 1
EndChar

StartChar: unie081
Encoding: 384 57473 128
Width: 447
VWidth: 0
Flags: W
HStem: 0 21G<50 132.222>
LayerCount: 2
Fore
SplineSet
50 0 m 1
 120 598 l 1
 176 597 l 1
 397 316 l 1
 330 261 l 1
 180 450 l 1
 130 0 l 1
 50 0 l 1
EndSplineSet
Validated: 1
EndChar

StartChar: unie082
Encoding: 385 57474 129
Width: 450
VWidth: 0
Flags: W
HStem: 0 21G<141.111 231.75>
LayerCount: 2
Fore
SplineSet
50 225 m 1
 130 225 l 1
 178 120 l 1
 215 600 l 1
 295 600 l 1
 400 375 l 1
 320 375 l 1
 272 480 l 1
 230 0 l 1
 150 0 l 1
 50 225 l 1
EndSplineSet
Validated: 1
EndChar

StartChar: unie083
Encoding: 386 57475 130
Width: 680
VWidth: 0
Flags: W
HStem: 0 21G<240.769 318.581> 340 260<50 130 550 630> 540 60<140 540>
VStem: 50 90<400 540> 50 80<340 480> 540 90<400 540> 550 80<340 480>
LayerCount: 2
Fore
SplineSet
50 340 m 1xc8
 50 600 l 1
 630 600 l 1
 630 340 l 1
 550 340 l 1xca
 540 540 l 1
 140 540 l 1xb4
 130 340 l 1
 50 340 l 1xc8
190 260 m 1
 257 116 l 1
 380 400 l 1
 450 400 l 1
 570 140 l 1
 510 140 l 1
 437 296 l 1
 310 0 l 1
 250 0 l 1
 130 260 l 1
 190 260 l 1
EndSplineSet
Validated: 1
EndChar

StartChar: unie084
Encoding: 387 57476 131
Width: 698
VWidth: 0
Flags: W
HStem: 1 21G<213.5 242>
VStem: 568 74<311.5 573.505> 578 70<150.001 435.6>
LayerCount: 2
Fore
SplineSet
50 527 m 1xa0
 50 532 l 2
 50 565 61 588 84 599 c 1
 111 586 131 575 144 566 c 0
 157 557 165 547 170 535 c 1
 219 163 l 2
 220 159 220 154 220 147 c 0
 220 140 220 135 220 130 c 0
 220 125 221 121 222 116 c 0
 223 111 226 108 228 106 c 0
 230 104 233 102 237 102 c 2
 238 102 l 2
 241 102 244 103 246 106 c 0
 248 109 251 113 252 118 c 0
 253 123 254 127 255 131 c 0
 256 135 256 140 257 146 c 0
 258 152 258 155 259 157 c 2
 269 516 l 1
 271 529 273 540 274 546 c 0
 275 552 279 559 286 568 c 0
 293 577 302 583 313 586 c 1
 322 583 329 580 334 578 c 0
 339 576 346 570 355 561 c 0
 364 552 372 539 380 522 c 1
 524 183 l 1
 532 161 542 150 554 150 c 2
 556 150 l 1
 571 153 578 167 578 192 c 2
 578 199 l 1xa0
 568 537 l 1
 574 566 585 580 601 580 c 2
 602 580 l 1
 608 579 613 577 617 575 c 0
 621 573 624 572 626 570 c 0
 628 568 631 565 633 561 c 0
 635 557 636 554 636 552 c 0
 636 550 637 550 639 540 c 0
 640 533 641 529 642 526 c 2xc0
 648 97 l 1
 647 78 642 64 632 53 c 0
 622 42 606 32 587 21 c 0
 583 19 578 18 572 18 c 0
 544 18 519 36 496 72 c 1
 385 371 l 1
 374 410 360 434 345 441 c 1
 341 441 l 2
 334 441 330 437 327 430 c 0
 324 423 323 411 322 396 c 0
 321 381 320 372 319 369 c 2
 304 85 l 1
 301 60 293 41 279 26 c 0
 265 11 250 3 234 1 c 1
 193 10 168 41 159 94 c 1
 119 462 l 2
 116 489 109 506 96 513 c 0
 95 514 80 518 50 527 c 1xa0
EndSplineSet
Validated: 1
EndChar

StartChar: unie085
Encoding: 388 57477 132
Width: 598
VWidth: 0
Flags: W
HStem: 1 21G<245.525 263.775>
LayerCount: 2
Fore
SplineSet
90 377 m 1
 224 597 l 1
 297 426 l 1
 401 599 l 1
 446 422 l 1
 527 579 l 1
 548 504 l 1
 440 316 l 1
 382 484 l 1
 294 306 l 1
 219 482 l 1
 135 366 l 1
 90 377 l 1
50 73 m 1
 184 293 l 1
 257 121 l 1
 361 294 l 1
 406 118 l 1
 487 274 l 1
 508 199 l 1
 400 11 l 1
 341 179 l 1
 254 1 l 1
 179 178 l 1
 95 61 l 1
 50 73 l 1
EndSplineSet
Validated: 1
EndChar

StartChar: unie086
Encoding: 389 57478 133
Width: 598
VWidth: 0
Flags: W
HStem: 1 21G<50 146.895 451.105 548>
LayerCount: 2
Fore
SplineSet
299 599 m 1
 548 1 l 1
 460 1 l 1
 299 363 l 1
 138 1 l 1
 50 1 l 1
 299 599 l 1
EndSplineSet
Validated: 1
EndChar

StartChar: unie087
Encoding: 390 57479 134
Width: 600
VWidth: 0
Flags: W
HStem: 1 21G<150 175 415 450>
LayerCount: 2
Fore
SplineSet
299 512 m 1
 239 391 l 1
 299 344 l 1
 358 390 l 1
 299 512 l 1
99 106 m 1
 159 60 l 1
 276 298 l 1
 216 345 l 1
 99 106 l 1
175 1 m 1
 50 101 l 1
 300 601 l 1
 550 101 l 1
 425 1 l 1
 300 251 l 1
 217 86 175 3 175 1 c 1
498 106 m 1
 381 345 l 1
 322 298 l 1
 438 60 l 1
 498 106 l 1
EndSplineSet
Validated: 1
EndChar

StartChar: unie088
Encoding: 391 57480 135
Width: 600
VWidth: 0
Flags: W
HStem: 1 21G<150 175 415 450>
LayerCount: 2
Fore
SplineSet
299 512 m 1
 244 400 l 1
 299 344 l 1
 353 400 l 1
 299 512 l 1
175 1 m 1
 50 101 l 1
 300 601 l 1
 550 101 l 1
 425 1 l 1
 300 251 l 1
 217 86 175 3 175 1 c 1
99 106 m 1
 159 60 l 1
 178 97 l 1
 118 143 l 1
 99 106 l 1
135 180 m 1
 195 134 l 1
 213 170 l 1
 154 216 l 1
 135 180 l 1
171 254 m 1
 231 208 l 1
 249 246 l 1
 190 290 l 1
 171 254 l 1
208 327 m 1
 267 282 l 1
 286 318 l 1
 226 364 l 1
 208 327 l 1
498 107 m 1
 480 143 l 1
 420 98 l 1
 438 60 l 1
 498 107 l 1
462 180 m 1
 443 216 l 1
 384 170 l 1
 402 134 l 1
 462 180 l 1
426 255 m 1
 407 291 l 1
 348 246 l 1
 366 209 l 1
 426 255 l 1
389 328 m 1
 371 364 l 1
 311 318 l 1
 330 282 l 1
 389 328 l 1
EndSplineSet
Validated: 1
EndChar

StartChar: unie089
Encoding: 392 57481 136
Width: 400
VWidth: 0
Flags: W
HStem: 0 21G<50 136.667 263.521 350>
VStem: 50 300
LayerCount: 2
Fore
SplineSet
50 600 m 1
 130 600 l 1
 205 387 l 1
 270 600 l 1
 350 600 l 1
 250 300 l 1
 350 0 l 1
 270 0 l 1
 201 213 l 1
 130 0 l 1
 50 0 l 1
 150 300 l 1
 50 600 l 1
EndSplineSet
Validated: 1
EndChar

StartChar: unie08a
Encoding: 393 57482 137
Width: 599
VWidth: 0
Flags: W
HStem: 0 21G<149 239.677 358.624 449>
LayerCount: 2
Fore
SplineSet
299 550 m 1
 549 401 l 1
 460 401 l 1
 299 491 l 1
 138 401 l 1
 50 401 l 1
 299 550 l 1
149 375 m 1
 229 375 l 1
 304 242 l 1
 369 375 l 1
 449 375 l 1
 349 188 l 1
 449 0 l 1
 369 0 l 1
 300 133 l 1
 229 0 l 1
 149 0 l 1
 249 188 l 1
 149 375 l 1
EndSplineSet
Validated: 1
EndChar

StartChar: unie08b
Encoding: 394 57483 138
Width: 680
VWidth: 0
Flags: W
HStem: 0 21G<190 278.875 401.375 490> 340 260<50 130 550 630> 540 60<140 540>
VStem: 50 90<400 540> 50 80<340 480> 540 90<400 540> 550 80<340 480>
LayerCount: 2
Fore
SplineSet
190 450 m 1x80
 270 450 l 1
 345 290 l 1
 410 450 l 1
 490 450 l 1
 390 225 l 1
 490 0 l 1
 410 0 l 1
 341 160 l 1
 270 0 l 1
 190 0 l 1
 290 225 l 1
 190 450 l 1x80
50 340 m 1xc8
 50 600 l 1
 630 600 l 1
 630 340 l 1
 550 340 l 1xca
 540 540 l 1
 140 540 l 1xb4
 130 340 l 1
 50 340 l 1xc8
EndSplineSet
Validated: 1
EndChar

StartChar: unie08c
Encoding: 395 57484 139
Width: 601
VWidth: 0
Flags: W
HStem: 0 21G<50 161.16 437.16 548> 25 99<258 290 319 350> 250 99<56 88 117 148 459 491 520 551> 475 99<258 290 319 350>
VStem: 56 32<250 349> 117 31<250 349> 258 32<25 124 475 574> 319 31<25 124 475 574> 459 32<250 349> 520 31<250 349>
LayerCount: 2
Fore
SplineSet
50 600 m 1
 149 600 l 1
 299 350 l 1
 449 600 l 1
 548 600 l 1
 382 300 l 1
 548 0 l 1
 449 0 l 1
 301 250 l 1
 149 0 l 1
 50 0 l 1
 216 300 l 1
 50 600 l 1
319 124 m 1
 350 124 l 1
 350 25 l 1
 319 25 l 1
 319 124 l 1
258 124 m 1
 290 124 l 1
 290 25 l 1
 258 25 l 1
 258 124 l 1
319 574 m 1
 350 574 l 1
 350 475 l 1
 319 475 l 1
 319 574 l 1
258 574 m 1
 290 574 l 1
 290 475 l 1
 258 475 l 1
 258 574 l 1
520 349 m 1
 551 349 l 1
 551 250 l 1
 520 250 l 1
 520 349 l 1
459 349 m 1
 491 349 l 1
 491 250 l 1
 459 250 l 1
 459 349 l 1
117 349 m 1
 148 349 l 1
 148 250 l 1
 117 250 l 1
 117 349 l 1
56 349 m 1
 88 349 l 1
 88 250 l 1
 56 250 l 1
 56 349 l 1
EndSplineSet
Validated: 1
EndChar

StartChar: unie08d
Encoding: 396 57485 140
Width: 598
VWidth: 0
Flags: W
HStem: 1 21G<50 143.286 224 274 324 374 454.714 548>
VStem: 224 50<0 134 470 600> 324 50<0 134 471 600>
LayerCount: 2
Fore
SplineSet
129 600 m 1
 224 470 l 1
 224 600 l 1
 274 600 l 1
 274 403 l 1
 299 368 l 1
 324 403 l 1
 324 600 l 1
 374 600 l 1
 374 471 l 1
 469 600 l 1
 548 600 l 1
 374 338 l 1
 374 263 l 1
 548 1 l 1
 469 1 l 1
 374 134 l 1
 374 0 l 1
 324 0 l 1
 324 203 l 1
 299 238 l 1
 274 203 l 1
 274 0 l 1
 224 0 l 1
 224 134 l 1
 129 1 l 1
 50 1 l 1
 224 264 l 1
 224 337 l 1
 50 600 l 1
 129 600 l 1
EndSplineSet
Validated: 1
EndChar

StartChar: unie08e
Encoding: 397 57486 141
Width: 900
VWidth: 0
Flags: W
HStem: 1 21G<202 295.436 377 426 477 526 606.714 701> 601 99<50 130 770 850> 651 49<150 750>
VStem: 377 49<0 134 470 600> 477 49<0 134 471 600>
LayerCount: 2
Fore
SplineSet
50 601 m 1xd8
 50 700 l 1
 850 700 l 1
 850 601 l 1
 770 601 l 1xd8
 750 651 l 1
 150 651 l 1xb8
 130 601 l 1
 50 601 l 1xd8
281 600 m 1
 377 470 l 1
 377 600 l 1
 426 600 l 1
 426 403 l 1
 451 368 l 1
 477 403 l 1
 477 600 l 1
 526 600 l 1
 526 471 l 1
 621 600 l 1
 701 600 l 1
 526 338 l 1
 526 263 l 1
 701 1 l 1
 621 1 l 1
 526 134 l 1
 526 0 l 1
 477 0 l 1
 477 203 l 1
 451 238 l 1
 426 203 l 1
 426 0 l 1
 377 0 l 1
 377 134 l 1
 281 1 l 1
 202 1 l 1
 377 264 l 1
 377 337 l 1
 202 600 l 1
 281 600 l 1
EndSplineSet
Validated: 1
EndChar

StartChar: unie08f
Encoding: 398 57487 142
Width: 896
VWidth: 0
Flags: W
HStem: 0 150<50 98 118 166 730 778 798 846> 451 149<50 98 118 166 730 778 798 846>
VStem: 50 48<0 150 451 600> 118 48<0 150 451 600> 375 49<0 134 469 599> 475 49<0 133 470 599> 730 48<0 150 451 600> 798 48<0 150 451 600>
LayerCount: 2
Fore
SplineSet
118 600 m 1
 166 600 l 1
 166 451 l 1
 118 451 l 1
 118 600 l 1
50 600 m 1
 98 600 l 1
 98 451 l 1
 50 451 l 1
 50 600 l 1
798 600 m 1
 846 600 l 1
 846 451 l 1
 798 451 l 1
 798 600 l 1
730 600 m 1
 778 600 l 1
 778 451 l 1
 730 451 l 1
 730 600 l 1
730 150 m 1
 778 150 l 1
 778 0 l 1
 730 0 l 1
 730 150 l 1
798 150 m 1
 846 150 l 1
 846 0 l 1
 798 0 l 1
 798 150 l 1
50 150 m 1
 98 150 l 1
 98 0 l 1
 50 0 l 1
 50 150 l 1
118 150 m 1
 166 150 l 1
 166 0 l 1
 118 0 l 1
 118 150 l 1
279 600 m 1
 375 469 l 1
 375 599 l 1
 424 599 l 1
 424 402 l 1
 449 368 l 1
 475 402 l 1
 475 599 l 1
 524 599 l 1
 524 470 l 1
 619 600 l 1
 698 600 l 1
 524 337 l 1
 524 262 l 1
 698 0 l 1
 619 0 l 1
 524 133 l 1
 524 0 l 1
 475 0 l 1
 475 202 l 1
 449 238 l 1
 424 202 l 1
 424 0 l 1
 375 0 l 1
 375 134 l 1
 279 0 l 1
 200 0 l 1
 375 263 l 1
 375 337 l 1
 200 600 l 1
 279 600 l 1
EndSplineSet
Validated: 1
EndChar

StartChar: unie090
Encoding: 399 57488 143
Width: 736
VWidth: 0
Flags: W
HStem: 0 21G<50 107.5 119 212.328 294 343 394 443 523.714 618 628.5 686>
VStem: 112 37<159.691 430.924> 294 49<0 134 470 599> 394 49<0 133 470 599> 587 37<159.691 430.924>
LayerCount: 2
Fore
SplineSet
50 599 m 1
 87 599 l 1
 88 594 92 584 97 567 c 0
 102 550 106 539 108 532 c 0
 110 525 113 514 118 498 c 0
 123 482 126 469 128 460 c 0
 131 446 131 446 136 424 c 0
 139 409 142 396 143 385 c 0
 144 374 146 362 147 348 c 0
 148 334 149 321 149 308 c 2
 149 300 l 1
 149 285 l 2
 149 207 128 112 87 0 c 1
 50 0 l 1
 55 17 61 41 70 72 c 0
 79 103 86 128 91 146 c 0
 96 164 100 188 104 216 c 0
 108 244 111 272 112 300 c 1
 111 322 109 348 104 378 c 0
 99 408 94 431 89 450 c 0
 84 469 78 497 68 532 c 0
 58 567 52 590 50 599 c 1
686 599 m 1
 684 590 678 567 668 532 c 0
 658 497 652 469 647 450 c 0
 642 431 637 408 632 378 c 0
 627 348 625 322 624 300 c 1
 625 272 628 244 632 216 c 0
 636 188 640 164 645 146 c 0
 650 128 657 103 666 72 c 0
 675 41 681 17 686 0 c 1
 649 0 l 1
 608 112 587 207 587 285 c 2
 587 300 l 1
 587 308 l 2
 587 323 587 338 588 352 c 0
 589 366 592 381 595 398 c 0
 598 415 601 428 603 438 c 0
 605 448 609 464 614 483 c 0
 619 502 622 515 624 521 c 0
 626 527 631 541 638 563 c 0
 645 585 648 597 649 599 c 1
 686 599 l 1
198 600 m 1
 294 470 l 1
 294 599 l 1
 343 599 l 1
 343 402 l 1
 368 368 l 1
 394 403 l 1
 394 599 l 1
 443 599 l 1
 443 470 l 1
 538 600 l 1
 618 600 l 1
 443 338 l 1
 443 263 l 1
 618 0 l 1
 538 0 l 1
 443 133 l 1
 443 0 l 1
 394 0 l 1
 394 202 l 1
 368 238 l 1
 343 203 l 1
 343 0 l 1
 294 0 l 1
 294 134 l 1
 198 0 l 1
 119 0 l 1
 294 263 l 1
 294 337 l 1
 119 600 l 1
 198 600 l 1
EndSplineSet
Validated: 1
EndChar

StartChar: unie091
Encoding: 400 57489 144
Width: 700
VWidth: 0
Flags: W
HStem: 1 21G<101 194.286 275 325 375 425 505.714 599> 231 150<50 120 190 247 345 355 453 510 580 650> 341 40<120 190 510 580>
VStem: 50 70<231 341> 190 60<231 341> 275 50<0 134 470 600> 375 50<0 134 471 600> 450 60<231 341> 580 70<231 341>
LayerCount: 2
Fore
SplineSet
180 600 m 1xdf80
 275 470 l 1
 275 600 l 1
 325 600 l 1
 325 403 l 1
 341 381 l 1
 359 381 l 1xbf80
 375 403 l 1
 375 600 l 1
 425 600 l 1
 425 471 l 1
 520 600 l 1
 599 600 l 1
 453 381 l 1
 650 381 l 1
 650 231 l 1
 580 231 l 1xdf80
 580 341 l 1
 510 341 l 1xbf80
 510 231 l 1
 450 231 l 1xdf80
 450 341 l 1
 427 341 l 1xbf80
 425 338 l 1
 425 263 l 1
 599 1 l 1
 520 1 l 1
 425 134 l 1
 425 0 l 1
 375 0 l 1
 375 203 l 1
 355 231 l 1
 345 231 l 1xdf80
 325 203 l 1
 325 0 l 1
 275 0 l 1
 275 134 l 1
 180 1 l 1
 101 1 l 1
 275 264 l 1
 275 337 l 1
 273 341 l 1
 250 341 l 1xbf80
 250 231 l 1
 190 231 l 1xdf80
 190 341 l 1
 120 341 l 1xbf80
 120 231 l 1
 50 231 l 1
 50 381 l 1
 247 381 l 1
 101 600 l 1
 180 600 l 1xdf80
EndSplineSet
Validated: 1
EndChar

StartChar: unie092
Encoding: 401 57490 145
Width: 600
VWidth: 0
Flags: W
HStem: 0 35<113.921 161.5 437.5 486.417> 99 32<69.5 117.837 483.362 529.5> 369 31<71.5 117.671 481.525 530.5> 464 35<113.346 163 438.5 486.005>
VStem: 50 35<63.2186 112.5 388.5 433.866> 149 32<20.5 66.9427 431.305 480> 419 32<19.5 66.6353 433.092 478.5> 515 34<62.7536 111.5 386.5 436.197>
LayerCount: 2
Fore
SplineSet
89 403 m 0
 91 401 94 400 97 400 c 0
 107 400 118 406 131 419 c 0
 143 431 149 442 149 453 c 0
 149 456 148 459 146 461 c 0
 144 463 141 464 138 464 c 0
 128 464 117 458 104 445 c 0
 92 433 86 422 86 411 c 0
 86 408 87 405 89 403 c 0
454 38 m 0
 456 36 459 35 462 35 c 0
 473 35 485 41 497 53 c 0
 509 65 515 77 515 88 c 0
 515 91 514 94 512 96 c 0
 510 98 507 99 504 99 c 0
 494 99 483 93 470 80 c 0
 457 67 451 56 451 46 c 0
 451 43 452 40 454 38 c 0
455 462 m 0
 453 460 452 457 452 454 c 0
 452 443 458 432 471 419 c 0
 483 407 494 401 505 401 c 0
 508 401 511 402 513 404 c 0
 515 406 516 409 516 412 c 0
 516 422 510 433 497 446 c 0
 484 459 473 465 463 465 c 0
 460 465 457 464 455 462 c 0
88 94 m 0
 86 92 85 89 85 86 c 0
 85 75 91 64 104 51 c 0
 116 39 127 33 138 33 c 0
 141 33 144 34 146 36 c 0
 148 38 149 41 149 44 c 0
 149 54 143 65 130 78 c 0
 117 91 106 97 96 97 c 0
 93 97 90 96 88 94 c 0
159 499 m 0
 167 499 173 497 176 494 c 0
 180 490 182 484 182 476 c 0
 182 459 173 440 156 419 c 1
 301 274 l 1
 445 419 l 1
 428 440 419 458 419 475 c 0
 419 482 421 488 425 492 c 0
 429 496 435 498 442 498 c 0
 463 498 487 485 512 460 c 0
 537 435 550 411 550 390 c 0
 550 383 548 377 544 373 c 0
 540 369 534 367 527 367 c 0
 510 367 491 376 470 393 c 1
 326 248 l 1
 469 104 l 1
 490 122 509 131 526 131 c 0
 533 131 539 129 543 125 c 0
 547 121 549 115 549 108 c 0
 549 87 537 64 512 39 c 0
 486 13 462 0 441 0 c 0
 434 0 429 2 425 6 c 0
 421 10 419 16 419 23 c 0
 419 40 427 58 444 79 c 1
 301 223 l 1
 157 78 l 1
 173 58 181 40 181 24 c 0
 181 17 179 11 175 7 c 0
 171 3 165 1 158 1 c 0
 137 1 113 14 88 39 c 0
 63 64 50 88 50 109 c 0
 50 116 52 122 56 126 c 0
 60 130 66 132 73 132 c 0
 90 132 110 123 132 104 c 1
 276 248 l 1
 131 394 l 1
 110 377 92 369 75 369 c 0
 68 369 62 371 58 375 c 0
 54 379 52 385 52 392 c 0
 52 413 65 436 90 461 c 1
 114 486 137 499 159 499 c 0
EndSplineSet
Validated: 1
EndChar

StartChar: unie093
Encoding: 402 57491 146
Width: 600
VWidth: 0
Flags: W
HStem: 1 19<267.343 336.555> 52 32<114.461 161.5 438.5 486.776> 148 35<70.5 118.71 482.563 529.5> 419 32<71.5 118.584 482.305 530.5> 515 35<114.075 162.5 439 485.956> 580 19<262.489 335.255>
VStem: 50 35<114.092 162.5 438.5 484.663> 149 32<71.5 117.943 481.312 530> 218 43<22.605 55.4822 544.18 578.265> 283 35<74.5085 256 342 525.491> 343 42<22.6658 55.4014 545.717 576.885> 419 33<70.5 118.429 482.224 528.5> 516 33<113.721 162 437.5 486.854>
LayerCount: 2
Fore
SplineSet
86 454 m 0
 88 452 91 451 94 451 c 0
 104 451 115 457 128 470 c 0
 141 483 147 494 147 504 c 0
 147 507 146 510 144 512 c 0
 142 514 139 515 136 515 c 0
 126 515 115 509 102 496 c 0
 89 483 83 472 83 462 c 0
 83 459 84 456 86 454 c 0
88 145 m 0
 86 143 85 140 85 137 c 0
 85 126 91 115 104 102 c 0
 116 90 127 84 138 84 c 0
 141 84 144 85 146 87 c 0
 148 89 149 92 149 95 c 0
 149 105 143 116 130 129 c 0
 117 142 106 148 96 148 c 0
 93 148 90 147 88 145 c 0
455 88 m 0
 457 86 460 85 463 85 c 0
 474 85 485 91 498 104 c 0
 510 116 516 127 516 138 c 0
 516 141 515 144 513 146 c 0
 511 148 508 149 505 149 c 0
 495 149 484 143 471 130 c 0
 458 117 452 106 452 96 c 0
 452 93 453 90 455 88 c 0
454 513 m 0
 452 511 451 508 451 505 c 0
 451 495 457 484 470 471 c 0
 482 459 493 453 504 453 c 0
 507 453 510 454 512 456 c 0
 514 458 515 461 515 464 c 0
 515 474 509 485 496 498 c 0
 484 510 473 516 462 516 c 0
 459 516 456 515 454 513 c 0
261 39 m 0
 261 34 265 30 273 26 c 0
 281 22 291 20 302 20 c 0
 313 20 323 22 331 26 c 0
 339 30 343 34 343 39 c 0
 343 44 339 48 331 52 c 0
 323 56 313 58 302 58 c 0
 291 58 281 56 273 52 c 0
 265 48 261 44 261 39 c 0
258 562 m 0
 258 557 262 552 270 548 c 0
 278 544 288 543 299 543 c 0
 310 543 320 544 328 548 c 0
 336 552 340 557 340 562 c 0
 340 567 336 572 328 575 c 0
 320 578 310 580 299 580 c 0
 288 580 278 578 270 575 c 0
 262 572 258 567 258 562 c 0
301 599 m 0
 324 599 344 595 360 588 c 0
 376 581 384 572 384 561 c 0
 384 552 378 543 366 536 c 0
 354 529 337 525 318 523 c 1
 318 342 l 1
 445 469 l 1
 428 490 419 508 419 525 c 0
 419 532 421 538 425 542 c 0
 429 546 435 548 443 548 c 0
 464 548 487 536 512 511 c 0
 537 486 550 462 550 441 c 0
 550 434 548 428 544 424 c 0
 540 420 534 418 527 418 c 0
 510 418 491 427 470 444 c 1
 326 299 l 1
 469 155 l 1
 490 173 509 182 526 182 c 0
 533 182 539 180 543 176 c 0
 547 172 549 166 549 158 c 0
 549 137 537 114 512 89 c 0
 487 64 463 51 442 51 c 0
 435 51 429 53 425 57 c 0
 421 61 419 67 419 74 c 0
 419 91 427 109 444 130 c 1
 318 256 l 1
 318 77 l 1
 337 75 353 71 366 64 c 0
 379 57 385 48 385 39 c 0
 385 28 376 19 360 12 c 0
 344 5 325 1 302 1 c 0
 279 1 258 5 242 12 c 0
 226 19 218 28 218 39 c 0
 218 48 224 56 236 63 c 0
 248 70 264 75 283 77 c 1
 283 256 l 1
 157 129 l 1
 173 109 181 91 181 75 c 0
 181 68 179 62 175 58 c 0
 171 54 165 52 158 52 c 0
 137 52 113 65 88 90 c 0
 63 115 50 138 50 159 c 0
 50 166 52 172 56 176 c 0
 61 181 67 183 74 183 c 0
 92 183 111 174 132 155 c 1
 276 299 l 1
 131 444 l 1
 110 427 92 419 75 419 c 0
 68 419 62 421 58 425 c 0
 54 429 52 435 52 442 c 0
 52 463 65 487 90 512 c 0
 115 537 138 550 159 550 c 0
 166 550 172 548 176 544 c 0
 180 540 182 534 182 526 c 0
 182 509 173 490 156 469 c 1
 283 342 l 1
 283 523 l 1
 264 525 248 530 236 537 c 0
 224 544 217 552 217 561 c 0
 217 572 226 581 242 588 c 0
 258 595 278 599 301 599 c 0
EndSplineSet
Validated: 1
EndChar

StartChar: unie094
Encoding: 403 57492 147
Width: 698
VWidth: 0
Flags: W
HStem: 1 64<50 317> 268 64<114 317 381 584> 535 64<381 648>
VStem: 50 64<332 599> 317 64<65 268 332 535> 584 64<1 268>
CounterMasks: 1 fc
LayerCount: 2
Fore
SplineSet
50 599 m 1
 114 599 l 1
 114 332 l 1
 317 332 l 1
 317 599 l 1
 648 599 l 1
 648 535 l 1
 381 535 l 1
 381 332 l 1
 648 332 l 1
 648 1 l 1
 584 1 l 1
 584 268 l 1
 381 268 l 1
 381 1 l 1
 50 1 l 1
 50 65 l 1
 317 65 l 1
 317 268 l 1
 50 268 l 1
 50 599 l 1
EndSplineSet
Validated: 1
EndChar

StartChar: unie095
Encoding: 404 57493 148
Width: 600
VWidth: 0
Flags: W
HStem: 0 21G<50 136.667 190 255 345 410 463.333 550>
VStem: 270 60<228.125 371.875>
LayerCount: 2
Fore
SplineSet
470 600 m 1
 550 600 l 1
 450 300 l 1
 550 0 l 1
 470 0 l 1
 370 300 l 1
 470 600 l 1
190 600 m 1
 250 600 l 1
 300 400 l 1
 350 600 l 1
 410 600 l 1
 330 350 l 1
 330 250 l 1
 410 0 l 1
 350 0 l 1
 300 200 l 1
 250 0 l 1
 190 0 l 1
 270 250 l 1
 270 350 l 1
 190 600 l 1
50 600 m 1
 130 600 l 1
 230 300 l 1
 130 0 l 1
 50 0 l 1
 150 300 l 1
 50 600 l 1
EndSplineSet
Validated: 1
EndChar

StartChar: unie096
Encoding: 405 57494 149
Width: 548
VWidth: 0
Flags: W
HStem: 0 50<125 190 360 425> 550 50<125 190 360 425>
LayerCount: 2
Fore
SplineSet
50 600 m 1
 209 600 l 1
 275 454 l 1
 339 600 l 1
 498 600 l 1
 349 300 l 1
 498 0 l 1
 339 0 l 1
 275 148 l 1
 209 0 l 1
 50 0 l 1
 149 196 199 296 199 300 c 1
 50 600 l 1
125 550 m 1
 250 301 l 1
 125 50 l 1
 190 50 l 1
 275 218 l 1
 360 50 l 1
 425 50 l 1
 305 300 l 1
 425 550 l 1
 360 550 l 1
 275 384 l 1
 190 551 l 1
 125 550 l 1
EndSplineSet
Validated: 1
EndChar

StartChar: unie097
Encoding: 406 57495 150
Width: 551
VWidth: 0
Flags: W
HStem: 0 42<112 166 308 362> 459 41<112 167 308 321 355 362> 481 25<276 282 432 476>
LayerCount: 2
Fore
SplineSet
167 459 m 1xc0
 112 459 l 1
 216 251 l 1
 112 42 l 1
 166 42 l 1
 237 181 l 1
 308 42 l 1
 362 42 l 1
 263 250 l 1
 362 459 l 1
 308 459 l 1
 237 320 l 1
 167 459 l 1xc0
449 599 m 1
 432 506 l 1
 476 506 l 1xa0
 449 599 l 1
304 599 m 1
 276 506 l 1
 321 506 l 1
 304 599 l 1
377 606 m 1
 355 505 l 1
 398 505 l 1
 377 606 l 1
377 680 m 1
 416 519 l 1
 448 672 l 1
 501 481 l 1
 414 481 l 1xa0
 299 250 l 1
 423 0 l 1
 290 0 l 1
 237 123 l 1
 183 0 l 1
 50 0 l 1
 133 163 174 247 174 250 c 1
 50 500 l 1
 183 500 l 1xc0
 237 378 l 1
 282 481 l 1
 252 481 l 1
 305 672 l 1
 337 513 l 1
 377 680 l 1
EndSplineSet
Validated: 1
EndChar

StartChar: unie098
Encoding: 407 57496 151
Width: 698
VWidth: 0
Flags: W
HStem: 0 50<123 187 354 417> 0 39<466.375 489> 551 49<123 187 354 417>
VStem: 453 39<359.746 464> 525 52<41.3993 264> 531 39<64 277.242 319 464> 607 41<353.936 464>
LayerCount: 2
Fore
SplineSet
50 600 m 1x7a
 206 600 l 1
 270 454 l 1
 333 600 l 1
 489 600 l 1
 343 300 l 1
 466 48 l 1
 474 42 482 39 490 39 c 0
 493 39 498 40 503 41 c 0
 508 43 514 46 518 52 c 0
 522 58 524 63 525 67 c 2x7a
 531 264 l 1
 518 271 507 281 498 293 c 0
 489 305 482 316 477 326 c 0
 472 336 468 351 464 371 c 0
 460 391 459 405 458 414 c 0
 457 423 455 440 453 464 c 1
 492 464 l 1
 496 399 509 351 531 319 c 1
 531 464 l 1
 570 464 l 1
 570 319 l 1
 590 348 602 397 607 464 c 1
 648 464 l 1
 642 397 634 352 624 328 c 0
 612 300 594 279 570 264 c 1x76
 577 64 l 1
 576 59 572 50 566 40 c 0
 560 30 554 23 549 20 c 0
 534 10 514 4 489 1 c 1
 489 0 l 1
 333 0 l 1
 270 148 l 1
 206 0 l 1
 50 0 l 1
 147 196 196 296 196 300 c 1
 50 600 l 1x7a
187 551 m 1
 123 551 l 1
 246 301 l 1
 123 50 l 1
 187 50 l 1
 270 217 l 1
 354 50 l 1
 417 50 l 1xb2
 300 300 l 1
 417 551 l 1
 354 551 l 1
 270 384 l 1
 187 551 l 1
EndSplineSet
Validated: 1
EndChar

StartChar: unie099
Encoding: 408 57497 152
Width: 298
VWidth: 0
Flags: W
HStem: 0 21G<119 179>
VStem: 119 60<0 235>
LayerCount: 2
Fore
SplineSet
119 235 m 1
 179 235 l 1
 179 0 l 1
 119 0 l 1
 119 235 l 1
50 284 m 1
 149 598 l 1
 248 284 l 1
 199 284 l 1
 149 432 l 1
 99 284 l 1
 50 284 l 1
EndSplineSet
Validated: 1
EndChar

StartChar: unie09a
Encoding: 409 57498 153
Width: 298
VWidth: 0
Flags: W
HStem: 0 21G<115 183> 513 87<116.722 181.761>
VStem: 50 49<354.395 496.285> 115 68<0 280.72> 199 49<354.135 497.224>
CounterMasks: 1 38
LayerCount: 2
Fore
SplineSet
149 338 m 0
 162 338 174 347 184 364 c 0
 194 381 199 402 199 426 c 0
 199 450 194 471 184 488 c 0
 174 505 162 513 149 513 c 0
 136 513 124 504 114 487 c 0
 104 470 99 449 99 425 c 0
 99 401 104 381 114 364 c 0
 124 347 136 338 149 338 c 0
149 600 m 0
 176 600 200 583 219 549 c 0
 238 515 248 474 248 426 c 0
 248 389 242 355 230 325 c 0
 218 295 202 274 183 262 c 1
 183 0 l 1
 115 0 l 1
 115 262 l 1
 96 274 80 294 68 324 c 0
 56 354 50 388 50 425 c 0
 50 473 60 514 79 548 c 0
 98 582 122 600 149 600 c 0
EndSplineSet
Validated: 1
EndChar

StartChar: unie09b
Encoding: 410 57499 154
Width: 298
VWidth: 0
Flags: W
HStem: 0 21G<120 178>
VStem: 120 58<0 344>
LayerCount: 2
Fore
SplineSet
149 598 m 1
 248 284 l 1
 199 284 l 1
 178 344 l 1
 178 0 l 1
 120 0 l 1
 120 344 l 1
 99 284 l 1
 50 284 l 1
 149 598 l 1
EndSplineSet
Validated: 1
EndChar

StartChar: unie09c
Encoding: 411 57500 155
Width: 599
VWidth: 0
Flags: W
HStem: 0 21G<50 107.5 270 328 490.5 549>
VStem: 111 37<158.418 432.823> 270 58<0 344> 450 37<158.418 429.899>
CounterMasks: 1 70
LayerCount: 2
Fore
SplineSet
549 600 m 1
 547 591 542 569 532 533 c 0
 522 497 515 469 510 450 c 0
 505 431 501 408 496 378 c 0
 491 348 488 322 487 300 c 1
 488 272 490 244 494 216 c 0
 498 188 503 164 508 146 c 0
 513 128 519 103 528 72 c 0
 537 41 544 17 549 0 c 1
 511 0 l 1
 470 111 450 205 450 284 c 2
 450 300 l 1
 450 309 l 2
 450 320 450 332 451 343 c 0
 452 354 453 366 455 378 c 0
 457 390 459 402 460 411 c 0
 461 420 464 432 467 446 c 0
 472 467 472 468 474 478 c 0
 476 485 479 496 484 511 c 0
 489 526 492 536 493 540 c 0
 494 544 497 555 502 572 c 0
 507 589 510 598 511 600 c 1
 549 600 l 1
50 600 m 1
 87 600 l 1
 88 598 91 589 96 572 c 0
 101 555 104 544 105 540 c 0
 106 536 109 526 114 511 c 0
 119 496 122 485 124 478 c 0
 126 468 126 467 131 446 c 0
 134 432 137 420 138 411 c 0
 139 402 141 390 143 378 c 0
 145 366 146 354 147 343 c 0
 148 332 148 320 148 309 c 2
 148 300 l 1
 148 284 l 2
 148 205 128 111 87 0 c 1
 50 0 l 1
 54 17 61 40 70 72 c 0
 79 104 86 128 90 146 c 0
 94 164 100 188 104 216 c 0
 108 244 110 272 111 300 c 1
 110 322 107 348 102 378 c 0
 97 408 93 433 89 450 c 0
 85 467 78 495 68 534 c 0
 58 573 51 595 50 600 c 1
299 598 m 1
 398 284 l 1
 349 284 l 1
 328 344 l 1
 328 0 l 1
 270 0 l 1
 270 344 l 1
 249 284 l 1
 200 284 l 1
 299 598 l 1
EndSplineSet
Validated: 1
EndChar

StartChar: unie09d
Encoding: 412 57501 156
Width: 412
VWidth: 0
Flags: W
HStem: 0 21G<233 292>
VStem: 233 59<0 344>
LayerCount: 2
Fore
SplineSet
263 598 m 1
 362 284 l 1
 312 284 l 1
 292 344 l 1
 292 0 l 1
 233 0 l 1
 233 344 l 1
 213 284 l 1
 164 284 l 1
 233 503 l 1
 68 402 l 1
 50 431 l 1
 249 554 l 1
 263 598 l 1
EndSplineSet
Validated: 1
EndChar

StartChar: unie09e
Encoding: 413 57502 157
Width: 400
VWidth: 0
Flags: W
HStem: 1 21G<171 229>
VStem: 171 58<1 360>
LayerCount: 2
Fore
SplineSet
50 599 m 1
 130 599 l 1
 205 493 l 1
 270 599 l 1
 350 599 l 1
 250 450 l 1
 350 300 l 1
 270 300 l 1
 229 363 l 1
 229 1 l 1
 171 1 l 1
 171 360 l 1
 130 300 l 1
 50 300 l 1
 150 450 l 1
 50 599 l 1
EndSplineSet
Validated: 1
EndChar

StartChar: unie09f
Encoding: 414 57503 158
Width: 400
VWidth: 0
Flags: W
HStem: 0 21G<171 230>
VStem: 171 59<0 227 408 455>
LayerCount: 2
Fore
SplineSet
50 466 m 1
 130 466 l 1
 171 408 l 1
 171 455 l 1
 230 455 l 1
 230 400 l 1
 270 466 l 1
 350 466 l 1
 250 316 l 1
 350 167 l 1
 270 167 l 1
 230 229 l 1
 230 0 l 1
 171 0 l 1
 171 227 l 1
 130 167 l 1
 50 167 l 1
 150 316 l 1
 50 466 l 1
200 651 m 1
 350 501 l 1
 296 501 l 1
 200 592 l 1
 104 501 l 1
 51 501 l 1
 200 651 l 1
EndSplineSet
Validated: 1
EndChar

StartChar: unie0a0
Encoding: 415 57504 159
Width: 598
VWidth: 0
Flags: W
HStem: 1 21G<366 426>
VStem: 366 60<1 361>
LayerCount: 2
Fore
SplineSet
243 599 m 1
 325 599 l 1
 400 493 l 1
 467 599 l 1
 548 599 l 1
 446 450 l 1
 548 300 l 1
 467 300 l 1
 426 363 l 1
 426 1 l 1
 366 1 l 1
 366 361 l 1
 325 300 l 1
 243 300 l 1
 345 450 l 1
 260 574 l 1
 181 298 l 1
 50 373 l 1
 155 482 223 552 254 583 c 1
 243 599 l 1
210 518 m 1
 192 497 l 1
 217 483 l 1
 227 508 l 1
 210 518 l 1
178 479 m 1
 160 459 l 1
 199 436 l 1
 209 461 l 1
 178 479 l 1
145 441 m 1
 127 420 l 1
 182 389 l 1
 191 415 l 1
 145 441 l 1
112 403 m 1
 94 382 l 1
 164 342 l 1
 174 368 l 1
 112 403 l 1
EndSplineSet
Validated: 1
EndChar

StartChar: unie0a1
Encoding: 416 57505 160
Width: 475
VWidth: 0
Flags: W
HStem: 0 21G<200 275>
VStem: 200 75<0 350>
LayerCount: 2
Fore
SplineSet
50 600 m 1
 130 600 l 1
 238 426 l 1
 305 542 341 600 345 600 c 2
 425 600 l 1
 275 350 l 1
 275 0 l 1
 200 0 l 1
 200 350 l 1
 50 600 l 1
EndSplineSet
Validated: 1
EndChar

StartChar: unie0a2
Encoding: 417 57506 161
Width: 398
VWidth: 0
Flags: W
HStem: 0 21G<159 239>
VStem: 50 59<457.077 600> 159 80<0 210> 169 60<90 313.282 382 600> 285 63<464.737 600>
LayerCount: 2
Fore
SplineSet
50 600 m 1xd8
 109 600 l 1
 112 553 117 513 125 478 c 0
 133 443 148 411 169 382 c 1
 169 600 l 1
 229 600 l 1
 229 382 l 1
 258 424 276 497 285 600 c 1
 348 600 l 1
 340 513 331 454 320 422 c 0
 303 367 272 326 229 300 c 1xd8
 239 0 l 1
 159 0 l 1xe8
 169 300 l 1
 153 309 139 320 126 332 c 0
 113 344 103 359 95 377 c 0
 87 395 81 411 76 424 c 0
 71 437 66 457 62 482 c 0
 58 507 57 526 56 538 c 0
 55 550 53 571 50 600 c 1xd8
EndSplineSet
Validated: 1
EndChar

StartChar: unie0a3
Encoding: 418 57507 162
Width: 400
VWidth: 0
Flags: W
HStem: 0 21G<160 240>
VStem: 50 60<307.449 399> 160 80<0 140> 170 60<60 209.271 254 399> 286 58<308.878 399>
LayerCount: 2
Fore
SplineSet
200 600 m 1xc8
 349 450 l 1
 296 450 l 1
 200 541 l 1
 104 450 l 1
 51 450 l 1
 200 600 l 1xc8
50 399 m 1
 110 399 l 1
 115 334 135 286 170 254 c 1
 170 399 l 1
 230 399 l 1
 230 254 l 1
 259 282 277 330 286 399 c 1
 350 399 l 1
 347 378 345 364 344 359 c 0
 343 354 341 342 337 324 c 0
 333 306 329 292 324 284 c 0
 319 276 312 267 304 254 c 0
 296 241 286 230 274 222 c 0
 262 214 247 207 230 200 c 1xd8
 240 0 l 1
 160 0 l 1xe8
 170 200 l 1xd8
 154 206 140 213 127 221 c 0
 114 229 104 238 96 250 c 0
 88 262 81 273 76 282 c 0
 71 291 66 304 63 320 c 0
 60 336 58 349 56 358 c 0
 54 367 52 380 50 399 c 1
EndSplineSet
Validated: 1
EndChar

StartChar: unie0a4
Encoding: 419 57508 163
Width: 734
VWidth: 0
Flags: W
HStem: 0 150<50 98 119 166 568 615 636 684> 450 149<50 98 119 166 568 615 636 684>
VStem: 50 48<0 150 450 599> 119 47<0 150 450 599> 327 80<0 210> 337 60<90 313.217 382 599> 453 63<464.261 599> 568 47<0 150 450 600> 636 48<0 150 450 600>
LayerCount: 2
Fore
SplineSet
568 600 m 1xf380
 615 600 l 1
 615 450 l 1
 568 450 l 1
 568 600 l 1xf380
636 600 m 1
 684 600 l 1
 684 450 l 1
 636 450 l 1
 636 600 l 1
568 150 m 1
 615 150 l 1
 615 0 l 1
 568 0 l 1
 568 150 l 1
636 150 m 1
 684 150 l 1
 684 0 l 1
 636 0 l 1
 636 150 l 1
50 150 m 1
 98 150 l 1
 98 0 l 1
 50 0 l 1
 50 150 l 1
119 150 m 1
 166 150 l 1
 166 0 l 1
 119 0 l 1
 119 150 l 1
50 599 m 1
 98 599 l 1
 98 450 l 1
 50 450 l 1
 50 599 l 1
119 599 m 1
 166 599 l 1
 166 450 l 1
 119 450 l 1
 119 599 l 1
218 599 m 1
 277 599 l 1
 280 552 285 512 293 478 c 0
 301 444 316 411 337 382 c 1
 337 599 l 1
 397 599 l 1
 397 382 l 1
 426 424 444 496 453 599 c 1
 516 599 l 1
 508 512 499 453 488 421 c 0
 471 366 440 326 397 300 c 1xf780
 407 0 l 1
 327 0 l 1xfb80
 337 300 l 1xf780
 321 309 307 320 294 332 c 0
 281 344 271 359 263 377 c 0
 255 395 249 411 244 424 c 0
 239 437 234 457 230 482 c 0
 226 507 225 525 224 537 c 0
 223 549 221 570 218 599 c 1
EndSplineSet
Validated: 1
EndChar

StartChar: unie0a5
Encoding: 420 57509 164
Width: 700
VWidth: 0
Flags: W
HStem: 0 21G<310 390> 444 149<50 120 190 250 320 380 450 510 580 650> 444 40<120 190 250 320 380 450 510 580>
VStem: 50 70<484 593> 190 60<484 593> 310 80<0 200 266 400> 320 60<484 593> 450 60<484 593> 580 70<484 593>
LayerCount: 2
Fore
SplineSet
50 444 m 1xdb80
 50 593 l 1
 120 593 l 1xdb80
 120 484 l 1
 190 484 l 1xbb80
 190 593 l 1
 250 593 l 1xdb80
 250 484 l 1
 320 484 l 1xbb80
 320 593 l 1
 380 593 l 1xdb80
 380 484 l 1
 450 484 l 1xbb80
 450 593 l 1
 510 593 l 1xdb80
 510 484 l 1
 580 484 l 1xbb80
 580 593 l 1
 650 593 l 1
 650 444 l 1
 50 444 l 1xdb80
151 400 m 1
 230 400 l 1
 310 266 l 1
 310 400 l 1
 390 400 l 1
 390 266 l 1
 470 400 l 1
 549 400 l 1
 390 200 l 1
 390 0 l 1
 310 0 l 1
 310 200 l 1x9d80
 151 400 l 1
EndSplineSet
Validated: 1
EndChar

StartChar: unie0a6
Encoding: 421 57510 165
Width: 700
VWidth: 0
Flags: W
HStem: 0 150<50 120 190 250 450 510 580 650> 110 40<120 190 250 310 390 450 510 580>
VStem: 50 70<0 110> 190 60<0 110> 310 80<150 363 442 600> 320 60<0 110> 450 60<0 110> 580 70<0 110>
LayerCount: 2
Fore
SplineSet
151 600 m 1x7b
 230 600 l 1
 310 442 l 1
 310 600 l 1
 390 600 l 1
 390 442 l 1
 470 600 l 1
 549 600 l 1
 390 363 l 1
 390 150 l 1x7b
 650 150 l 1
 650 0 l 1
 580 0 l 1xbb
 580 110 l 1
 510 110 l 1x7b
 510 0 l 1
 450 0 l 1xbb
 450 110 l 1
 380 110 l 1x77
 380 0 l 1
 320 0 l 1xb7
 320 110 l 1
 250 110 l 1x77
 250 0 l 1
 190 0 l 1xb7
 190 110 l 1
 120 110 l 1x77
 120 0 l 1
 50 0 l 1
 50 150 l 1xb7
 310 150 l 1
 310 363 l 1
 151 600 l 1x7b
EndSplineSet
Validated: 1
EndChar

StartChar: unie0a7
Encoding: 422 57511 166
Width: 498
VWidth: 0
Flags: W
HStem: 0 21G<209 289>
VStem: 209 80<0 142 228 300 400 600>
LayerCount: 2
Fore
SplineSet
50 600 m 1
 129 600 l 1
 209 400 l 1
 209 600 l 1
 289 600 l 1
 289 400 l 1
 369 600 l 1
 448 600 l 1
 289 300 l 1
 289 228 l 1
 407 409 l 1
 446 384 l 1
 289 144 l 1
 289 0 l 1
 209 0 l 1
 209 142 l 1
 51 384 l 1
 90 409 l 1
 209 227 l 1
 209 300 l 1
 50 600 l 1
EndSplineSet
Validated: 1
EndChar

StartChar: unie0a8
Encoding: 423 57512 167
Width: 500
VWidth: 0
Flags: W
HStem: 0 21G<233 268>
VStem: 233 35<0 36 72 129 165 217 254 302 338 385 387 389 426 472 508 545>
LayerCount: 2
Fore
SplineSet
283 599 m 1
 293 577 l 1
 268 549 l 1
 268 508 l 1
 306 551 l 1
 316 529 l 1
 268 475 l 1
 268 426 l 1
 329 493 l 1
 339 471 l 1
 268 393 l 1
 268 384 l 1
 268 383 l 1
 268 338 l 1
 356 436 l 1
 365 413 l 1
 268 305 l 1
 268 254 l 1
 380 378 l 1
 389 356 l 1
 268 221 l 1
 268 165 l 1
 408 320 l 1
 417 298 l 1
 268 132 l 1
 268 72 l 1
 440 263 l 1
 450 241 l 1
 268 39 l 1
 268 0 l 1
 233 0 l 1
 233 36 l 1
 50 238 l 1
 60 259 l 1
 233 68 l 1
 233 129 l 1
 83 295 l 1
 92 317 l 1
 233 162 l 1
 233 217 l 1
 111 353 l 1
 120 375 l 1
 233 250 l 1
 233 302 l 1
 135 410 l 1
 144 433 l 1
 233 335 l 1
 233 385 l 1
 232 386 l 1
 233 387 l 1
 233 389 l 1
 161 468 l 1
 171 490 l 1
 233 422 l 1
 233 472 l 1
 184 526 l 1
 194 548 l 1
 233 505 l 1
 233 545 l 1
 207 574 l 1
 217 596 l 1
 248 562 l 1
 249 562 l 1
 283 599 l 1
EndSplineSet
Validated: 1
EndChar

StartChar: unie0a9
Encoding: 424 57513 168
Width: 498
VWidth: 0
Flags: W
HStem: 1 21G<194 304>
LayerCount: 2
Fore
SplineSet
50 431 m 1
 97 459 l 1
 232 309 l 1
 255 338 l 1
 133 482 l 1
 172 506 l 1
 285 376 l 1
 313 415 l 1
 209 528 l 1
 249 552 l 1
 342 453 l 1
 368 490 l 1
 288 573 l 1
 331 599 l 1
 448 478 l 1
 283 247 l 1
 304 1 l 1
 194 1 l 1
 213 247 l 1
 50 431 l 1
EndSplineSet
Validated: 1
EndChar

StartChar: unie0aa
Encoding: 425 57514 169
Width: 398
VWidth: 0
Flags: W
HStem: 1 21G<50 82> 283 48<248 348> 283 39<83 212> 372 48<248 348> 462 48<248 348> 551 48<248 348> 564 35<83 212>
VStem: 50 32<1 283 322 564> 212 136<322 331 372 420 462 510 551 564> 212 36<331 372 420 462 510 551>
LayerCount: 2
Fore
SplineSet
83 564 m 1xbb80
 83 322 l 1
 212 322 l 1
 212 564 l 1
 83 564 l 1xbb80
243 599 m 1
 348 599 l 1
 348 551 l 1x9d80
 248 551 l 1
 248 510 l 1x9d40
 348 510 l 1
 348 462 l 1x9d80
 248 462 l 1
 248 420 l 1x9d40
 348 420 l 1
 348 372 l 1x9d80
 248 372 l 1
 248 331 l 1xdd40
 348 331 l 1
 348 283 l 1xdd80
 248 283 l 1xdd40
 82 283 l 1
 82 1 l 1
 50 1 l 1
 50 283 l 1
 50 288 l 1
 50 599 l 1
 243 599 l 1
EndSplineSet
Validated: 1
EndChar

StartChar: unie0ab
Encoding: 426 57515 170
Width: 458
VWidth: 0
Flags: W
HStem: 1 21G<205 253> 452 147<50 91 133 169 289 325 367 408> 452 39<91 133 169 205 253 289 325 367>
VStem: 50 41<491 599> 133 36<491 599> 205 48<1 452 491 599> 289 36<491 599> 367 41<491 599>
LayerCount: 2
Fore
SplineSet
50 599 m 1xdf
 91 599 l 1xdf
 91 491 l 1
 133 491 l 1xbf
 133 599 l 1
 169 599 l 1xdf
 169 491 l 1
 211 491 l 1xbf
 211 599 l 1
 247 599 l 1xdf
 247 491 l 1
 289 491 l 1xbf
 289 599 l 1
 325 599 l 1xdf
 325 491 l 1
 367 491 l 1xbf
 367 599 l 1
 408 599 l 1
 408 452 l 1xdf
 253 452 l 1
 253 1 l 1
 205 1 l 1
 205 452 l 1xbf
 50 452 l 1
 50 599 l 1xdf
EndSplineSet
Validated: 1
EndChar

StartChar: unie0ac
Encoding: 427 57516 171
Width: 448
VWidth: 0
Flags: W
HStem: 0 21G<191 257> 132 148<50 90 131 166 282 317 358 398> 132 40<90 131 166 191 257 282 317 358> 320 148<50 90 131 166 282 317 358 398> 428 40<90 131 166 191 257 282 317 358>
VStem: 50 40<172 280 320 428> 131 35<172 280 320 428> 191 66<0 132 468 599> 207 34<172 280 320 428> 282 35<172 280 320 428> 358 40<172 280 320 428>
LayerCount: 2
Fore
SplineSet
50 280 m 1xc760
 90 280 l 1xc760
 90 172 l 1
 131 172 l 1xa760
 131 280 l 1
 166 280 l 1xc760
 166 172 l 1
 207 172 l 1xa6e0
 207 280 l 1
 241 280 l 1xc6e0
 241 172 l 1
 282 172 l 1xa6e0
 282 280 l 1
 317 280 l 1xc6e0
 317 172 l 1
 358 172 l 1xa6e0
 358 280 l 1
 398 280 l 1
 398 132 l 1xc6e0
 257 132 l 1
 257 0 l 1
 191 0 l 1
 191 132 l 1xa760
 50 132 l 1
 50 280 l 1xc760
191 599 m 1
 257 599 l 1
 257 468 l 1x8f60
 398 468 l 1
 398 320 l 1
 358 320 l 1x9760
 358 428 l 1
 317 428 l 1x8f60
 317 320 l 1
 282 320 l 1x9760
 282 428 l 1
 241 428 l 1x8ee0
 241 320 l 1
 207 320 l 1x96e0
 207 428 l 1
 166 428 l 1x8ee0
 166 320 l 1
 131 320 l 1x96e0
 131 428 l 1
 90 428 l 1x8ee0
 90 320 l 1
 50 320 l 1
 50 468 l 1x96e0
 191 468 l 1x8f60
 191 599 l 1
EndSplineSet
Validated: 1
EndChar

StartChar: unie0ad
Encoding: 428 57517 172
Width: 398
VWidth: 0
Flags: W
HStem: 0 21G<180 218> 285 124<50 85 120 150 249 278 313 348> 285 33<85 120 150 180 218 249 278 313> 475 124<50 85 120 150 249 278 313 348> 475 33<85 120 150 180 218 249 278 313>
VStem: 50 35<318 409 508 599> 120 30<318 409 508 599> 180 38<0 285 318 475 508 599> 249 29<318 409 508 599> 313 35<318 409 508 599>
LayerCount: 2
Fore
SplineSet
50 599 m 1x97c0
 85 599 l 1x97c0
 85 508 l 1
 120 508 l 1x8fc0
 120 599 l 1
 150 599 l 1x97c0
 150 508 l 1
 184 508 l 1x8fc0
 184 599 l 1
 214 599 l 1x97c0
 214 508 l 1
 249 508 l 1x8fc0
 249 599 l 1
 278 599 l 1x97c0
 278 508 l 1
 313 508 l 1x8fc0
 313 599 l 1
 348 599 l 1
 348 475 l 1x97c0
 218 475 l 1
 218 318 l 1
 249 318 l 1xafc0
 249 409 l 1
 278 409 l 1xc7c0
 278 318 l 1
 313 318 l 1xa7c0
 313 409 l 1
 348 409 l 1
 348 285 l 1xc7c0
 218 285 l 1
 218 0 l 1
 180 0 l 1
 180 285 l 1xa7c0
 50 285 l 1
 50 409 l 1
 85 409 l 1xc7c0
 85 318 l 1
 120 318 l 1xa7c0
 120 409 l 1
 150 409 l 1xc7c0
 150 318 l 1
 180 318 l 1
 180 475 l 1xafc0
 50 475 l 1
 50 599 l 1x97c0
EndSplineSet
Validated: 1
EndChar

StartChar: unie0ae
Encoding: 429 57518 173
Width: 599
VWidth: 0
Flags: W
HStem: 0 21G<201 276 324 399> 314 90<50 114 171 201 276 322 399 429 486 549>
VStem: 114 57<404 599> 201 75<0 314> 219 56<404 599> 322 56<404 599> 324 75<0 314> 429 57<404 599>
LayerCount: 2
Fore
SplineSet
114 599 m 1xf3
 171 599 l 1
 171 404 l 1
 219 404 l 1
 219 599 l 1
 275 599 l 1
 275 404 l 1
 322 404 l 1
 322 599 l 1
 378 599 l 1
 378 404 l 1xed
 429 404 l 1
 429 599 l 1
 486 599 l 1
 486 404 l 1
 549 404 l 1
 549 314 l 1
 399 314 l 1
 399 0 l 1
 324 0 l 1
 324 314 l 1
 276 314 l 1
 276 0 l 1
 201 0 l 1
 201 314 l 1
 50 314 l 1
 50 404 l 1
 114 404 l 1
 114 599 l 1xf3
EndSplineSet
Validated: 1
EndChar

StartChar: unie0af
Encoding: 430 57519 174
Width: 398
VWidth: 0
Flags: W
HStem: 1 77<162.312 235.38> 352 43<50 123 275 348>
VStem: 70 50<425.458 599> 95 42<106.572 276.581> 171 56<395 599> 261 42<107.564 276.663> 278 50<425.458 599>
LayerCount: 2
Fore
SplineSet
70 599 m 1xe8
 120 599 l 1
 120 492 l 2
 120 465 125 441 136 421 c 0
 144 406 153 398 163 395 c 1
 171 395 l 1
 171 599 l 1
 227 599 l 1
 227 395 l 1
 235 395 l 1
 245 398 254 406 262 421 c 0
 273 441 278 465 278 492 c 2
 278 599 l 1
 328 599 l 1
 328 495 l 2xea
 328 463 317 435 296 412 c 0
 293 409 286 403 275 395 c 1
 348 395 l 1
 348 352 l 1
 255 352 l 1
 287 315 303 261 303 192 c 0
 303 139 292 94 272 57 c 0
 252 20 228 1 199 1 c 0
 170 1 146 19 126 56 c 0
 106 93 95 138 95 191 c 0xdc
 95 261 111 315 143 352 c 1
 50 352 l 1
 50 395 l 1
 123 395 l 1
 112 403 105 409 102 412 c 0
 81 435 70 463 70 495 c 2
 70 599 l 1xe8
199 78 m 0
 216 78 231 90 243 112 c 0
 255 134 261 161 261 192 c 0
 261 223 255 250 243 272 c 0
 231 294 216 305 199 305 c 0
 182 305 167 294 155 272 c 0
 143 250 137 222 137 191 c 0xdc
 137 160 143 133 155 111 c 0
 167 89 182 78 199 78 c 0
EndSplineSet
Validated: 1
EndChar

StartChar: unie0b0
Encoding: 431 57520 175
Width: 400
VWidth: 0
Flags: W
HStem: 1 70<130 350> 141 60<130 350> 271 60<130 350> 401 60<130 350> 531 70<130 350>
VStem: 50 300<1 71 141 201 271 331 401 461 531 601> 50 80<71 141 201 271 331 401 461 531>
LayerCount: 2
Fore
SplineSet
50 601 m 1xfc
 350 601 l 1
 350 531 l 1xfc
 130 531 l 1
 130 461 l 1xfa
 350 461 l 1
 350 401 l 1xfc
 130 401 l 1
 130 331 l 1xfa
 350 331 l 1
 350 271 l 1xfc
 130 271 l 1
 130 201 l 1xfa
 350 201 l 1
 350 141 l 1xfc
 130 141 l 1
 130 71 l 1xfa
 350 71 l 1
 350 1 l 1
 50 1 l 1
 50 601 l 1xfc
EndSplineSet
Validated: 1
EndChar

StartChar: unie0b1
Encoding: 432 57521 176
Width: 400
VWidth: 0
Flags: W
HStem: 0 21G<158 238> 76 49<50 158 238 350> 176 49<50 158 238 350> 276 49<50 158 238 350> 376 49<50 158 238 350> 476 49<50 158 238 350>
VStem: 50 300<76 125 176 225 276 325 376 425 476 525> 158 80<0 76 125 176 225 276 325 376 425 476 525 600>
LayerCount: 2
Fore
SplineSet
158 600 m 1xfd
 238 600 l 1
 238 525 l 1xfd
 350 525 l 1
 350 476 l 1xfe
 238 476 l 1
 238 425 l 1xfd
 350 425 l 1
 350 376 l 1xfe
 238 376 l 1
 238 325 l 1xfd
 350 325 l 1
 350 276 l 1xfe
 238 276 l 1
 238 225 l 1xfd
 350 225 l 1
 350 176 l 1xfe
 238 176 l 1
 238 125 l 1xfd
 350 125 l 1
 350 76 l 1xfe
 238 76 l 1
 238 0 l 1
 158 0 l 1
 158 76 l 1xfd
 50 76 l 1
 50 125 l 1xfe
 158 125 l 1
 158 176 l 1xfd
 50 176 l 1
 50 225 l 1xfe
 158 225 l 1
 158 276 l 1xfd
 50 276 l 1
 50 325 l 1xfe
 158 325 l 1
 158 376 l 1xfd
 50 376 l 1
 50 425 l 1xfe
 158 425 l 1
 158 476 l 1xfd
 50 476 l 1
 50 525 l 1xfe
 158 525 l 1
 158 600 l 1xfd
EndSplineSet
Validated: 1
EndChar

StartChar: unie0b2
Encoding: 433 57522 177
Width: 448
VWidth: 0
Flags: W
HStem: 0 21G<50 125.843> 229 36<174 256>
VStem: 50 72<0 27.2727>
LayerCount: 2
Fore
SplineSet
208 457 m 1
 174 265 l 1
 256 265 l 1
 208 457 l 1
50 0 m 1
 204 600 l 1
 308 188 l 1
 357 223 l 1
 398 107 l 1
 374 90 l 1
 347 165 l 1
 321 147 l 1
 347 71 l 1
 322 53 l 1
 295 129 l 1
 268 111 l 1
 295 35 l 1
 271 18 l 1
 231 134 l 1
 279 170 l 1
 265 230 l 1
 166 229 l 1
 122 0 l 1
 50 0 l 1
EndSplineSet
Validated: 1
EndChar

StartChar: unie0b3
Encoding: 434 57523 178
Width: 699
VWidth: 0
Flags: W
HStem: 1 149<50 98 119 168 530 579 600 649> 229 38<328 412> 450 150<50 98 119 168 530 579 600 649>
VStem: 50 48<1 150 450 600> 119 49<1 150 450 600> 202 74<1 27.707> 530 49<1 150 450 600> 600 49<1 150 450 600>
LayerCount: 2
Fore
SplineSet
359 600 m 1
 452 239 l 1
 458 212 l 1
 463 195 l 1
 497 59 l 1
 460 59 l 1
 430 193 l 1
 421 230 l 1
 321 229 l 1
 276 1 l 1
 202 1 l 1
 359 600 l 1
363 458 m 1
 328 267 l 1
 412 266 l 1
 363 458 l 1
530 150 m 1
 579 150 l 1
 579 1 l 1
 530 1 l 1
 530 150 l 1
600 150 m 1
 649 150 l 1
 649 1 l 1
 600 1 l 1
 600 150 l 1
530 600 m 1
 579 600 l 1
 579 450 l 1
 530 450 l 1
 530 600 l 1
600 600 m 1
 649 600 l 1
 649 450 l 1
 600 450 l 1
 600 600 l 1
50 150 m 1
 98 150 l 1
 98 1 l 1
 50 1 l 1
 50 150 l 1
119 150 m 1
 168 150 l 1
 168 1 l 1
 119 1 l 1
 119 150 l 1
50 600 m 1
 98 600 l 1
 98 450 l 1
 50 450 l 1
 50 600 l 1
119 600 m 1
 168 600 l 1
 168 450 l 1
 119 450 l 1
 119 600 l 1
EndSplineSet
Validated: 1
EndChar

StartChar: unie0b4
Encoding: 435 57524 179
Width: 398
VWidth: 0
Flags: W
HStem: 1 21G<112.848 159.667>
VStem: 204 26<509.129 514>
LayerCount: 2
Fore
SplineSet
239 61 m 1
 204 44 l 1
 107 208 l 1
 93 203 l 1
 168 25 l 1
 118 1 l 1
 50 265 l 1
 151 599 l 1
 315 517 l 1
 227 288 l 1
 348 116 l 1
 319 102 l 1
 214 237 l 1
 198 233 l 1
 294 89 l 1
 265 74 l 1
 119 310 l 1
 204 527 l 1
 177 541 l 1
 91 304 l 1
 239 61 l 1
230 514 m 1
 169 289 l 1
 194 289 l 1
 263 497 l 1
 230 514 l 1
EndSplineSet
Validated: 1
EndChar

StartChar: unie0b5
Encoding: 436 57525 180
Width: 500
VWidth: 0
Flags: W
HStem: 0 21G<89.1111 126>
VStem: 51 45<320 473>
LayerCount: 2
Fore
SplineSet
382 599 m 1
 450 487 l 1
 400 444 l 1
 369 500 l 1
 261 395 l 1
 369 291 l 1
 400 349 l 1
 449 306 l 1
 382 195 l 1
 217 354 l 1
 215 352 l 1
 217 350 l 1
 161 195 l 1
 239 78 l 1
 220 68 l 1
 153 161 l 1
 143 157 l 1
 204 60 l 1
 186 50 l 1
 92 210 l 1
 106 247 l 1
 83 225 l 1
 77 207 l 1
 171 41 l 1
 149 30 l 1
 87 141 l 1
 78 138 l 1
 126 17 l 1
 94 0 l 1
 50 180 l 1
 56 199 l 1
 51 195 l 1
 51 342 l 1
 51 598 l 1
 217 438 l 1
 382 599 l 1
96 473 m 1
 96 320 l 1
 175 396 l 1
 96 473 l 1
EndSplineSet
Validated: 1
EndChar

StartChar: unie0b6
Encoding: 437 57526 181
Width: 600
VWidth: 0
Flags: W
HStem: 1 19G<214 265 334 385> 233 48<187 214 265 334 385 410> 365 56<187 410>
VStem: 128 59<281 364.886> 214 51<1 233> 334 51<-1 233> 410 62<281 364.886>
LayerCount: 2
Fore
SplineSet
187 365 m 1
 187 281 l 1
 410 281 l 1
 410 365 l 1
 187 365 l 1
50 601 m 1
 110 601 l 1
 144 514 165 454 173 421 c 1
 427 421 l 1
 435 454 456 514 490 601 c 1
 550 601 l 1
 547 593 540 570 528 534 c 0
 516 498 506 471 500 452 c 0
 494 433 488 410 482 380 c 0
 476 350 473 324 472 302 c 1
 473 266 477 233 484 203 c 0
 491 173 502 136 518 92 c 0
 534 48 545 17 550 2 c 1
 490 2 l 1
 449 89 425 166 416 233 c 1
 385 233 l 1
 385 -1 l 1
 334 -1 l 1
 334 233 l 1
 265 233 l 1
 265 1 l 1
 214 1 l 1
 214 233 l 1
 184 233 l 1
 175 166 151 89 110 2 c 1
 50 2 l 1
 55 17 66 48 82 92 c 0
 98 136 109 173 116 203 c 0
 123 233 127 266 128 302 c 1
 127 324 124 350 118 380 c 0
 112 410 106 433 100 452 c 0
 94 471 84 498 72 534 c 0
 60 570 53 593 50 601 c 1
EndSplineSet
Validated: 1
EndChar

StartChar: unie0b7
Encoding: 438 57527 182
Width: 720
VWidth: 0
Flags: W
HStem: 1 20G<50 114 456 506> 233 48<309 336 387 456 506 531> 364 56<309 531>
VStem: 50 64<1 218 294 597> 250 59<281 356.017> 336 51<2 233> 456 50<0 233> 531 62<281 363.547>
LayerCount: 2
Fore
SplineSet
173 600 m 1
 232 600 l 1
 265 517 286 457 295 420 c 1
 548 420 l 1
 557 457 578 517 611 600 c 1
 670 600 l 1
 668 595 661 573 648 534 c 0
 635 495 625 467 620 450 c 0
 615 433 610 410 604 380 c 0
 598 350 594 324 593 302 c 1
 594 274 596 246 602 218 c 0
 608 190 614 166 620 148 c 0
 626 130 635 106 646 76 c 0
 657 46 665 22 670 4 c 1
 611 4 l 1
 570 91 546 168 537 233 c 1
 506 233 l 1
 506 0 l 1
 456 0 l 1
 456 233 l 1
 387 233 l 1
 387 2 l 1
 336 2 l 1
 336 233 l 1
 307 233 l 1
 299 170 274 93 232 4 c 1
 173 4 l 1
 178 22 187 46 198 76 c 0
 209 106 217 130 223 148 c 0
 229 166 234 190 240 218 c 0
 246 246 249 274 250 302 c 0
 250 317 248 336 245 357 c 1
 114 218 l 1
 114 1 l 1
 50 1 l 1
 50 597 l 1
 114 597 l 1
 114 294 l 1
 231 419 l 1
 228 432 208 492 173 600 c 1
309 364 m 1
 309 281 l 1
 531 281 l 1
 531 364 l 1
 309 364 l 1
EndSplineSet
Validated: 1
EndChar

StartChar: unie0b8
Encoding: 439 57528 183
Width: 649
VWidth: 0
Flags: W
HStem: 1 21G<137 187 237 278 388 426 481 530> 191 42<187 237 278 314 350 388 426 481> 298 48<187 237 278 314 350 388 426 481 530 531> 390 30<50 137> 455 30<50 150> 520 35<50 150>
VStem: 50 137<390 420 455 485 520 555> 137 50<1 191 233 298 346 390> 150 37<420 455 485 520> 237 41<1 191 233 298> 314 36<233 298> 388 38<1 191 233 298> 481 49<1 191 233 298 346 537>
LayerCount: 2
Fore
SplineSet
506 599 m 1xfd78
 599 502 l 1
 566 502 l 1
 530 537 l 1
 530 346 l 1
 531 346 l 1
 531 298 l 1
 530 298 l 1
 530 1 l 1
 481 1 l 1
 481 191 l 1
 426 191 l 1
 426 1 l 1
 388 1 l 1
 388 191 l 1
 278 191 l 1
 278 1 l 1
 237 1 l 1
 237 191 l 1
 187 191 l 1
 187 1 l 1
 137 1 l 1
 137 390 l 1xfd78
 50 390 l 1
 50 420 l 1xfe78
 150 420 l 1
 150 455 l 1xfcf8
 50 455 l 1
 50 485 l 1xfe78
 150 485 l 1
 150 520 l 1xfcf8
 50 520 l 1
 50 555 l 1
 187 555 l 1xfe78
 187 359 l 1
 187 346 l 1
 481 346 l 1
 481 537 l 1
 446 502 l 1
 413 502 l 1
 506 599 l 1xfd78
187 298 m 1
 187 233 l 1
 237 233 l 1
 237 298 l 1
 187 298 l 1
278 298 m 1
 278 233 l 1
 314 233 l 1
 314 298 l 1
 278 298 l 1
350 298 m 1
 350 233 l 1
 388 233 l 1
 388 298 l 1
 350 298 l 1
426 298 m 1
 426 233 l 1
 481 233 l 1
 481 298 l 1
 426 298 l 1
EndSplineSet
Validated: 1
EndChar

StartChar: unie0b9
Encoding: 440 57529 184
Width: 498
VWidth: 0
Flags: W
HStem: 1 21G<50 83 232 266 415 448> 234 42<83 135 180 232 266 318 363 415> 371 34<83 135 180 232 266 318 363 415>
VStem: 50 33<1 234 276 371 405 599> 135 45<276 371> 232 34<1 234 276 371 405 599> 318 45<276 371> 415 33<1 234 276 371 405 599>
LayerCount: 2
Fore
SplineSet
50 599 m 1
 83 599 l 1
 83 405 l 1
 232 405 l 1
 232 599 l 1
 266 599 l 1
 266 405 l 1
 415 405 l 1
 415 599 l 1
 448 599 l 1
 448 1 l 1
 415 1 l 1
 415 234 l 1
 266 234 l 1
 266 1 l 1
 232 1 l 1
 232 234 l 1
 83 234 l 1
 83 1 l 1
 50 1 l 1
 50 599 l 1
83 371 m 1
 83 276 l 1
 135 276 l 1
 135 371 l 1
 83 371 l 1
180 371 m 1
 180 276 l 1
 232 276 l 1
 232 371 l 1
 180 371 l 1
266 371 m 1
 266 276 l 1
 318 276 l 1
 318 371 l 1
 266 371 l 1
363 371 m 1
 363 276 l 1
 415 276 l 1
 415 371 l 1
 363 371 l 1
EndSplineSet
Validated: 1
EndChar

StartChar: unie0ba
Encoding: 441 57530 185
Width: 448
VWidth: 0
Flags: W
HStem: 0 21G<50 128 320 398> 193 49<128 320> 297 49<128 320> 401 49<128 320>
VStem: 50 78<0 193 242 297 346 401 450 600> 320 78<0 193 242 297 346 401 450 600>
LayerCount: 2
Fore
SplineSet
50 600 m 1
 128 600 l 1
 128 450 l 1
 320 450 l 1
 320 600 l 1
 398 600 l 1
 398 0 l 1
 320 0 l 1
 320 193 l 1
 128 193 l 1
 128 0 l 1
 50 0 l 1
 50 600 l 1
128 401 m 1
 128 346 l 1
 320 346 l 1
 320 401 l 1
 128 401 l 1
128 297 m 1
 128 242 l 1
 320 242 l 1
 320 297 l 1
 128 297 l 1
EndSplineSet
Validated: 1
EndChar

StartChar: unie0bb
Encoding: 442 57531 186
Width: 549
VWidth: 0
Flags: W
HStem: 0 21G<50 94 355 386> 195 45<94 355> 280 46<94 355> 368 46<94 355>
VStem: 50 44<0 195 240 280 326 368 414 570> 355 31<0 33.346 74 195 240 280 326 368 414 534 594 598> 453 46<201.735 417.637>
LayerCount: 2
Fore
SplineSet
370 599 m 1
 374 598 l 1
 386 598 l 1
 386 594 l 1
 494 557 l 1
 482 517 l 1
 458 525 l 1
 469 494 478 455 486 408 c 0
 494 361 499 326 499 301 c 0
 499 294 499 290 498 287 c 0
 483 195 446 103 386 12 c 1
 386 0 l 1
 355 0 l 1
 355 195 l 1
 94 195 l 1
 94 0 l 1
 50 0 l 1
 50 570 l 1
 94 570 l 1
 94 414 l 1
 355 414 l 1
 355 598 l 1
 370 598 l 1
 370 599 l 1
386 534 m 1
 386 326 l 1
 386 280 l 1
 386 74 l 1
 427 149 450 223 453 294 c 1
 453 319 449 346 442 376 c 0
 435 406 428 431 420 452 c 0
 412 473 401 500 386 534 c 1
94 368 m 1
 94 326 l 1
 355 326 l 1
 355 368 l 1
 94 368 l 1
94 280 m 1
 94 240 l 1
 355 240 l 1
 355 280 l 1
 94 280 l 1
EndSplineSet
Validated: 1
EndChar

